<svg width="280" height="200" version="1.1" viewBox="0 0 140 100" xmlns="http://www.w3.org/2000/svg">
<!--
    auteur du logo : Kroum Tzanev
    date : 29 juin 2020
    taille : 140x100 (rapport 1.4:1)
-->
<!-- <path d="M 0 0 H 140 V 100 H 0 Z" style="stroke:red;fill-opacity:.5"/> -->

  <!-- Logo -->
  <g style="stroke:none">
    <path style="fill:white" d="M 97.83 43.18 C 93.97 43.66 90.03 44.28 86.05 44.95 C 81.97 45.65 77.87 46.42 73.8 47.16 C 69.73 47.93 65.7 48.66 61.75 49.3 C 57.81 49.94 53.98 50.5 50.29 50.87 C 48.44 51.06 46.64 51.2 44.88 51.28 C 43.13 51.38 41.42 51.41 39.77 51.38 C 38.12 51.35 36.53 51.26 34.99 51.1 C 33.45 50.94 31.99 50.68 30.58 50.36 C 29.22 50.04 27.88 49.62 26.59 49.09 C 25.36 48.6 24.19 47.98 23.08 47.26 H 23.07 C 22.39 46.81 21.82 46.23 21.21 45.69 L 26.56 55.03 L 30.32 61.59 C 30.4 61.61 30.47 61.64 30.54 61.69 C 40.13 68.68 51.69 68.71 64.96 66.48 C 78.05 64.28 92.71 59.89 108.47 58 C 108.13 57.17 107.77 56.35 107.37 55.55 C 106.8 54.44 106.14 53.29 105.39 52.11 C 104.63 50.93 103.76 49.73 102.79 48.51 C 101.76 47.22 100.67 45.97 99.52 44.78 C 99.03 44.27 98.42 43.73 97.83 43.18 Z M 108.96 59.35 C 93.23 61.2 78.5 65.62 65.2 67.86 C 52.72 69.95 41.42 70.11 31.84 64.24 L 34.54 68.95 C 34.54 68.95 34.54 68.96 34.54 68.96 C 39.23 76.04 44.8 80.17 51.54 82.29 C 58.28 84.42 66.21 84.52 75.54 83.43 C 84.91 82.35 92.16 81.41 97.67 79.32 C 103.16 77.23 106.93 74.05 109.52 68.34 C 109.72 67.84 109.86 67.22 109.94 66.56 C 110.03 65.88 110.05 65.13 110 64.32 C 109.95 63.51 109.83 62.64 109.62 61.71 C 109.44 60.91 109.22 60.12 108.96 59.35 Z"/>
    <path style="fill:white" d="M 43.77 16.94 L 42.31 16.97 C 29.04 17.51 22.66 22.55 19.77 27.93 C 18.33 30.62 17.76 33.42 17.7 35.8 C 17.63 38.17 18.08 40.15 18.57 41.09 C 19.82 43.23 21.55 45.06 23.62 46.42 H 23.63 C 24.27 46.84 24.95 47.22 25.66 47.57 C 25.06 45.4 25.22 43.11 26.03 40.84 C 27.01 38.09 28.9 35.34 31.48 32.67 C 36.36 27.64 43.74 22.9 52.36 19.25 C 49.62 18.45 46.75 17.68 43.77 16.94 Z M 54.47 19.89 C 54.45 19.9 54.43 19.91 54.41 19.92 C 45.28 23.59 37.45 28.52 32.48 33.65 C 30 36.21 28.24 38.82 27.35 41.31 C 26.47 43.8 26.45 46.14 27.42 48.34 C 28.49 48.75 29.61 49.1 30.8 49.38 H 30.81 C 31.94 49.65 33.17 49.83 34.42 49.99 C 36.12 47.61 37.9 45.28 39.75 43.01 C 41.87 40.44 44.1 37.97 46.43 35.6 H 46.44 C 48.94 33.07 51.6 30.69 54.38 28.47 C 57.07 26.35 59.93 24.47 62.88 22.72 C 60.21 21.75 57.42 20.8 54.47 19.89 Z"/>
    <path style="fill:white" d="M 91.44 15.89 C 91.29 15.88 91.16 15.88 91.06 15.89 L 91.05 15.89 L 73.76 16.27 C 85.02 18.72 95.65 22.95 103.64 28.31 C 108.38 31.49 112.21 35.07 114.67 38.94 C 116.32 41.52 117.35 44.26 117.63 47.06 L 122.75 33.6 C 122.72 30.61 121.07 28.01 118.44 25.75 C 115.79 23.47 112.16 21.59 108.41 20.1 C 104.65 18.62 100.77 17.53 97.59 16.84 C 94.81 16.23 92.51 15.92 91.44 15.89 Z M 67.04 16.42 L 47.27 16.86 C 49.66 17.49 52.08 18.11 54.29 18.78 H 54.3 C 57.56 19.78 60.66 20.83 63.59 21.91 C 66.52 22.99 69.3 24.13 71.9 25.29 C 74.53 26.45 76.97 27.64 79.28 28.86 C 81.58 30.07 83.74 31.32 85.76 32.58 C 87.77 33.83 89.65 35.11 91.38 36.39 C 93.11 37.68 94.72 38.96 96.19 40.24 C 97.67 41.52 99.02 42.82 100.24 44.09 C 101.41 45.31 102.52 46.57 103.57 47.89 C 104.56 49.13 105.45 50.37 106.23 51.58 C 107 52.77 107.68 53.96 108.26 55.11 C 108.8 56.19 109.28 57.3 109.7 58.44 C 110.09 59.5 110.37 60.53 110.6 61.5 C 110.81 62.49 110.95 63.41 111 64.27 C 111 64.34 110.99 64.4 110.99 64.47 L 116.07 51.14 C 116.07 51.1 116.07 51.06 116.08 51.02 C 116.79 47.13 115.81 43.33 113.49 39.69 C 111.17 36.04 107.49 32.57 102.86 29.47 C 93.61 23.27 80.59 18.53 67.22 16.48 C 67.16 16.47 67.1 16.45 67.04 16.42 Z"/>
  </g>
</svg>
