<?xml version="1.0" encoding="UTF-8"?>
<svg xmlns="http://www.w3.org/2000/svg" xmlns:xlink="http://www.w3.org/1999/xlink" viewBox="-57.4 -11 56.5 56.5" version="1.1">
  <!-- <rect x="-57.4" y="-11" width="56.5" height="56.5" fill="black"/> -->
  <!-- LOGO -->
  <g style=" stroke:none;fill-rule:nonzero;fill:black;fill-opacity:1;">
    <path d="
    M -24.421 -7.078 L -23.847 -5.179 L -22.738 -6.371 L -23.214 -8.687 Z
    M -38.910 -5.628 L -37.425 -4.429 L -37.226 -5.867 L -38.835 -7.406 Z
    M -30.183 -1.582 L -29.617 -0.910 L -24.929 -7.167 L -25.515 -9.093 Z
    M -36.730 -6.035 L -31.226 -0.785 L -30.757 -1.539 L -36.425 -8.242 Z
    M -22.234 -6.230 L -21.050 -0.460 L -19.898 -1.109 L -20.617 -7.968 Z
    M -13.394 -2.011 L -13.761 -0.285 L -12.218 -0.816 L -11.617 -2.808 Z
    M -30.882 -0.460 L -30.343 0.054 L -29.906 -0.531 L -30.441 -1.171 Z
    M -29.308 -0.550 L -28.765 0.097 L -24.210 -4.785 L -24.765 -6.617 Z
    M -37.007 -4.089 L -31.792 0.121 L -31.472 -0.382 L -36.812 -5.480 Z
    M -19.410 -0.855 L -19.304 0.132 L -13.800 -2.335 L -13.394 -4.234 Z
    M -23.691 -4.667 L -22.226 0.195 L -21.472 -0.222 L -22.625 -5.816 Z
    M -20.957 0.011 L -20.792 0.796 L -19.75 0.328 L -19.851 -0.605 Z
    M -31.429 0.414 L -30.917 0.824 L -30.625 0.429 L -31.132 -0.058 Z
    M -30.007 0.378 L -29.488 0.871 L -29.085 0.437 L -29.597 -0.167 Z
    M -22.085 0.648 L -21.890 1.289 L -21.226 0.988 L -21.378 0.25 Z
    M -30.558 1.113 L -30.074 1.507 L -29.800 1.214 L -30.289 0.75 Z
    M -19.257 0.617 L -19.156 1.566 L -14.269 -0.109 L -13.917 -1.777 Z
    M -11.847 -0.453 L -12.582 1.972 L -10.996 1.632 L -9.867 -1.132 Z
    M -20.699 1.257 L -20.539 2.042 L -19.605 1.722 L -19.703 0.816 Z
    M -13.871 0.242 L -14.320 2.351 L -13.097 2.085 L -12.386 -0.269 Z
    M -21.757 1.734 L -21.558 2.394 L -20.976 2.195 L -21.128 1.453 Z
    M -40.402 2.308 L -39.718 2.496 L -39.382 -5.417 L -40.765 -6.531 Z
    M -28.464 0.457 L -26.601 2.656 L -22.640 0.429 L -24.058 -4.277 Z
    M -39.265 2.617 L -38.457 2.835 L -37.503 -3.894 L -38.933 -5.054 Z
    M -29.152 1.191 L -27.242 3.015 L -27.011 2.886 L -28.781 0.792 Z
    M -26.296 3.015 L -26.144 3.195 L -22.316 1.480 L -22.496 0.882 Z
    M -29.714 1.796 L -27.808 3.339 L -27.664 3.253 L -29.464 1.531 Z
    M -19.105 2.039 L -18.968 3.359 L -14.820 2.460 L -14.382 0.417 Z
    M -48.460 2.222 L -40.808 3.542 L -40.847 2.671 L -49.382 0.378 Z
    M -20.441 2.5 L -20.210 3.632 L -19.425 3.460 L -19.558 2.195 Z
    M -40.347 3.621 L -39.769 3.718 L -39.742 2.968 L -40.378 2.796 Z
    M -25.835 3.562 L -25.636 3.796 L -21.996 2.546 L -22.179 1.925 Z
    M -21.425 2.839 L -21.125 3.828 L -20.660 3.730 L -20.882 2.648 Z
    M -39.312 3.796 L -38.605 3.921 L -38.519 3.296 L -39.285 3.093 Z
    M -38.003 2.957 L -34.191 3.980 L -32.039 0.519 L -37.082 -3.558 Z
    M -49.789 3.917 L -48.058 4.062 L -48.773 2.636 L -50.800 2.285 Z
    M -33.726 4.105 L -33.437 4.183 L -31.199 1.195 L -31.671 0.808 Z
    M -27.855 3.890 L -28.457 4.230 L -27.800 3.937 Z
    M -32.957 4.312 L -32.746 4.371 L -30.390 1.847 L -30.839 1.484 Z
    M -38.152 4 L -34.585 4.613 L -34.445 4.390 L -38.066 3.417 Z
    M -25.320 4.175 L -24.914 4.648 L -21.578 3.929 L -21.863 2.984 Z
    M -47.515 4.109 L -40.765 4.671 L -40.792 4.015 L -48.203 2.734 Z
    M -40.300 4.710 L -39.816 4.75 L -39.792 4.183 L -40.324 4.089 Z
    M -39.359 4.792 L -38.734 4.839 L -38.671 4.382 L -39.335 4.265 Z
    M -27.398 4.265 L -28.730 4.859 L -27.277 4.359 Z
    M -32.238 4.507 L -30.652 4.929 L -28.242 3.582 L -30.031 2.136 Z
    M -32.652 4.949 L -31.871 5.085 L -32.597 4.890 Z
    M -38.273 4.882 L -34.925 5.160 L -34.851 5.039 L -38.214 4.457 Z
    M -28.890 5.406 L -28.664 5.468 L -26.492 4.996 L -26.851 4.703 Z
    M -27.496 5.777 L -25.289 5.964 L -26.031 5.367 L -27.687 5.726 Z
    M -23.691 6.097 L -20.851 6.335 L -21.445 4.371 L -24.578 5.054 Z
    M -20.355 6.375 L -20.113 6.398 L -20.570 4.183 L -20.992 4.273 Z
    M -19.628 6.437 L -19.109 6.476 L -19.375 3.925 L -20.117 4.085 Z
    M -33.398 5.753 L -34.265 6.683 L -33.589 6.531 L -33.109 6.312 L -32.277 5.843 Z
    M -18.640 6.523 L -15.730 6.765 L -14.921 2.957 L -18.921 3.824 Z
    M -34.683 5.644 L -35.421 6.832 L -34.542 5.656 Z
    M -15.265 6.800 L -14.550 6.859 L -13.253 2.593 L -14.425 2.847 Z
    M -14.074 6.898 L -13.171 6.972 L -11.207 2.148 L -12.734 2.480 Z
    M -22.933 6.621 L -20.644 7.019 L -20.707 6.812 Z
    M -12.687 7.015 L -11.011 7.156 L -7.753 1.398 L -10.656 2.027 Z
    M -19.472 7.226 L -19.023 7.300 L -19.058 6.949 L -19.535 6.906 Z
    M -38.343 5.339 L -38.664 7.640 L -36.125 7.089 L -35.203 5.601 Z
    M -22.007 7.257 L -20.449 7.675 L -20.492 7.515 Z
    M -39.378 5.25 L -39.484 7.816 L -39.148 7.742 L -38.800 5.300 Z
    M -18.550 7.382 L -15.953 7.832 L -15.828 7.222 L -18.589 6.988 Z
    M -40.281 5.175 L -40.164 7.964 L -39.949 7.921 L -39.839 5.214 Z
    M -15.5 7.910 L -14.898 8.011 L -14.683 7.316 L -15.359 7.257 Z
    M -14.433 8.089 L -13.683 8.222 L -13.355 7.425 L -14.214 7.351 Z
    M -38.734 8.125 L -38.761 8.304 L -37.394 7.832 Z
    M -13.214 8.304 L -11.800 8.546 L -11.261 7.601 L -12.875 7.464 Z
    M -18.464 8.207 L -16.167 8.824 L -16.050 8.281 L -18.5 7.863 Z
    M -47.273 4.589 L -45.058 9.027 L -40.625 8.062 L -40.746 5.136 Z
    M -15.718 8.945 L -15.218 9.078 L -15.031 8.457 L -15.597 8.363 Z
    M -49.480 4.410 L -46.433 9.324 L -45.523 9.128 L -47.816 4.546 Z
    M -14.773 9.199 L -14.144 9.367 L -13.859 8.660 L -14.574 8.539 Z
    M -38.917 9.421 L -38.941 9.589 L -37.550 8.812 Z
    M -11.312 8.632 L -5.617 9.613 L -4.136 8.195 L -10.753 7.644 Z
    M -51.980 4.199 L -47.921 9.648 L -46.910 9.429 L -50.054 4.363 Z
    M -21.925 8.085 L -19.800 9.800 L -20.289 8.195 L -22.398 7.632 L -22.359 7.675 Z
    M -13.699 9.488 L -12.511 9.808 L -12.042 8.976 L -13.394 8.742 Z
    M -44.847 9.453 L -44.441 10.257 L -40.589 8.933 L -40.605 8.535 Z
    M -46.171 9.742 L -45.601 10.656 L -44.882 10.410 L -45.308 9.554 Z
    M -18.769 10.636 L -18.667 10.722 L -18.890 8.570 L -19.210 8.484 Z
    M -47.617 10.054 L -46.851 11.085 L -46.054 10.808 L -46.648 9.847 Z
    M -39.601 10.488 L -39.628 11.152 L -39.527 10.453 Z
    M -44.230 10.675 L -43.980 11.179 L -40.558 9.648 L -40.566 9.414 Z
    M -12.050 9.929 L -7.285 11.214 L -6.035 10.011 L -11.558 9.058 Z
    M -39.023 10.167 L -39.183 11.281 L -37.835 9.839 L -37.515 9.320 Z
    M -45.351 11.058 L -44.996 11.636 L -44.398 11.371 L -44.675 10.828 Z
    M -6.765 11.347 L -5.117 11.792 L -3.449 10.460 L -5.472 10.113 Z
    M -46.558 11.472 L -46.082 12.121 L -45.421 11.828 L -45.800 11.214 Z
    M -43.773 11.593 L -43.496 12.148 L -40.523 10.480 L -40.539 10.144 Z
    M -18.160 11.132 L -16.875 12.167 L -16.265 9.277 L -18.410 8.699 Z
    M -16.472 12.492 L -16.296 12.632 L -15.355 9.519 L -15.816 9.394 Z
    M -44.75 12.035 L -44.375 12.644 L -43.898 12.378 L -44.195 11.785 Z
    M -17.875 11.949 L -17.007 12.781 L -16.984 12.671 Z
    M -54.734 11.601 L -52.667 13.089 L -47.312 11.242 L -48.113 10.164 Z
    M -15.910 12.941 L -15.679 13.132 L -14.324 9.800 L -14.910 9.640 Z
    M -45.792 12.507 L -45.304 13.167 L -44.773 12.867 L -45.175 12.222 Z
    M -17.976 12.855 L -17.214 13.761 L -17.121 13.312 L -18.019 12.453 Z
    M -15.304 13.433 L -14.800 13.843 L -12.746 10.222 L -13.871 9.921 Z
    M -52.207 13.417 L -50.957 14.312 L -46.511 12.316 L -47.019 11.632 Z
    M -15.589 14.136 L -15.183 14.523 L -15.027 14.253 L -15.484 13.882 Z
    M -43.289 12.562 L -42.269 14.601 L -40.433 12.632 L -40.5 11 Z
    M -44.128 13.039 L -42.804 15.171 L -42.609 14.960 L -43.691 12.792 Z
    M -55.171 14.433 L -53.445 15.421 L -51.453 14.523 L -52.742 13.597 Z
    M -42.050 15.042 L -41.859 15.425 L -40.402 13.476 L -40.410 13.277 Z
    M -50.527 14.625 L -49.363 15.449 L -45.710 13.394 L -46.226 12.695 Z
    M -16.015 15.179 L -15.738 15.503 L -15.417 14.937 L -15.773 14.593 Z
    M -17.757 14.976 L -17.589 15.527 L -17.335 14.328 L -17.890 13.671 Z
    M -45.023 13.539 L -43.359 15.769 L -43.128 15.519 L -44.527 13.261 Z
    M -16.597 15.203 L -16.808 15.902 L -16.550 15.265 Z
    M -14.433 14.136 L -12.218 15.925 L -7.675 11.582 L -12.285 10.343 Z
    M -42.550 15.578 L -42.292 16 L -42.171 15.839 L -42.382 15.402 Z
    M -52.953 15.707 L -51.406 16.593 L -49.812 15.699 L -51.015 14.839 Z
    M -43.082 16.148 L -42.742 16.601 L -42.585 16.394 L -42.878 15.929 Z
    M -14.835 14.855 L -12.960 16.640 L -12.550 16.25 L -14.664 14.546 Z
    M -11.851 16.222 L -11.257 16.703 L -5.570 12.152 L -7.156 11.722 Z
    M -12.628 16.964 L -12.148 17.417 L -11.628 17 L -12.191 16.542 Z
    M -10.886 17 L -10.175 17.574 L -2.957 12.851 L -5.011 12.300 Z
    M -15.417 15.878 L -13.964 17.601 L -13.292 16.964 L -15.074 15.265 Z
    M -16.980 17.542 L -16.949 17.644 L -15.976 15.933 L -16.210 15.660 Z
    M -55.289 16.753 L -53.308 17.664 L -51.875 16.859 L -53.472 15.941 Z
    M -41.707 16.933 L -41.25 17.675 L -41.660 16.859 Z
    M -41.371 16.394 L -40.589 17.957 L -40.296 15.902 L -40.347 14.75 Z
    M -48.953 15.746 L -45.589 18.160 L -43.683 16.113 L -45.429 13.769 Z
    M -11.812 17.738 L -11.25 18.277 L -10.582 17.839 L -11.257 17.296 Z
    M -13.667 17.957 L -13.324 18.355 L -12.515 17.707 L -12.960 17.281 Z
    M -42.066 17.511 L -41.050 18.867 L -41.984 17.371 Z
    M -45.207 18.429 L -44.496 18.941 L -43.031 16.988 L -43.398 16.492 Z
    M -13.027 18.710 L -12.628 19.179 L -11.644 18.531 L -12.175 18.031 Z
    M -50.933 16.863 L -46.660 19.312 L -45.910 18.5 L -49.398 15.996 Z
    M -44.121 19.214 L -43.808 19.437 L -42.625 17.531 L -42.742 17.375 Z
    M -16.761 18.257 L -16.289 19.824 L -14.300 17.921 L -15.660 16.308 Z
    M -46.246 19.546 L -45.335 20.066 L -44.773 19.312 L -45.527 18.773 Z
    M -52.789 17.902 L -47.574 20.296 L -46.984 19.656 L -51.406 17.125 Z
    M -17.085 18.820 L -16.781 20.296 L -16.664 20.183 L -17.078 18.812 Z
    M -44.933 20.296 L -44.5 20.546 L -44.054 19.828 L -44.398 19.582 Z
    M -16.140 20.320 L -16.070 20.550 L -13.683 18.648 L -14 18.277 Z
    M -47.128 20.5 L -46.035 20.996 L -45.617 20.441 L -46.570 19.890 Z
    M -15.929 21.031 L -15.847 21.281 L -13.023 19.433 L -13.386 18.996 Z
    M -43.429 19.707 L -41.074 21.394 L -40.863 19.898 L -42.328 17.933 Z
    M -45.605 21.191 L -45.058 21.449 L -44.742 20.937 L -45.214 20.671 Z
    M -40.648 21.699 L -40.546 21.773 L -40.496 20.593 Z
    M -18.257 20.894 L -18.472 21.914 L -17.585 21.062 L -17.707 19.921 Z
    M -17.523 21.648 L -17.972 22.074 L -17.515 21.714 Z
    M -44.097 20.777 L -41.222 22.425 L -41.148 21.910 L -43.679 20.101 Z
    M -17.464 22.257 L -18.011 22.699 L -17.453 22.328 Z
    M -44.636 21.640 L -41.328 23.156 L -41.292 22.917 L -44.343 21.171 Z
    M -39.566 22.480 L -38.445 23.281 L -38.656 22.859 L -39.601 21.589 Z
    M -10.906 18.601 L -5.355 23.898 L -3.476 23.578 L -10.207 18.144 Z
    M -39.527 23.398 L -37.929 24.308 L -38 24.167 L -39.539 23.066 Z
    M -12.332 19.535 L -8.230 24.382 L -5.929 23.992 L -11.304 18.863 Z
    M -15.707 21.742 L -14.585 25.460 L -8.761 24.472 L -12.718 19.789 Z
    M -16.390 22.191 L -15.679 25.640 L -15.046 25.535 L -16.113 22.011 Z
    M -16.964 22.566 L -16.625 25.804 L -16.136 25.722 L -16.808 22.464 Z
    M -7.882 24.792 L -6.914 25.941 L -4.128 25.707 L -5.507 24.390 Z
    M -18.875 23.816 L -19.398 26.273 L -17.082 25.882 L -17.398 22.847 Z
    M -19.671 25.332 L -19.988 26.371 L -19.886 26.355 Z
    M -20.164 25.363 L -20.621 26.480 L -20.496 26.460 Z
    M -14.453 25.902 L -14.257 26.554 L -7.476 25.988 L -8.414 24.882 Z
    M -20.519 24.890 L -21.503 26.628 L -21.156 26.574 L -20.453 24.847 Z
    M -15.585 26.097 L -15.472 26.656 L -14.726 26.597 L -14.910 25.980 Z
    M -16.574 26.265 L -16.523 26.742 L -15.937 26.695 L -16.042 26.171 Z
    M -21.773 25.707 L -22.996 26.882 L -22.093 26.730 L -21.363 25.441 Z
    M -19.5 26.761 L -19.554 26.996 L -16.988 26.785 L -17.035 26.343 Z
    M -53.265 27.085 L -50.656 27.164 L -46.320 21.378 L -47.460 20.851 Z
    M -50.089 27.183 L -48.656 27.222 L -45.304 21.839 L -45.890 21.570 Z
    M -48.121 27.238 L -41.933 27.425 L -41.390 23.636 L -44.882 22.039 Z
    M -41.464 27.441 L -40.792 27.464 L -40.644 23.980 L -40.953 23.835 Z
    M -40.328 27.476 L -39.820 27.492 L -39.949 24.296 L -40.187 24.187 Z
    M -39.355 27.507 L -36.285 27.597 L -37.339 25.496 L -39.480 24.511 Z
    M -35.761 27.613 L -35.625 27.621 L -36.328 26.484 Z
    M -34.511 27.652 L -33.085 27.695 L -33.617 27.312 L -34.597 26.753 L -35.480 26.347 Z
    M -31.308 27.746 L -29.265 27.808 L -27.699 27.679 L -24.898 27.207 L -22.050 25.339 L -20.417 23.777 L -18.984 21.238 L -18.703 20.550 L -18.546 20.035 L -17.972 17.339 L -18.093 16.226 L -18.578 13.851 L -19.042 12.312 L -22.515 8.203 L -23.640 7.292 L -26.988 6.394 L -28.203 6.187 L -29.355 6.089 L -33.289 6.945 L -35.851 8.386 L -36.648 9.242 L -38.25 11.382 L -39.468 13.339 L -39.832 15.957 L -39.675 19.785 L -38.582 21.964 L -37.792 23.246 L -36.984 24.328 L -33.820 26.597 Z
    M -24.128 27.964 L -22.812 28.007 L -22.652 27.718 L -23.988 27.832 Z
    M -22.289 28.019 L -21.753 28.035 L -21.585 27.632 L -22.097 27.671 Z
    M -19.785 28.097 L -16.835 28.183 L -16.941 27.242 L -19.652 27.468 Z
    M -16.375 28.199 L -15.625 28.222 L -15.843 27.152 L -16.476 27.207 Z
    M -15.148 28.238 L -14.226 28.265 L -14.589 27.046 L -15.378 27.113 Z
    M -13.734 28.277 L -5.328 28.531 L -7.113 26.421 L -14.121 27.007 Z
    M -39.335 27.964 L -39.308 28.652 L -35.902 28.363 L -36.054 28.066 Z
    M -40.351 27.937 L -40.382 28.742 L -39.769 28.691 L -39.800 27.953 Z
    M -41.531 27.902 L -41.664 28.847 L -40.847 28.781 L -40.808 27.921 Z
    M -29.703 28.488 L -28.031 29.257 L -26.652 28.351 L -28.562 28.292 Z
    M -48.406 27.695 L -49.523 29.503 L -42.132 28.882 L -41.996 27.886 Z
    M -27.535 29.480 L -27.339 29.570 L -25.863 28.386 Z
    M -39.289 29.113 L -39.265 29.636 L -35.578 29.015 L -35.679 28.812 Z
    M -29.933 28.886 L -28.625 29.640 L -28.484 29.550 Z
    M -50.429 27.632 L -51.988 29.714 L -50.105 29.550 L -48.937 27.679 Z
    M -40.402 29.203 L -40.429 29.832 L -39.726 29.714 L -39.75 29.152 Z
    M -26.871 29.785 L -26.75 29.839 L -25.824 28.949 Z
    M -41.726 29.316 L -41.835 30.070 L -40.894 29.914 L -40.863 29.246 Z
    M -26.300 30.042 L -24.449 30.894 L -23.070 28.460 L -24.597 28.414 Z
    M -24.027 31.089 L -23.156 31.488 L -21.937 28.496 L -22.550 28.476 Z
    M -33.417 29.117 L -31.585 31.578 L -29.535 30.238 L -31.546 28.796 Z
    M -49.832 29.996 L -50.832 31.593 L -42.312 30.152 L -42.203 29.355 Z
    M -26.910 30.621 L -24.933 31.75 L -24.675 31.300 L -26.660 30.390 Z
    M -22.738 31.679 L -22.160 31.949 L -21.121 28.519 L -21.449 28.507 Z
    M -34.078 29.226 L -32.320 32.062 L -31.972 31.832 L -33.929 29.203 Z
    M -21.742 32.136 L -21.171 32.398 L -20.351 28.542 L -20.644 28.531 Z
    M -31.308 31.949 L -30.937 32.449 L -28.820 30.753 L -29.132 30.527 Z
    M -24.535 31.980 L -23.582 32.531 L -23.332 31.917 L -24.257 31.492 Z
    M -27.464 31.156 L -25.421 32.617 L -25.164 32.152 L -27.253 30.953 Z
    M -34.886 29.363 L -33.238 32.660 L -32.707 32.316 L -34.570 29.312 Z
    M -32.078 32.453 L -31.703 33.058 L -31.296 32.738 L -31.695 32.203 Z
    M -23.175 32.757 L -22.523 33.132 L -22.296 32.390 L -22.914 32.109 Z
    M -30.660 32.816 L -30.332 33.257 L -28.183 31.210 L -28.429 31.031 Z
    M -25.046 32.890 L -24.027 33.617 L -23.761 32.957 L -24.761 32.386 Z
    M -22.109 33.371 L -21.457 33.742 L -21.265 32.863 L -21.875 32.589 Z
    M -33.031 33.074 L -32.656 33.820 L -32.066 33.347 L -32.464 32.707 Z
    M -31.457 33.453 L -31.109 34.007 L -30.664 33.582 L -31.023 33.105 Z
    M -23.640 33.898 L -22.914 34.417 L -22.660 33.589 L -23.351 33.191 Z
    M -20.742 32.593 L -16.160 34.699 L -16.792 28.652 L -19.882 28.554 Z
    M -32.445 34.246 L -32.093 34.949 L -31.453 34.335 L -31.824 33.746 Z
    M -22.515 34.703 L -21.773 35.238 L -21.558 34.218 L -22.25 33.820 Z
    M -15.671 34.917 L -14.097 35.640 L -15.527 28.687 L -16.328 28.664 Z
    M -39.25 30.101 L -38.988 36.421 L -33.628 32.914 L -35.363 29.449 Z
    M -30.050 33.636 L -27.75 36.726 L -25.656 33.023 L -27.800 31.480 Z
    M -13.574 35.882 L -11.652 36.765 L -14.082 28.730 L -15.054 28.703 Z
    M -21.035 33.988 L -15.933 36.910 L -16.101 35.230 L -20.839 33.062 Z
    M -40.449 30.308 L -40.757 37.582 L -39.437 36.714 L -39.707 30.179 Z
    M -30.859 34.410 L -28.546 38.136 L -27.996 37.167 L -30.386 33.957 Z
    M -15.437 37.195 L -13.554 38.269 L -13.980 36.203 L -15.613 35.453 Z
    M -38.964 36.960 L -38.890 38.804 L -33.023 34.117 L -33.417 33.332 Z
    M -27.445 37.128 L -26.164 38.859 L -24.207 34.058 L -25.273 33.292 Z
    M -41.902 30.554 L -43.113 39.121 L -41.234 37.894 L -40.917 30.390 Z
    M -21.363 35.531 L -15.644 39.628 L -15.871 37.480 L -21.136 34.460 Z
    M -31.875 35.378 L -29.582 39.964 L -28.808 38.597 L -31.203 34.734 Z
    M -40.785 38.152 L -40.882 40.398 L -39.335 39.167 L -39.414 37.253 Z
    M -25.839 39.292 L -24.808 40.671 L -23.054 34.886 L -23.816 34.339 Z
    M -28.269 38.585 L -26.929 40.75 L -26.367 39.355 L -27.695 37.570 Z
    M -38.863 39.378 L -38.781 41.351 L -32.441 35.281 L -32.812 34.539 Z
    M -24.468 41.132 L -23.343 42.636 L -21.878 35.730 L -22.656 35.167 Z
    M -26.628 41.230 L -25.523 43.015 L -24.976 41.222 L -26.042 39.789 Z
    M -29.332 40.464 L -27.945 43.238 L -27.144 41.277 L -28.531 39.042 Z
    M -27.902 44.359 L -29.609 40.949 L -31.222 43.800 L -31.625 43.574 L -29.859 40.449 L -32.226 35.714 L -39.203 42.390 L -39.312 39.738 L -41.390 41.398 L -41.261 38.460 L -43.714 40.062 L -42.382 30.636 L -51.765 32.222 L -50.410 30.042 L -52.972 30.257 L -50.996 27.617 L -54.300 27.515 L -47.906 20.648 L -53.285 18.179 L -55.636 19.503 L -55.863 19.101 L -53.808 17.941 L -56.410 16.75 L -53.968 15.656 L -56.289 14.328 L -53.203 13.269 L -55.847 11.371 L -48.417 9.757 L -52.964 3.652 L -50.363 3.871 L -51.734 1.652 L -49.027 2.121 L -50.257 -0.332 L -40.871 2.187 L -41.269 -7.535 L -39.359 -5.988 L -39.253 -8.445 L -37.144 -6.429 L -36.738 -9.328 L -30.5 -1.953 L -25.367 -10.203 L -24.589 -7.628 L -22.968 -9.785 L -22.351 -6.785 L -20.265 -9.031 L -19.464 -1.355 L -12.730 -5.136 L -13.277 -2.570 L -10.875 -3.644 L -11.679 -1 L -9.054 -1.902 L -10.445 1.507 L -6.843 0.726 L -10.503 7.199 L -3.074 7.820 L -5.050 9.714 L -2.359 10.179 L -4.566 11.941 L -1.843 12.671 L -9.800 17.878 L -2.386 23.863 L -4.941 24.296 L -3.066 26.085 L -6.546 26.371 L -4.304 29.027 L -13.593 28.746 L -10.914 37.609 L -13.460 36.445 L -12.894 39.179 L -15.375 37.761 L -15.078 40.601 L -21.468 36.023 L -23.105 43.734 L -24.632 41.683 L -25.375 44.128 L -26.847 41.761 Z"/>
  </g>
</svg>
