<?xml version="1.0" encoding="UTF-8" standalone="no"?>
<!DOCTYPE svg PUBLIC "-//W3C//DTD SVG 1.1//EN"
  "http://www.w3.org/Graphics/SVG/1.1/DTD/svg11.dtd">
<svg version="1.1" xmlns="http://www.w3.org/2000/svg" preserveAspectRatio="xMidYMid meet" viewBox="-19.35 -19.35 750.7 129.5">
  <title>Logo du Département de Mathématiques de l'Université de Lille</title>
  <desc>
    Cette version est basée sur un PDF officiel de l'Université, converti avec Inkscape, puis modifié avec SVYPathy et à la main par K. Tzanev.
    v1.0 : 7 décembre 2017
  </desc>
  <!-- Logos + textes (sans zone de protection) 9.57 cm x 3.19 cm = 272.4pt x 90.8pt (1cm = 28.45275pt) -->
  <!-- <rect x="0" y="0" width="712" height="90.8" fill="yellow"/> -->

  <!-- zone de protection = 1.36cm = 38.7pt (1cm = 28.45275pt) autour du logo -->
  <!-- <rect x="-38.7" y="-38.7" width="789.4" height="168.2" fill="green"/> -->
  <!-- J'ai réduit cette zone de protection de moitié. -->
  <!-- zone de protection = 0.68cm = 19.35pt (1cm = 28.45275pt) autour du logo -->
  <!-- <rect x="-19.35" y="-19.35" width="750.7" height="129.5" fill="green"/> -->

  <!-- Logo Université de Lille -->
  <path  fill="#ffffff" d="M77.5 0l-77.5 0 0 53.5c0 22.3 16.7 37.3 38.7 37.3 5.9 0 11.5-1.1 16.4-3.1l9.2-3.9 13.2 6zm-38.8 71l-17.2-7.8 0-46 17.2 0zm22.2-7.6l-16.8 7.6 0-9.1 16.8-7.7z"/>
  <!-- Université de Lille -->
  <path fill="#ffffff" d="M92.53 19.12c0 5.8.06 10.88.12 11.31.06.41.28 1.25.48 1.86 1.13 3.38 3.94 5.81 7.61 6.56 1.22.25 3.54.3 4.69.1 1.1-.19 2.53-.68 3.54-1.23l.93-.49 2.01.93c1.12.52 2.06.92 2.13.92.05 0 .08-6.86.08-15.24V8.6h-4.56v10.58c0 9.14-.02 10.69-.18 11.32-.74 2.9-3 4.62-6.06 4.62-3.06 0-5.22-1.61-6.08-4.52-.19-.64-.22-1.68-.26-11.36L96.95 8.6h-4.43l.01 10.52zM127.45 17c-.98.16-2.57.7-3.3 1.14l-.65.38-1.52-.69c-.84-.38-1.63-.73-1.75-.77-.23-.07-.23.19-.23 10.91v10.99h4.31l.03-7.3c.04-7.26.04-7.28.32-7.95.74-1.85 1.93-2.63 4.04-2.64 1.74-.01 2.96.68 3.66 2.09.2.41.42 1.07.48 1.46.07.41.12 3.65.12 7.52v6.82h4.33l-.05-8.02c-.04-7.25-.06-8.08-.25-8.72-.55-1.85-1.93-3.52-3.55-4.3-1.62-.78-4.31-1.19-5.99-.92zm15.23-6.24v2.16h4.44V8.6h-4.44v2.16zm0 17.34v10.86h4.44V17.24h-4.44V28.1zm9.18-10.42c.49 3.64.78 5.22 1.45 7.9 1.25 4.94 3.11 9.37 5.35 12.7l.47.68 2.25-.02 2.24-.04.76-1.14c1.52-2.28 3.38-6.47 4.39-9.9.83-2.82 1.67-6.76 1.93-9.06.04-.36.1-.86.13-1.12l.07-.44h-4.34l-.01.5c0 .29-.02.62-.05.76-.02.13-.1.72-.18 1.32-.54 4.26-2.54 10.7-4.58 14.74l-.41.82-.58-1.24c-2.38-5.09-4.13-11.23-4.57-16.04l-.08-.86h-4.3l.06.44zm29.58-.66c-2.62.3-4.8 1.7-6.12 3.93-1.92 3.24-2.2 9.23-.6 13.09 1.46 3.56 5.06 5.53 9.54 5.22 2.72-.19 4.46-.92 6.58-2.74l.69-.6-.63-.64c-.35-.36-.95-.92-1.32-1.26l-.7-.6-.56.5c-1.09.96-2.24 1.39-4.06 1.51-2.68.18-4.64-.8-5.59-2.78-.19-.41-.35-.79-.35-.85 0-.06.55-.18 1.24-.27 2.89-.35 6.05-1.19 7.77-2.06 2.94-1.48 4.19-3.29 4.19-6.05 0-2.9-1.85-5.23-4.79-6.05-1.56-.43-3.5-.56-5.29-.35zm4.14 4.31c1.16.43 1.86 1.34 1.86 2.39-.01.85-.91 1.97-2.12 2.6-1.31.7-4.13 1.44-6.81 1.79l-.59.07.08-1.65c.08-1.87.32-2.86.91-3.79.4-.61 1.28-1.27 2.11-1.54 1.15-.38 3.35-.32 4.56.13zM203.16 17c-1.04.17-2.52.67-3.26 1.12l-.68.42-1.69-.77c-.92-.42-1.74-.77-1.81-.77-.08 0-.12 3.55-.12 10.98v10.98h4.43l.03-7.3c.04-7.19.04-7.3.3-7.99.66-1.74 1.94-2.58 4-2.6.62-.01 1.12.06 1.6.23l.69.25.51-.81c1.02-1.6 1.8-2.9 1.75-2.95-.02-.01-.26-.12-.54-.23-1.25-.48-3.9-.77-5.21-.56zm13.81.02c-3.31.37-5.92 2.42-6.48 5.12-.29 1.4-.08 3.38.48 4.48.38.76 1.44 1.74 2.29 2.14 1.18.55 2.36.79 4.96 1.01 2.9.25 3.56.41 4.15 1.03.52.54.68 1.14.58 2.08-.18 1.63-1.93 2.6-4.73 2.6-2.15 0-4.24-.67-5.58-1.8l-.56-.47-1.42 1.43c-1.6 1.62-1.57 1.45-.42 2.34 1.88 1.45 4.04 2.14 7.12 2.27 3.53.14 6.24-.62 7.99-2.27 1.36-1.28 1.93-2.68 1.93-4.68 0-2.54-1.01-4.3-3.04-5.28-1.32-.62-2.16-.78-5.9-1.08-1.78-.14-2.42-.32-3.04-.84-.55-.46-.74-.9-.74-1.68 0-1.19.72-2.11 1.98-2.54.79-.28 3.25-.28 4.42 0 .82.2 1.78.62 2.4 1.08l.34.24 1.37-1.37c.76-.76 1.37-1.4 1.37-1.44 0-.05-.36-.34-.8-.64-1.44-.97-3.16-1.52-5.5-1.75-1.34-.13-1.79-.13-3.17.02zm14.51-6.26v2.16h4.44V8.6h-4.44v2.16zm0 17.34v10.86h4.44V17.24h-4.44V28.1zm11.76-15.18v4.32h-2.64v3.36h2.64v6.58c0 6.17.01 6.65.24 7.51.3 1.18.72 1.97 1.45 2.7 1.13 1.12 2.56 1.57 5.05 1.57 1.82 0 1.68.2 1.64-2.22l-.04-1.68-1.24-.02c-1.49-.02-2.06-.28-2.47-1.06-.24-.47-.25-.66-.29-6.94l-.03-6.44h4.09v-3.36h-4.08V8.6h-4.32v4.32zm20.38-3.16l-4.9 2.24v1.9c0 1.06.05 1.9.11 1.88.05-.02 2.29-1.03 4.97-2.26l4.88-2.22V9.4c0-1.03-.04-1.88-.08-1.88-.06 0-2.29 1.01-4.98 2.24zm-1.3 7.24c-2.1.29-3.49.95-4.86 2.34-1.14 1.14-1.72 2.09-2.21 3.65-.48 1.5-.7 2.93-.72 4.94-.08 5.76 2 9.49 6.04 10.78 3.24 1.04 7.2.61 9.62-1.03.74-.52 2.09-1.68 2.09-1.83 0-.04-.56-.6-1.26-1.25l-1.25-1.17-.69.56c-.88.72-1.69 1.09-2.86 1.31-3.08.6-5.6-.37-6.7-2.57-.49-1-.47-1.04.5-1.15 3.85-.41 7.32-1.46 9.45-2.88 1.58-1.06 2.28-1.98 2.69-3.6.29-1.13.3-2.04.06-3-.71-2.75-2.5-4.33-5.56-4.93-1.06-.2-3.43-.3-4.34-.17zm3.92 4.27c.7.22 1.51.85 1.79 1.39.26.5.24 1.4-.05 1.97-.44.85-1.45 1.62-2.8 2.14-1.36.5-3.74 1.06-5.76 1.33l-.58.07v-1.41c.01-3.02.74-4.55 2.62-5.42 1.12-.5 3.29-.54 4.78-.07zM106.2 55.23c0 3.9-.02 4.62-.17 4.57-3.3-1.27-7.39-.99-9.85.65-1.38.93-2.28 2.14-2.95 3.95-.65 1.78-.85 3.26-.85 5.88.02 7.12 3.63 11.03 9.92 10.76 1.63-.06 2.57-.32 3.89-1.1l.75-.44 1.41.62c.77.35 1.57.71 1.79.79l.38.17V50.6h-4.32v4.63zm-2.22 8.09c.62.2.96.41 1.39.84.83.83.85 1.04.81 6.24l-.04 4.38-.36.65c-.78 1.41-2.51 2.1-4.57 1.82-2.26-.31-3.77-1.73-4.31-4.01-.22-.92-.25-5.73-.05-6.7.39-1.77 1.47-2.92 3.23-3.41.86-.24 2.92-.13 3.9.19zm17.29-4.08c-4.16 1.06-6.39 4.49-6.62 10.14-.27 6.38 2.04 10.34 6.73 11.59 1.42.39 4.62.39 6 0 1.1-.3 2.21-.79 3.02-1.34.88-.6 1.97-1.57 1.94-1.73-.03-.07-.59-.66-1.28-1.31l-1.22-1.19-.54.51c-.72.66-2.03 1.27-3.08 1.45-.5.08-1.38.12-2.07.1-1.91-.1-3.07-.66-4.05-1.96-.58-.76-.93-1.6-.71-1.73.08-.06.67-.15 1.31-.24 4.78-.59 8.48-2.03 10.3-4.01.71-.78 1.08-1.51 1.31-2.59.75-3.51-1.23-6.63-4.83-7.58-1.43-.39-4.89-.45-6.21-.11zm4.92 4.01c.75.23 1.54.79 1.85 1.31.29.46.32 1.46.07 2.06-.24.56-1.08 1.34-1.91 1.76-1.39.7-4.34 1.48-6.55 1.72l-.77.08.06-1.71c.09-2.02.34-2.97 1.04-3.89.48-.62 1.36-1.19 2.28-1.45.73-.22 3.09-.15 3.93.12zm19.75.21c.04 12.14.05 12.92.27 13.54.71 2.1 1.88 3.25 3.87 3.77.62.15 1.59.19 5.91.19h5.17v-3.72h-4.52c-2.62 0-4.72-.05-4.97-.12-.51-.14-.99-.62-1.18-1.19-.09-.29-.13-3.89-.13-12.86V50.6h-4.44l.02 12.86zm18.58-10.64v2.22h4.32V50.6h-4.32v2.22zm0 17.28v10.86h4.32V59.24h-4.32V70.1zm10.58-6.76c.04 11.76.06 12.82.26 13.47.32 1.09.9 2.06 1.59 2.7 1.23 1.11 2.33 1.45 4.81 1.45h1.72v-3.8l-1.25-.06c-1.49-.08-2.03-.29-2.4-1.01-.25-.47-.25-.6-.29-12.99l-.02-12.5h-4.45l.03 12.74zm12.27-12.58c-.04.09-.04 5.83-.01 12.75.03 11.67.04 12.64.25 13.31.32 1.1.89 2.05 1.58 2.69 1.21 1.1 2.35 1.45 4.81 1.45h1.72v-3.8l-1.22-.06c-1.28-.06-1.76-.21-2.18-.68-.56-.61-.55-.43-.56-13.5V50.6h-2.16c-1.69 0-2.18.04-2.23.16zm17.65 8.43c-1.16.25-2.86 1.11-3.68 1.85-1.38 1.24-2.36 3.11-2.87 5.53-.36 1.68-.4 5.27-.07 6.83.88 4.27 2.91 6.64 6.5 7.57 1.34.36 4.37.39 5.76.06 1.79-.41 2.94-1.02 4.49-2.35l.87-.76-1.29-1.22-1.31-1.22-.84.64c-1.31 1-2.5 1.36-4.5 1.36-2.42 0-4.06-.94-4.94-2.83-.21-.43-.34-.82-.29-.85.03-.04.77-.17 1.62-.29 4.77-.67 8.1-1.96 9.97-3.85 1.82-1.85 2.08-5.22.58-7.56-.81-1.28-2.31-2.3-4.02-2.75-1.28-.35-4.72-.43-5.98-.16zm4.92 4.13c1.31.49 2.1 1.61 1.91 2.65-.35 1.86-2.57 3.06-7.19 3.9-.53.1-1.25.21-1.58.24l-.64.07v-1.11c.01-3.58.96-5.25 3.36-5.94.86-.27 3.24-.15 4.14.19z"/>

  <!-- le trait -->
  <path fill="#ffffff" d="M308.124 43.97v22.14l38.66-18.393v-21.784z"/>

  <!-- Logo Faculté -->
  <path fill="#ffffff" d="M455.46 89.65h16v-36h-16z m-50-44v-44h44v16h-28v28z m28-0.01c0 0 0 0 0 0.01 0 11.05-8.95 20-20 20-7.35-0.01-14.1-4.04-17.58-10.52l-14.09 7.6c6.28 11.65 18.44 18.91 31.67 18.92 19.88 0 36-16.12 36-36l-16 0z"/>
  <!-- FACULTÉ DES SCIENCES ET TECHNOLOGIES -->
  <path fill="#ffffff" d="M490.26 16.47h-4.47v-15.17h9.928v3.29h-5.458v2.895h5.032v3.29h-5.032v5.695z m18.063 0l-0.828-2.843h-5.458l-0.85 2.843h-4.987l5.48-15.232h6.057l5.55 15.232h-4.964z m-1.77-6.205l-0.724-2.49q-0.26-0.83-0.62-2.148t-0.48-1.888q-0.11 0.52-0.42 1.74-0.3 1.21-1.35 4.78h3.57z m15.58-5.82q-1.62 0-2.527 1.203-0.907 1.193-0.907 3.3 0 4.378 3.68 4.378 1.11 0 2.16-0.28 1.04-0.28 2.1-0.674v3.465q-2.11 0.84-4.76 0.84-3.81 0-5.84-1.992t-2.03-5.758q0-2.356 0.97-4.14 0.98-1.785 2.82-2.74 1.85-0.964 4.34-0.964 2.72 0 5.2 1.068l-1.39 3.23q-0.93-0.39-1.86-0.66t-2-0.27z m22.064-3.145v9.13q0 2.98-1.873 4.62-1.86 1.628-5.377 1.628-3.436 0-5.286-1.588-1.84-1.587-1.84-4.565v-9.225h4.57v8.903q0 1.608 0.67 2.335 0.67 0.726 1.97 0.726 1.39 0 2.01-0.716 0.64-0.726 0.64-2.366v-8.882h4.54z m3.55 15.17v-15.17h4.54v11.86h6.47v3.31h-11.01z m20.65 0h-4.54v-11.818h-4.1v-3.352h12.73v3.352h-4.09v11.818z m16.488 0h-9.974v-15.17h9.98v3.29h-5.43v2.386h5.03v3.29h-5.03v2.863h5.44v3.34z m-7.63-16.384v-0.3q1.77-1.712 2.24-2.21 0.482-0.5 0.793-0.893h4.918v0.218q-0.92 0.67-2.528 1.7-1.61 1.03-2.436 1.5h-2.988z m-79.355 33.519q0 3.756-2.045 5.748-2.034 1.982-5.863 1.982h-4.202v-15.17h4.648q3.538 0 5.5 1.962 1.96 1.96 1.96 5.478z m-1.87 0.062q0-2.967-1.493-4.472-1.484-1.504-4.42-1.504h-2.563v12.12h2.148q3.154 0 4.74-1.54 1.59-1.55 1.59-4.59z m13.697 7.668h-8.456v-15.17h8.46v1.567h-6.69v4.887h6.29v1.55h-6.29v5.58h6.69v1.57z m11.933-4.035q0 2.002-1.453 3.122t-3.943 1.12q-2.698 0-4.15-0.694v-1.702q0.934 0.394 2.033 0.622 1.1 0.23 2.18 0.23 1.763 0 2.656-0.665 0.892-0.675 0.892-1.868 0-0.79-0.322-1.287-0.31-0.508-1.058-0.933-0.737-0.426-2.252-0.965-2.116-0.758-3.03-1.795-0.902-1.038-0.902-2.71 0-1.752 1.32-2.79 1.32-1.037 3.49-1.037 2.26 0 4.16 0.83l-0.55 1.535q-1.87-0.788-3.65-0.788-1.4 0-2.19 0.602-0.79 0.6-0.79 1.67 0 0.79 0.29 1.297 0.29 0.498 0.98 0.924 0.7 0.415 2.12 0.923 2.39 0.86 3.28 1.83 0.91 0.98 0.91 2.53z m17.894-0.572q0 1.41-0.78 2.51-0.78 1.09-2.252 1.703-1.47 0.61-3.45 0.61-1.652 0-2.772-0.21-1.12-0.22-2.33-0.74v-3.66q1.278 0.61 2.66 0.95 1.38 0.34 2.533 0.34 0.995 0 1.46-0.31 0.463-0.32 0.463-0.82 0-0.31-0.193-0.54-0.18-0.24-0.6-0.48-0.406-0.23-2.194-0.97-1.62-0.67-2.44-1.3-0.81-0.63-1.2-1.45-0.39-0.82-0.39-1.94 0-2.09 1.66-3.27 1.66-1.17 4.57-1.17 2.57 0 5.24 1.09l-1.37 3.17q-2.32-0.97-4.01-0.97-0.87 0-1.27 0.28t-0.4 0.7q0 0.45 0.5 0.8 0.51 0.36 2.73 1.29 2.14 0.88 2.96 1.9 0.83 1.01 0.83 2.54z m9.944-7.418q-1.595 0-2.49 1.203-0.892 1.193-0.892 3.3 0 4.378 3.63 4.378 1.098 0 2.128-0.28t2.07-0.67v3.47q-2.07 0.84-4.683 0.84-3.74 0-5.74-1.99-1.99-1.99-1.99-5.76 0-2.35 0.96-4.14 0.98-1.78 2.79-2.74 1.82-0.96 4.28-0.96 2.68 0 5.13 1.07l-1.37 3.23q-0.91-0.39-1.83-0.66-0.91-0.27-1.96-0.27z m7.66 12.025v-15.17h4.49v15.17h-4.49z m17.872 0h-9.82v-15.17h9.82v3.29h-5.35v2.386h4.955v3.29h-4.955v2.869h5.35v3.34z m18.644 0h-5.86l-6.04-10.687h-0.103q0.22 2.52 0.22 3.85v6.837h-3.96v-15.17h5.84l6.02 10.543h0.07q-0.15-2.294-0.15-3.684v-6.858h3.98v15.17z m10.94-12.025q-1.596 0-2.49 1.203-0.893 1.193-0.893 3.3 0 4.378 3.64 4.378 1.1 0 2.13-0.28 1.03-0.28 2.07-0.67v3.47q-2.07 0.84-4.68 0.84-3.74 0-5.74-1.99-1.99-1.99-1.99-5.76 0-2.35 0.96-4.14 0.97-1.78 2.78-2.74 1.82-0.96 4.28-0.96 2.68 0 5.13 1.07l-1.37 3.23q-0.91-0.39-1.83-0.66t-1.97-0.27z m17.476 12.025h-9.818v-15.17h9.82v3.29h-5.35v2.386h4.954v3.29h-4.955v2.869h5.35v3.34z m13.712-4.607q0 1.41-0.78 2.51-0.78 1.09-2.25 1.703-1.472 0.61-3.452 0.61-1.65 0-2.77-0.21-1.12-0.22-2.332-0.74v-3.66q1.28 0.61 2.66 0.95 1.38 0.34 2.533 0.34 1 0 1.46-0.31 0.47-0.32 0.47-0.82 0-0.31-0.19-0.54-0.18-0.24-0.6-0.48-0.4-0.23-2.19-0.97-1.61-0.67-2.43-1.3-0.8-0.63-1.2-1.45-0.38-0.82-0.38-1.94 0-2.09 1.67-3.27 1.67-1.17 4.57-1.17 2.57 0 5.24 1.09l-1.37 3.17q-2.32-0.97-4-0.97-0.87 0-1.27 0.28t-0.39 0.7q0 0.45 0.5 0.8 0.51 0.36 2.74 1.29 2.14 0.88 2.97 1.9 0.84 1.01 0.84 2.54z m17.306 4.815h-8.457v-15.17h8.46v1.567h-6.69v4.887h6.29v1.556h-6.29v5.583h6.7v1.577z m8.042 0h-1.765v-13.603h-4.804v-1.567h11.38v1.567h-4.8v13.603z m-166.808 23.987h-4.492v-11.816h-4.06v-3.354h12.6v3.353h-4.048v11.817z m16.318 0h-9.87v-15.17h9.87v3.29h-5.378v2.387h4.98v3.29h-4.98v2.863h5.38v3.34z m10.316-12.025q-1.604 0-2.502 1.204-0.898 1.19-0.898 3.3 0 4.37 3.65 4.37 1.103 0 2.138-0.28t2.08-0.68v3.46q-2.08 0.84-4.707 0.84-3.764 0-5.777-1.99-2.002-1.99-2.002-5.76 0-2.36 0.967-4.14 0.978-1.79 2.798-2.74 1.83-0.97 4.298-0.97 2.7 0 5.16 1.07l-1.37 3.22q-0.92-0.4-1.84-0.67t-1.98-0.27z m21.95 12.025h-4.516v-6.183h-5.22v6.184h-4.515v-15.171h4.515v5.625h5.22v-5.625h4.515v15.17z m19.41 0h-5.89l-6.072-10.686h-0.103q0.22 2.52 0.22 3.85v6.837h-3.98v-15.171h5.87l6.05 10.543h0.07q-0.16-2.293-0.16-3.683v-6.86h4.01v15.17z m19.152-7.604q0 3.828-2.058 5.82-2.058 1.993-6.027 1.993-3.912 0-6.005-2.01-2.08-2-2.08-5.83 0-3.79 2.07-5.78 2.08-2.01 6.037-2.01 3.97 0 6.016 1.98 2.05 1.98 2.05 5.82z m-11.44 0q0 4.4 3.355 4.4 1.705 0 2.524-1.07 0.83-1.07 0.83-3.33 0-2.273-0.84-3.352-0.83-1.09-2.492-1.09-3.377 0-3.377 4.442z m14.442 7.604v-15.17h4.493v11.86h6.402v3.31h-10.895z m28.66-7.604q0 3.828-2.06 5.82-2.058 1.993-6.027 1.993-3.912 0-6.004-2.01-2.09-2-2.09-5.83 0-3.79 2.07-5.78 2.08-2.01 6.04-2.01 3.97 0 6.01 1.98 2.04 1.98 2.04 5.82z m-11.442 0q0 4.4 3.355 4.4 1.706 0 2.525-1.07 0.83-1.07 0.83-3.33 0-2.273-0.84-3.352-0.832-1.09-2.492-1.09-3.378 0-3.378 4.442z m21.12-1.276h7.175v8.176q-2.923 0.913-6.425 0.913-3.844 0-5.948-2.04-2.093-2.04-2.093-5.8 0-3.68 2.298-5.72 2.297-2.05 6.436-2.05 1.57 0 2.96 0.27 1.4 0.27 2.44 0.68l-1.42 3.21q-1.79-0.81-3.94-0.81-1.96 0-3.05 1.17-1.07 1.16-1.07 3.33 0 2.13 0.97 3.25 0.98 1.11 2.81 1.11 1 0 1.84-0.18v-2.359h-2.97v-3.16z m10.564 8.88v-15.17h4.515v15.17h-4.515z m17.968 0h-9.87v-15.17h9.87v3.29h-5.38v2.387h4.982v3.29h-4.98v2.863h5.378v3.34z m13.784-4.606q0 1.41-0.785 2.51-0.79 1.09-2.27 1.703-1.48 0.602-3.47 0.602-1.66 0-2.79-0.21-1.13-0.22-2.35-0.75v-3.65q1.28 0.6 2.67 0.94 1.39 0.33 2.55 0.33 1 0 1.46-0.31 0.46-0.33 0.46-0.82 0-0.31-0.2-0.54-0.19-0.24-0.61-0.48-0.41-0.24-2.21-0.98-1.63-0.68-2.45-1.31-0.81-0.63-1.21-1.45-0.39-0.82-0.39-1.94 0-2.1 1.67-3.27t4.592-1.17q2.58 0 5.267 1.08l-1.374 3.16q-2.33-0.98-4.023-0.98-0.87 0-1.27 0.28t-0.39 0.7q0 0.44 0.5 0.8 0.51 0.35 2.75 1.28 2.15 0.88 2.98 1.9 0.84 1 0.84 2.54z"/>
  <!-- Département de mathématiques -->
  <path fill="#ffffff" d="M494.31 84.568q0 3.093-1.438 4.734-1.43 1.632-4.125 1.632h-2.957V78.44h3.27q2.49 0 3.87 1.616 1.38 1.615 1.38 4.512zm-1.314.05q0-2.443-1.05-3.682-1.046-1.24-3.112-1.24h-1.803v9.982h1.52q2.22 0 3.34-1.274 1.11-1.28 1.11-3.784zm6.884 6.487q-1.773 0-2.803-1.265-1.022-1.265-1.022-3.512 0-2.264.95-3.597.956-1.33 2.562-1.33 1.504 0 2.38 1.16.876 1.16.876 3.05v.9h-5.512q.04 1.65.71 2.51.68.86 1.91.86 1.3 0 2.56-.63v1.26q-.64.33-1.22.46-.57.15-1.38.15zm-.328-8.52q-.964 0-1.54.735-.57.735-.672 2.034h4.183q0-1.342-.51-2.05-.512-.72-1.46-.72zm-.898-2.47q.35-.53.752-1.28.41-.753.643-1.308h1.47v.18q-.32.555-.96 1.366-.64.812-1.1 1.256h-.81v-.22zm9.95 10.99q-.78 0-1.43-.334-.642-.34-1.08-1.04h-.09q.09.82.09 1.56v3.86h-1.212V81.57h.985l.168 1.28h.06q.466-.77 1.087-1.11.62-.34 1.423-.34 1.592 0 2.453 1.272.87 1.274.87 3.572 0 2.308-.884 3.59-.876 1.273-2.44 1.273zm-.174-8.503q-1.226 0-1.774.795t-.562 2.53v.315q0 1.974.562 2.83.562.845 1.803.845 1.03 0 1.62-.983.59-.983.59-2.71 0-1.75-.59-2.682-.59-.94-1.65-.94zm10.543 8.332l-.24-1.333h-.06q-.598.88-1.197 1.2-.59.31-1.482.31-1.19 0-1.87-.72-.67-.72-.67-2.04 0-2.83 3.876-2.97l1.358-.05v-.58q0-1.1-.41-1.62-.4-.53-1.29-.53-1 0-2.265.72l-.372-1.08q.6-.37 1.3-.59.71-.21 1.42-.21 1.43 0 2.12.74.7.75.7 2.39v6.39H519zm-2.738-1q1.13 0 1.774-.726.65-.727.65-2.034v-.846l-1.22.06q-1.45.06-2.09.53-.64.46-.64 1.444 0 .77.39 1.17.4.402 1.11.402zm9.79-8.536q.533 0 .957.102l-.168 1.316q-.497-.128-.876-.128-.97 0-1.665.923-.686.93-.686 2.3v5.03h-1.212v-9.37h1l.14 1.74h.057q.446-.91 1.073-1.41.628-.49 1.38-.49zm5.038 8.536q.32 0 .62-.05.3-.06.475-.12v1.084q-.197.11-.584.18-.38.077-.686.077-2.322 0-2.322-2.863v-5.57h-1.146v-.685l1.146-.59.51-2h.702v2.17h2.322v1.104h-2.322v5.52q0 .85.343 1.3.35.45.95.45zm6.082 1.17q-1.774 0-2.804-1.264-1.02-1.265-1.02-3.512 0-2.264.95-3.597.96-1.33 2.57-1.33 1.51 0 2.38 1.16.88 1.16.88 3.05v.9h-5.51q.04 1.65.71 2.51.68.86 1.91.86 1.3 0 2.56-.63v1.26q-.64.33-1.22.46-.57.15-1.38.15zm-.33-8.52q-.963 0-1.54.736-.57.735-.67 2.034h4.182q0-1.342-.51-2.05-.512-.72-1.46-.72zm15.53 8.35V84.84q0-1.118-.41-1.674-.407-.564-1.27-.564-1.13 0-1.67.76t-.54 2.342v5.23h-1.213V84.84q0-1.118-.41-1.674-.408-.564-1.277-.564-1.14 0-1.672.804-.525.794-.525 2.614v4.914h-1.212v-9.366h.985l.2 1.282h.06q.35-.683.97-1.068.63-.384 1.41-.384 1.88 0 2.46 1.59h.06q.36-.736 1.04-1.163.68-.427 1.55-.427 1.36 0 2.03.82.68.812.68 2.606v6.11h-1.21zm7.082.17q-1.774 0-2.803-1.264-1.023-1.265-1.023-3.512 0-2.264.95-3.597.96-1.33 2.57-1.33 1.51 0 2.38 1.16.88 1.16.88 3.05v.9h-5.51q.04 1.65.71 2.51.68.86 1.91.86 1.3 0 2.56-.63v1.26q-.64.33-1.22.46-.57.15-1.38.15zm-.328-8.52q-.97 0-1.55.736-.57.735-.67 2.034h4.18q0-1.342-.51-2.05-.52-.72-1.46-.72zm10.8 8.35v-6.06q0-1.144-.45-1.708-.45-.564-1.4-.564-1.26 0-1.84.795-.59.795-.59 2.623v4.914h-1.22v-9.366h.98l.19 1.282h.06q.37-.692 1.04-1.068.67-.384 1.49-.384 1.44 0 2.17.82.73.812.73 2.606v6.11h-1.21zm6.28-1q.32 0 .62-.05.3-.06.47-.12v1.084q-.2.11-.59.18-.38.077-.69.077-2.32 0-2.32-2.863v-5.57h-1.15v-.685l1.14-.59.51-2h.7v2.17h2.32v1.104h-2.33v5.52q0 .85.34 1.3.34.45.94.45zm12.03-.256h-.07q-.84 1.427-2.52 1.427-1.57 0-2.45-1.257-.87-1.256-.87-3.57 0-2.317.87-3.6.87-1.28 2.44-1.28 1.63 0 2.49 1.384h.09l-.05-.675-.03-.658v-3.82h1.21v13.3h-.99l-.16-1.26zm-2.43.24q1.24 0 1.79-.787.56-.79.56-2.55v-.3q0-1.99-.57-2.83-.57-.85-1.81-.85-1.07 0-1.64.98-.56.97-.56 2.74 0 1.8.56 2.71.56.92 1.65.92zm9.53 1.187q-1.78 0-2.81-1.265-1.02-1.265-1.02-3.512 0-2.264.95-3.597.95-1.33 2.56-1.33 1.5 0 2.38 1.16.87 1.16.87 3.05v.9h-5.51q.03 1.65.71 2.51.68.86 1.9.86 1.29 0 2.56-.63v1.26q-.65.33-1.22.46-.57.15-1.38.15zm-.33-8.52q-.97 0-1.54.735-.57.735-.68 2.034h4.18q0-1.342-.51-2.05-.51-.72-1.46-.72zm14.12 8.35l-3.62-11.076h-.06q.1 1.31.1 3.12v7.94h-1.15V78.44h1.87l3.38 10.306h.05l3.41-10.305h1.85v12.5h-1.24v-8.05q0-1.38.1-3h-.06l-3.65 11.06h-1zm13.5 0l-.24-1.334h-.06q-.6.88-1.2 1.2-.59.31-1.49.31-1.19 0-1.87-.72-.67-.72-.67-2.04 0-2.83 3.88-2.97l1.35-.05v-.58q0-1.1-.41-1.62-.4-.53-1.29-.53-1 0-2.27.72l-.38-1.08q.59-.37 1.29-.59.71-.21 1.42-.21 1.43 0 2.11.74.7.75.7 2.39v6.39h-.9zm-2.74-1q1.13 0 1.77-.727.65-.727.65-2.034v-.846l-1.21.06q-1.45.06-2.09.53-.64.46-.64 1.444 0 .77.39 1.17.4.402 1.12.402zm8.72 0q.32 0 .62-.05.3-.06.47-.12v1.083q-.2.11-.59.18-.38.077-.69.077-2.32 0-2.32-2.863v-5.57h-1.15v-.685l1.14-.59.51-2h.7v2.17h2.32v1.104h-2.32v5.52q0 .85.34 1.3.34.45.94.45zm8.17 1v-6.06q0-1.145-.45-1.71-.45-.563-1.4-.563-1.26 0-1.85.804-.58.803-.58 2.63v4.898h-1.21V77.638h1.21v4.024q0 .727-.06 1.205h.07q.35-.675 1.01-1.06.66-.392 1.51-.392 1.46 0 2.19.82.74.812.74 2.59v6.11h-1.21zm7.07.17q-1.78 0-2.81-1.265-1.02-1.265-1.02-3.512 0-2.264.95-3.597.95-1.33 2.56-1.33 1.5 0 2.38 1.16.87 1.16.87 3.05v.9h-5.51q.03 1.65.71 2.51.67.86 1.9.86 1.29 0 2.55-.63v1.26q-.64.33-1.22.46-.57.15-1.38.15zm-.33-8.52q-.97 0-1.54.735-.57.735-.67 2.034h4.18q0-1.342-.51-2.05-.52-.72-1.46-.72zm-.9-2.47q.35-.53.75-1.28.41-.753.64-1.308h1.47v.18q-.32.555-.96 1.366-.64.812-1.11 1.256h-.81v-.22zm16.42 10.82V84.84q0-1.118-.41-1.674-.41-.564-1.27-.564-1.13 0-1.67.76t-.54 2.342v5.23h-1.21V84.84q0-1.118-.41-1.674-.41-.564-1.28-.564-1.14 0-1.67.804-.53.794-.53 2.614v4.914h-1.22v-9.366h.99l.2 1.282h.05q.35-.683.97-1.068.63-.384 1.4-.384 1.87 0 2.45 1.59h.06q.36-.736 1.03-1.163.68-.427 1.55-.427 1.36 0 2.03.82.68.812.68 2.606v6.11H659zm8.62 0l-.24-1.334h-.06q-.6.88-1.2 1.2-.6.31-1.49.31-1.19 0-1.87-.72-.67-.72-.67-2.04 0-2.83 3.88-2.97l1.36-.05v-.58q0-1.1-.41-1.62-.4-.53-1.29-.53-1 0-2.27.72l-.37-1.08q.59-.37 1.29-.59.71-.21 1.41-.21 1.43 0 2.12.74.69.75.69 2.39v6.39h-.9zm-2.74-1q1.13 0 1.77-.727.65-.727.65-2.034v-.846l-1.21.06q-1.45.06-2.09.53-.64.46-.64 1.444 0 .77.39 1.17.4.402 1.11.402zm8.72 0q.32 0 .62-.05.3-.06.47-.12v1.083q-.2.11-.58.18-.38.077-.69.077-2.32 0-2.32-2.863v-5.57H670v-.685l1.144-.59.51-2h.7v2.17h2.323v1.104h-2.32v5.52q0 .85.342 1.3.34.45.94.45zm3.91 1h-1.22v-9.367h1.21v9.366zm-1.31-11.905q0-.483.2-.71.2-.23.51-.23.29 0 .5.23.21.235.21.71 0 .48-.21.72-.21.23-.51.23-.3 0-.51-.23-.2-.24-.2-.716zm6.92 10.89q1.21 0 1.76-.76t.59-2.565v-.316q0-1.97-.57-2.83t-1.81-.87q-1.065 0-1.634.97-.56.96-.56 2.73t.55 2.7q.56.92 1.66.92zm-.18 1.186q-1.55 0-2.42-1.274-.87-1.27-.87-3.552 0-2.3.87-3.59T683 81.4q1.646 0 2.53 1.453h.066l.174-1.28h.956v13.57h-1.21v-4.01q0-.854.08-1.452h-.098q-.84 1.43-2.525 1.43zm7.47-9.537v6.07q0 1.14.44 1.71.44.56 1.39.56 1.25 0 1.83-.81.58-.81.58-2.63v-4.92h1.21v9.36h-1l-.17-1.26h-.07q-.37.69-1.04 1.06-.654.36-1.5.36-1.46 0-2.19-.81-.724-.81-.724-2.6v-6.12h1.23zm11.41 9.53q-1.78 0-2.81-1.27-1.02-1.27-1.02-3.51 0-2.27.95-3.6t2.56-1.33q1.5 0 2.38 1.16.88 1.15.88 3.05v.9h-5.52q.04 1.65.71 2.5.68.85 1.91.85 1.29 0 2.555-.64v1.27q-.64.32-1.22.46-.57.14-1.38.14zm-.33-8.52q-.97 0-1.54.73-.57.73-.68 2.03h4.18q0-1.34-.51-2.05-.52-.72-1.46-.72zm10.5 5.79q0 1.3-.83 2.01-.84.71-2.34.71-1.59 0-2.49-.59v-1.3q.57.34 1.23.53t1.27.19q.95 0 1.46-.35.51-.36.51-1.09 0-.55-.41-.93-.4-.4-1.58-.93-1.116-.49-1.59-.85-.47-.37-.7-.83-.23-.46-.23-1.1 0-1.15.8-1.81.792-.667 2.18-.667 1.29 0 2.523.614l-.43 1.152q-1.203-.58-2.18-.58-.86 0-1.3.312-.436.32-.436.88 0 .38.16.64.17.27.534.51t1.4.69q1.426.61 1.92 1.23.506.61.506 1.542z"/>
</svg>
