<?xml version="1.0" encoding="UTF-8" standalone="no"?>
<!DOCTYPE svg PUBLIC "-//W3C//DTD SVG 1.1//EN"
  "http://www.w3.org/Graphics/SVG/1.1/DTD/svg11.dtd">
<svg version="1.1" xmlns="http://www.w3.org/2000/svg" preserveAspectRatio="xMidYMid meet" viewBox="-38.7 -38.7 317 171.4">
  <metadata>
   Vectorialisé à partir du PNG avec potrace 1.11, de Peter Selinger 2001-2013.
   Puis modifié à la main par K. Tzanev.
  </metadata>
  <!-- zone de protection = 1.36cm = 38.7pt (1cm = 28.45275pt) autour du logo -->
  <!-- <rect x="-38.7" y="-38.7" width="317" height="171.4" fill="green"/> -->
  <!-- <rect x="0" y="0" width="239.6" height="94" fill="yellow"/> -->

  <!-- Logo 8.42 cm x 3.22 cm = 239.6pt x 91.6pt -->
  <g fill="#AE2573">
    <path d="M0.0,27.77 c0.0,26.84 0.03,29.04 0.35,31.68 1.52,12.39 8.5,22.41 19.45,27.9 10.16,5.1 23.69,5.65 34.55,1.42 0.77,-0.3 3.09,-1.26 5.15,-2.12 2.06,-0.87 4.0,-1.68 4.3,-1.8 l0.55,-0.22 3.7,1.69 c2.04,0.93 4.94,2.25 6.45,2.94 1.51,0.7 2.81,1.28 2.88,1.31 0.09,0.04 0.12,-8.97 0.12,-44.86 l0.0,-44.91 -38.75,-0.0 -38.75,-0.0 0.0,26.97z m38.7,17.14 c0.0,21.49 -0.03,26.9 -0.12,26.86 -0.07,-0.03 -2.76,-1.25 -5.98,-2.72 -3.22,-1.47 -7.0,-3.2 -8.4,-3.84 l-2.55,-1.16 -0.03,-23.03 -0.02,-23.02 8.55,-0.0 8.55,-0.0 0.0,26.91z m22.13,19.3 c-0.05,0.04 -2.91,1.36 -6.38,2.94 -3.46,1.58 -7.13,3.25 -8.15,3.72 -1.02,0.47 -1.91,0.87 -1.97,0.9 -0.1,0.04 -0.13,-0.91 -0.13,-4.55 l0.0,-4.59 1.13,-0.51 c0.61,-0.28 2.76,-1.26 4.77,-2.17 2.01,-0.92 4.93,-2.25 6.5,-2.97 1.57,-0.71 3.17,-1.44 3.55,-1.62 l0.7,-0.33 0.03,4.56 c0.01,2.5 -0.01,4.58 -0.05,4.62z"/>
  </g>

  <g fill="#000000">
    <!-- U -->
    <path d="M89.81,9.57 c0.0,4.83 0.05,9.07 0.1,9.42 0.05,0.34 0.23,1.04 0.4,1.55 0.94,2.82 3.28,4.84 6.34,5.47 1.02,0.21 2.95,0.25 3.91,0.08 0.92,-0.16 2.11,-0.57 2.95,-1.02 l0.77,-0.41 1.68,0.77 c0.93,0.43 1.72,0.77 1.77,0.77 0.04,-0.0 0.07,-5.72 0.07,-12.7 l0.0,-12.7 -1.9,-0.0 -1.9,-0.0 0.0,8.82 c0.0,7.62 -0.02,8.91 -0.15,9.43 -0.62,2.42 -2.5,3.85 -5.05,3.85 -2.55,-0.0 -4.35,-1.34 -5.07,-3.77 -0.16,-0.53 -0.18,-1.4 -0.21,-9.46 l-0.03,-8.87 -1.85,-0.0 -1.84,-0.0 0.01,8.77z"/>
    <!-- n -->
    <path d="M118.91,7.8 c-0.82,0.13 -2.14,0.58 -2.75,0.95 l-0.54,0.32 -1.27,-0.58 c-0.7,-0.32 -1.36,-0.61 -1.46,-0.64 -0.19,-0.06 -0.19,0.16 -0.19,9.09 l0.0,9.16 1.79,-0.0 1.8,-0.0 0.03,-6.08 c0.03,-6.05 0.03,-6.07 0.26,-6.63 0.62,-1.54 1.61,-2.19 3.37,-2.2 1.45,-0.01 2.47,0.57 3.05,1.74 0.17,0.34 0.35,0.89 0.4,1.22 0.06,0.34 0.1,3.04 0.1,6.27 l0.0,5.68 1.8,-0.0 1.81,-0.0 -0.04,-6.68 c-0.03,-6.04 -0.05,-6.73 -0.21,-7.27 -0.46,-1.54 -1.61,-2.93 -2.96,-3.58 -1.35,-0.65 -3.59,-0.99 -4.99,-0.77z"/>
    <!-- i (point) -->
    <path d="M131.6,2.6 l0.0,1.8 1.85,-0.0 1.85,-0.0 0.0,-1.8 0.0,-1.8 -1.85,-0.0 -1.85,-0.0 0.0,1.8z"/>
    <!-- i (bas) -->
    <path d="M131.6,17.05 l0.0,9.05 1.85,-0.0 1.85,-0.0 0.0,-9.05 0.0,-9.05 -1.85,-0.0 -1.85,-0.0 0.0,9.05z"/>
    <!-- v -->
    <path d="M139.25,8.37 c0.41,3.03 0.65,4.35 1.21,6.58 1.04,4.12 2.59,7.81 4.46,10.58 l0.39,0.57 1.87,-0.02 1.87,-0.03 0.63,-0.95 c1.27,-1.9 2.82,-5.39 3.66,-8.25 0.69,-2.35 1.39,-5.63 1.61,-7.55 0.03,-0.3 0.08,-0.72 0.11,-0.93 l0.06,-0.37 -1.81,-0.0 -1.81,-0.0 -0.01,0.42 c0.0,0.24 -0.02,0.52 -0.04,0.63 -0.02,0.11 -0.08,0.6 -0.15,1.1 -0.45,3.55 -2.12,8.92 -3.82,12.28 l-0.34,0.69 -0.48,-1.04 c-1.98,-4.24 -3.44,-9.36 -3.81,-13.36 l-0.07,-0.72 -1.79,-0.0 -1.79,-0.0 0.05,0.37z"/>
    <!-- e -->
    <path d="M163.9,7.82 c-2.18,0.25 -4.0,1.42 -5.1,3.27 -1.6,2.7 -1.83,7.69 -0.5,10.91 1.22,2.97 4.22,4.61 7.95,4.35 2.27,-0.16 3.72,-0.77 5.48,-2.28 l0.58,-0.5 -0.53,-0.54 c-0.29,-0.3 -0.79,-0.77 -1.1,-1.05 l-0.58,-0.5 -0.47,0.42 c-0.91,0.8 -1.87,1.16 -3.38,1.26 -2.23,0.15 -3.87,-0.67 -4.66,-2.32 -0.16,-0.34 -0.29,-0.66 -0.29,-0.71 0.0,-0.05 0.46,-0.15 1.03,-0.22 2.41,-0.29 5.04,-0.99 6.48,-1.72 2.45,-1.23 3.49,-2.74 3.49,-5.04 0.0,-2.42 -1.54,-4.36 -3.99,-5.04 -1.3,-0.36 -2.92,-0.47 -4.41,-0.29z m3.45,3.59 c0.97,0.36 1.55,1.12 1.55,1.99 -0.01,0.71 -0.76,1.64 -1.77,2.17 -1.09,0.58 -3.44,1.2 -5.67,1.49 l-0.49,0.06 0.06,-1.38 c0.07,-1.56 0.27,-2.38 0.76,-3.16 0.33,-0.51 1.07,-1.06 1.76,-1.28 0.96,-0.32 2.79,-0.27 3.8,0.11z"/>
    <!-- r -->
    <path d="M182.0,7.8 c-0.87,0.14 -2.1,0.56 -2.72,0.93 l-0.56,0.35 -1.41,-0.64 c-0.77,-0.35 -1.45,-0.64 -1.51,-0.64 -0.07,-0.0 -0.1,2.96 -0.1,9.15 l0.0,9.15 1.85,-0.0 1.84,-0.0 0.03,-6.08 c0.03,-5.99 0.03,-6.08 0.25,-6.66 0.55,-1.45 1.62,-2.15 3.33,-2.17 0.52,-0.01 0.93,0.05 1.33,0.19 l0.58,0.21 0.42,-0.67 c0.85,-1.33 1.5,-2.42 1.46,-2.46 -0.02,-0.01 -0.22,-0.1 -0.45,-0.19 -1.04,-0.4 -3.25,-0.64 -4.34,-0.47z"/>
    <!-- s -->
    <path d="M193.51,7.82 c-2.76,0.31 -4.93,2.02 -5.4,4.26 -0.24,1.17 -0.07,2.82 0.4,3.74 0.32,0.63 1.2,1.45 1.91,1.78 0.98,0.46 1.97,0.66 4.13,0.84 2.42,0.21 2.97,0.34 3.46,0.86 0.43,0.45 0.57,0.95 0.48,1.73 -0.15,1.36 -1.61,2.17 -3.94,2.17 -1.79,-0.0 -3.53,-0.56 -4.65,-1.5 l-0.47,-0.39 -1.18,1.19 c-1.33,1.35 -1.31,1.21 -0.35,1.95 1.57,1.21 3.37,1.78 5.93,1.89 2.94,0.12 5.2,-0.52 6.66,-1.89 1.13,-1.07 1.61,-2.23 1.61,-3.9 0.0,-2.12 -0.84,-3.58 -2.53,-4.4 -1.1,-0.52 -1.8,-0.65 -4.92,-0.9 -1.48,-0.12 -2.02,-0.27 -2.53,-0.7 -0.46,-0.38 -0.62,-0.75 -0.62,-1.4 0.0,-0.99 0.6,-1.76 1.65,-2.12 0.66,-0.23 2.71,-0.23 3.68,-0.0 0.68,0.17 1.48,0.52 2.0,0.9 l0.29,0.2 1.14,-1.14 c0.63,-0.63 1.14,-1.17 1.14,-1.2 0.0,-0.04 -0.3,-0.28 -0.67,-0.53 -1.2,-0.81 -2.63,-1.27 -4.58,-1.46 -1.12,-0.11 -1.49,-0.11 -2.64,0.02z"/>
    <!-- i (point) -->
    <path d="M205.6,2.6 l0.0,1.8 1.85,-0.0 1.85,-0.0 0.0,-1.8 0.0,-1.8 -1.85,-0.0 -1.85,-0.0 0.0,1.8z"/>
    <!-- i (bas) -->
    <path d="M205.6,17.05 l0.0,9.05 1.85,-0.0 1.85,-0.0 0.0,-9.05 0.0,-9.05 -1.85,-0.0 -1.85,-0.0 0.0,9.05z"/>
    <!-- t -->
    <path d="M215.4,4.4 l0.0,3.6 -1.1,-0.0 -1.1,-0.0 0.0,1.4 0.0,1.4 1.1,-0.0 1.1,-0.0 0.0,5.48 c0.0,5.14 0.01,5.54 0.2,6.26 0.25,0.98 0.6,1.64 1.21,2.25 0.94,0.93 2.13,1.31 4.21,1.31 1.52,-0.0 1.4,0.17 1.36,-1.85 l-0.03,-1.4 -1.03,-0.02 c-1.24,-0.02 -1.72,-0.23 -2.06,-0.88 -0.2,-0.39 -0.21,-0.55 -0.24,-5.78 l-0.03,-5.37 1.7,-0.0 1.71,-0.0 0.0,-1.4 0.0,-1.4 -1.7,-0.0 -1.7,-0.0 0.0,-3.6 0.0,-3.6 -1.8,-0.0 -1.8,-0.0 0.0,3.6z"/>
    <!-- é (accent) -->
    <path d="M232.38,1.77 l-4.08,1.86 0.0,1.59 c0.0,0.88 0.04,1.58 0.09,1.56 0.04,-0.02 1.91,-0.86 4.14,-1.88 l4.07,-1.85 0.0,-1.58 c0.0,-0.86 -0.03,-1.57 -0.07,-1.57 -0.05,-0.0 -1.91,0.84 -4.15,1.87z"/>
    <!-- é (e) -->
    <path d="M231.3,7.8 c-1.75,0.24 -2.91,0.79 -4.05,1.95 -0.95,0.95 -1.43,1.74 -1.84,3.04 -0.4,1.25 -0.58,2.44 -0.6,4.12 -0.07,4.8 1.67,7.91 5.03,8.98 2.7,0.87 6.0,0.51 8.02,-0.86 0.62,-0.43 1.74,-1.4 1.74,-1.52 0.0,-0.03 -0.47,-0.5 -1.05,-1.04 l-1.04,-0.98 -0.58,0.47 c-0.73,0.6 -1.41,0.91 -2.38,1.09 -2.57,0.5 -4.67,-0.31 -5.58,-2.14 -0.41,-0.83 -0.39,-0.87 0.41,-0.96 3.21,-0.34 6.1,-1.22 7.88,-2.4 1.32,-0.88 1.9,-1.65 2.24,-3.0 0.24,-0.94 0.25,-1.7 0.05,-2.5 -0.59,-2.29 -2.08,-3.61 -4.63,-4.11 -0.88,-0.17 -2.86,-0.25 -3.62,-0.14z m3.27,3.56 c0.58,0.18 1.26,0.71 1.49,1.16 0.22,0.42 0.2,1.17 -0.04,1.64 -0.37,0.71 -1.21,1.35 -2.34,1.78 -1.13,0.42 -3.12,0.88 -4.8,1.11 l-0.48,0.06 0.0,-1.18 c0.01,-2.52 0.62,-3.79 2.18,-4.51 0.93,-0.42 2.74,-0.45 3.99,-0.06z"/>

    <!-- d -->
    <path d="M101.2,37.96 c0.0,3.25 -0.02,3.85 -0.14,3.81 -2.75,-1.06 -6.16,-0.83 -8.21,0.54 -1.15,0.77 -1.9,1.78 -2.46,3.29 -0.54,1.48 -0.71,2.72 -0.71,4.9 0.02,5.93 3.03,9.19 8.27,8.97 1.36,-0.05 2.14,-0.27 3.24,-0.92 l0.63,-0.37 1.17,0.52 c0.64,0.29 1.31,0.59 1.49,0.66 l0.32,0.14 0.0,-12.7 0.0,-12.7 -1.8,-0.0 -1.8,-0.0 0.0,3.86z m-1.85,6.74 c0.52,0.17 0.8,0.34 1.16,0.7 0.69,0.69 0.71,0.87 0.67,5.2 l-0.03,3.65 -0.3,0.54 c-0.65,1.18 -2.09,1.75 -3.81,1.52 -1.88,-0.26 -3.14,-1.44 -3.59,-3.34 -0.18,-0.77 -0.21,-4.78 -0.04,-5.59 0.32,-1.47 1.22,-2.43 2.69,-2.84 0.72,-0.2 2.43,-0.11 3.25,0.16z"/>
    <!-- e -->
    <path d="M113.76,41.3 c-3.47,0.88 -5.33,3.74 -5.52,8.45 -0.22,5.32 1.7,8.62 5.61,9.66 1.18,0.32 3.85,0.32 5.0,-0.0 0.92,-0.25 1.84,-0.66 2.52,-1.12 0.73,-0.5 1.64,-1.31 1.61,-1.44 -0.02,-0.06 -0.49,-0.55 -1.06,-1.09 l-1.02,-0.99 -0.45,0.42 c-0.6,0.55 -1.69,1.06 -2.57,1.21 -0.41,0.07 -1.15,0.1 -1.72,0.08 -1.59,-0.08 -2.56,-0.55 -3.38,-1.63 -0.48,-0.63 -0.77,-1.33 -0.59,-1.44 0.07,-0.05 0.56,-0.13 1.09,-0.2 3.99,-0.49 7.07,-1.69 8.59,-3.34 0.59,-0.65 0.9,-1.26 1.09,-2.16 0.62,-2.93 -1.03,-5.53 -4.03,-6.32 -1.19,-0.32 -4.07,-0.37 -5.17,-0.09z m4.1,3.34 c0.62,0.19 1.28,0.66 1.54,1.09 0.24,0.39 0.27,1.22 0.06,1.72 -0.2,0.47 -0.9,1.12 -1.59,1.47 -1.16,0.58 -3.62,1.23 -5.46,1.43 l-0.64,0.07 0.05,-1.43 c0.07,-1.68 0.28,-2.47 0.86,-3.24 0.4,-0.52 1.14,-0.99 1.9,-1.21 0.61,-0.18 2.58,-0.12 3.28,0.1z"/>

    <!-- L -->
    <path d="M134.32,44.82 c0.03,10.11 0.04,10.76 0.22,11.28 0.59,1.75 1.57,2.71 3.23,3.14 0.51,0.13 1.32,0.16 4.92,0.16 l4.31,-0.0 0.0,-1.55 0.0,-1.55 -3.77,-0.0 c-2.18,-0.0 -3.93,-0.04 -4.14,-0.1 -0.42,-0.12 -0.82,-0.52 -0.98,-0.99 -0.08,-0.24 -0.11,-3.24 -0.11,-10.72 l0.0,-10.39 -1.85,-0.0 -1.85,-0.0 0.02,10.72z"/>
    <!-- point du i -->
    <path d="M149.8,35.95 l0.0,1.85 1.8,-0.0 1.8,-0.0 0.0,-1.85 0.0,-1.85 -1.8,-0.0 -1.8,-0.0 0.0,1.85z"/>
    <!-- i (bas) -->
    <path d="M149.8,50.35 l0.0,9.05 1.8,-0.0 1.8,-0.0 0.0,-9.05 0.0,-9.05 -1.8,-0.0 -1.8,-0.0 0.0,9.05z"/>
    <!-- l -->
    <path d="M158.62,44.72 c0.03,9.8 0.05,10.68 0.21,11.22 0.27,0.91 0.75,1.72 1.33,2.25 1.02,0.93 1.94,1.21 4.01,1.21 l1.43,-0.0 0.0,-1.59 0.0,-1.58 -1.04,-0.05 c-1.24,-0.06 -1.69,-0.24 -2.0,-0.84 -0.21,-0.39 -0.21,-0.5 -0.24,-10.82 l-0.02,-10.42 -1.85,-0.0 -1.86,-0.0 0.03,10.62z"/>
    <!-- l -->
    <path d="M168.84,34.23 c-0.03,0.08 -0.03,4.86 -0.01,10.63 0.03,9.72 0.04,10.53 0.21,11.09 0.27,0.92 0.74,1.71 1.32,2.24 1.01,0.92 1.96,1.21 4.01,1.21 l1.43,-0.0 0.0,-1.59 0.0,-1.58 -1.02,-0.05 c-1.06,-0.05 -1.46,-0.17 -1.81,-0.56 -0.47,-0.51 -0.46,-0.36 -0.47,-11.25 l0.0,-10.27 -1.8,-0.0 c-1.41,-0.0 -1.82,0.03 -1.86,0.13z"/>
    <!-- e -->
    <path d="M183.55,41.26 c-0.97,0.21 -2.38,0.92 -3.07,1.54 -1.15,1.03 -1.96,2.59 -2.39,4.61 -0.3,1.4 -0.33,4.39 -0.06,5.69 0.74,3.56 2.43,5.53 5.42,6.31 1.12,0.3 3.64,0.32 4.8,0.05 1.49,-0.34 2.45,-0.85 3.74,-1.96 l0.73,-0.63 -1.08,-1.02 -1.09,-1.02 -0.7,0.54 c-1.09,0.83 -2.08,1.13 -3.75,1.13 -2.02,-0.0 -3.38,-0.78 -4.12,-2.36 -0.17,-0.36 -0.28,-0.68 -0.24,-0.71 0.03,-0.03 0.64,-0.14 1.35,-0.24 3.98,-0.56 6.75,-1.63 8.31,-3.21 1.52,-1.54 1.73,-4.35 0.48,-6.3 -0.67,-1.06 -1.92,-1.91 -3.35,-2.29 -1.06,-0.29 -3.93,-0.36 -4.98,-0.13z m4.1,3.44 c1.09,0.41 1.75,1.34 1.59,2.21 -0.29,1.55 -2.14,2.55 -5.99,3.25 -0.44,0.08 -1.04,0.17 -1.32,0.2 l-0.53,0.06 0.0,-0.93 c0.01,-2.98 0.8,-4.37 2.8,-4.95 0.72,-0.22 2.7,-0.12 3.45,0.16z"/>
  </g>

  <g fill="#000000">
    <!-- 1 -->
    <path d="M95.05,69.62 c-1.43,0.44 -2.63,0.83 -2.67,0.86 -0.03,0.04 0.06,0.74 0.22,1.57 0.15,0.82 0.31,1.67 0.34,1.87 0.04,0.22 0.13,0.38 0.21,0.38 0.07,-0.0 0.8,-0.18 1.61,-0.4 0.82,-0.22 1.5,-0.4 1.51,-0.4 0.02,-0.0 0.03,3.85 0.03,8.55 l0.0,8.55 2.25,-0.0 2.25,-0.0 -0.02,-10.88 -0.03,-10.87 -1.55,-0.02 -1.55,-0.01 -2.6,0.8z"/>

    <!-- s -->
    <path d="M112.7,68.85 c-1.61,0.52 -2.18,2.55 -1.02,3.68 0.33,0.32 0.75,0.55 2.4,1.28 0.85,0.37 1.1,0.85 0.78,1.47 -0.44,0.84 -1.93,0.75 -3.0,-0.18 l-0.34,-0.3 -0.41,0.49 c-0.23,0.27 -0.41,0.51 -0.41,0.55 0.0,0.03 0.22,0.23 0.5,0.45 1.24,0.98 3.03,1.14 4.14,0.38 1.22,-0.82 1.37,-2.48 0.32,-3.45 -0.44,-0.4 -0.97,-0.72 -1.46,-0.87 -0.14,-0.04 -0.53,-0.21 -0.88,-0.38 -0.85,-0.42 -1.09,-0.85 -0.78,-1.46 0.37,-0.71 1.64,-0.69 2.61,0.05 0.2,0.15 0.39,0.23 0.44,0.18 0.04,-0.05 0.22,-0.29 0.41,-0.52 l0.33,-0.44 -0.29,-0.24 c-0.87,-0.71 -2.34,-1.02 -3.34,-0.69z"/>
    <!-- c -->
    <path d="M120.9,68.9 c-2.14,0.79 -3.12,3.77 -2.01,6.16 0.39,0.84 0.91,1.38 1.68,1.76 0.57,0.28 0.74,0.32 1.47,0.31 0.97,-0.0 1.67,-0.26 2.35,-0.88 0.45,-0.41 0.44,-0.41 -0.07,-1.0 l-0.34,-0.37 -0.31,0.3 c-0.48,0.45 -0.95,0.65 -1.58,0.66 -0.85,0.01 -1.43,-0.38 -1.89,-1.28 -0.32,-0.63 -0.35,-0.76 -0.35,-1.55 0.0,-1.01 0.2,-1.68 0.67,-2.25 0.78,-0.94 2.01,-1.01 3.08,-0.16 l0.38,0.3 0.41,-0.51 0.41,-0.52 -0.32,-0.28 c-0.96,-0.83 -2.44,-1.11 -3.58,-0.69z"/>
    <!-- i -->
    <path d="M127.02,72.92 l0.03,4.13 0.65,-0.0 0.65,-0.0 0.03,-4.13 0.02,-4.12 -0.7,-0.0 -0.7,-0.0 0.02,4.12z"/>
    <!-- e -->
    <path d="M131.22,72.92 l0.03,4.13 2.63,0.03 2.62,0.02 0.0,-0.65 0.0,-0.65 -1.94,-0.0 c-1.18,-0.0 -1.96,-0.04 -1.98,-0.1 -0.01,-0.05 -0.02,-0.57 0.0,-1.15 l0.03,-1.05 1.74,-0.0 1.73,-0.0 0.0,-0.6 -0.01,-0.6 -1.73,-0.0 -1.74,-0.0 0.0,-1.1 0.0,-1.1 1.93,-0.02 1.92,-0.03 0.03,-0.63 0.03,-0.62 -2.66,-0.0 -2.65,-0.0 0.02,4.12z"/>
    <!-- n -->
    <path d="M138.92,72.92 l0.03,4.13 0.62,0.03 0.63,0.03 0.02,-2.82 0.03,-2.82 1.88,2.82 1.88,2.82 0.42,-0.02 c0.23,-0.01 0.48,-0.04 0.55,-0.07 0.09,-0.03 0.12,-0.95 0.12,-4.13 l0.0,-4.09 -0.7,-0.0 -0.7,-0.0 0.0,2.72 0.0,2.73 -1.82,-2.73 -1.81,-2.72 -0.59,-0.0 -0.58,-0.0 0.02,4.12z"/>
    <!-- c -->
    <path d="M150.2,68.83 c-1.71,0.48 -2.84,2.4 -2.66,4.52 0.14,1.7 0.91,2.91 2.26,3.54 0.45,0.21 0.7,0.25 1.37,0.25 0.71,-0.0 0.9,-0.05 1.45,-0.32 0.35,-0.17 0.78,-0.46 0.96,-0.65 l0.33,-0.34 -0.42,-0.46 -0.41,-0.47 -0.34,0.3 c-0.53,0.46 -0.94,0.63 -1.54,0.64 -1.41,0.02 -2.42,-1.43 -2.27,-3.26 0.19,-2.31 2.09,-3.31 3.77,-1.98 l0.38,0.3 0.36,-0.47 c0.2,-0.25 0.36,-0.5 0.36,-0.54 0.0,-0.14 -0.75,-0.72 -1.19,-0.92 -0.57,-0.25 -1.78,-0.32 -2.41,-0.14z"/>
    <!-- e -->
    <path d="M156.02,72.92 l0.03,4.13 2.63,0.03 2.62,0.02 0.0,-0.65 0.0,-0.65 -1.95,-0.0 -1.95,-0.0 0.0,-1.15 0.0,-1.15 1.75,-0.0 1.75,-0.0 0.0,-0.6 0.0,-0.6 -1.75,-0.0 -1.75,-0.0 0.0,-1.1 0.0,-1.1 1.95,-0.0 1.95,-0.0 0.0,-0.65 0.0,-0.65 -2.65,-0.0 -2.65,-0.0 0.02,4.12z"/>
    <!-- s -->
    <path d="M165.28,68.79 c-0.57,0.19 -1.1,0.57 -1.38,1.0 -0.35,0.52 -0.45,0.96 -0.36,1.58 0.13,0.95 0.74,1.5 2.36,2.15 1.18,0.48 1.5,0.76 1.5,1.34 0.0,0.35 -0.05,0.47 -0.3,0.67 -0.7,0.59 -1.74,0.44 -2.76,-0.39 l-0.42,-0.33 -0.41,0.52 -0.41,0.52 0.37,0.33 c1.44,1.24 3.75,1.29 4.77,0.11 0.83,-0.98 0.72,-2.42 -0.25,-3.21 -0.19,-0.15 -0.86,-0.5 -1.49,-0.78 -1.34,-0.59 -1.62,-0.82 -1.62,-1.34 0.0,-0.41 0.13,-0.61 0.53,-0.82 0.58,-0.29 1.68,-0.06 2.26,0.48 0.26,0.24 0.35,0.19 0.78,-0.42 0.27,-0.39 0.27,-0.41 0.1,-0.6 -0.1,-0.11 -0.47,-0.35 -0.82,-0.52 -0.52,-0.25 -0.79,-0.32 -1.41,-0.34 -0.42,-0.02 -0.89,-0.0 -1.04,0.05z"/>

    <!-- e -->
    <path d="M111.3,86.5 l0.0,4.1 2.65,-0.0 2.66,-0.0 -0.03,-0.63 -0.03,-0.62 -1.85,-0.02 c-1.02,-0.01 -1.91,-0.03 -1.97,-0.03 -0.1,-0.0 -0.13,-0.29 -0.13,-1.1 l0.0,-1.1 1.75,-0.0 1.75,-0.0 0.0,-0.65 0.0,-0.65 -1.75,-0.0 -1.75,-0.0 0.0,-1.05 0.0,-1.05 1.95,-0.0 1.95,-0.0 0.0,-0.65 0.0,-0.65 -2.6,-0.0 -2.6,-0.0 0.0,4.1z"/>
    <!-- t -->
    <path d="M118.42,83.02 l0.03,0.63 1.08,0.03 1.07,0.03 0.0,3.44 0.0,3.45 0.7,-0.0 0.71,-0.0 -0.03,-3.45 -0.03,-3.45 1.08,-0.0 1.07,-0.0 0.0,-0.65 0.0,-0.65 -2.85,-0.0 -2.86,-0.0 0.03,0.62z"/>

    <!-- t -->
    <path d="M130.2,83.05 l0.0,0.65 1.05,-0.0 1.05,-0.0 0.0,3.45 0.0,3.45 0.7,-0.0 0.7,-0.0 0.0,-3.45 0.0,-3.44 1.08,-0.03 1.07,-0.03 0.01,-0.63 0.02,-0.62 -2.84,-0.0 -2.84,-0.0 0.0,0.65z"/>
    <!-- e -->
    <path d="M138.1,86.5 l0.0,4.1 2.65,-0.0 2.65,-0.0 0.0,-0.66 c0.0,-0.56 -0.02,-0.65 -0.17,-0.63 -0.1,0.01 -0.98,0.01 -1.95,-0.0 l-1.78,-0.01 0.0,-1.1 0.0,-1.1 1.75,-0.0 1.76,-0.0 -0.03,-0.63 -0.03,-0.62 -1.73,-0.0 -1.72,-0.0 0.0,-1.07 0.0,-1.08 1.93,-0.02 1.92,-0.03 0.03,-0.63 0.03,-0.62 -2.66,-0.0 -2.65,-0.0 0.0,4.1z"/>
    <!-- c -->
    <path d="M147.92,82.49 c-1.51,0.56 -2.42,2.07 -2.42,4.0 0.0,1.49 0.4,2.51 1.3,3.35 0.34,0.3 0.76,0.58 1.06,0.69 0.57,0.2 1.61,0.24 2.21,0.08 0.45,-0.12 1.62,-0.86 1.7,-1.07 0.03,-0.07 -0.12,-0.34 -0.32,-0.59 l-0.38,-0.45 -0.31,0.25 c-0.59,0.48 -1.06,0.67 -1.62,0.66 -1.25,-0.01 -2.08,-0.94 -2.23,-2.47 -0.17,-1.84 0.66,-3.21 2.03,-3.32 0.67,-0.05 1.12,0.09 1.64,0.53 l0.4,0.35 0.43,-0.51 0.43,-0.52 -0.38,-0.33 c-0.64,-0.56 -1.21,-0.77 -2.16,-0.81 -0.67,-0.03 -0.97,0.01 -1.38,0.16z"/>
    <!-- h -->
    <path d="M154.0,86.5 l0.0,4.1 0.65,-0.0 0.65,-0.0 0.0,-1.75 0.0,-1.75 1.6,-0.0 1.6,-0.0 0.0,1.75 0.0,1.75 0.7,-0.0 0.7,-0.0 0.0,-4.1 0.0,-4.1 -0.69,-0.0 -0.69,-0.0 -0.02,1.67 c0.0,0.92 -0.02,1.68 -0.03,1.69 -0.05,0.05 -0.42,0.06 -1.74,0.05 l-1.43,-0.01 0.0,-1.7 0.0,-1.7 -0.65,-0.0 -0.65,-0.0 0.0,4.1z"/>
    <!-- n -->
    <path d="M162.7,86.5 l0.0,4.1 0.65,-0.0 0.65,-0.0 0.0,-2.77 0.0,-2.78 1.85,2.78 1.85,2.77 0.55,-0.0 0.55,-0.0 0.0,-4.1 0.0,-4.1 -0.65,-0.0 -0.65,-0.0 -0.02,2.71 -0.03,2.71 -1.79,-2.71 -1.79,-2.71 -0.58,-0.0 -0.59,-0.0 0.0,4.1z"/>
    <!-- o -->
    <path d="M173.6,82.52 c-0.62,0.24 -1.46,1.01 -1.78,1.64 -0.71,1.39 -0.68,3.41 0.05,4.77 0.38,0.68 1.21,1.41 1.85,1.63 1.48,0.49 3.13,-0.05 3.96,-1.31 1.03,-1.55 1.01,-3.99 -0.03,-5.5 -0.89,-1.29 -2.56,-1.8 -4.05,-1.23z m2.32,1.37 c0.93,0.59 1.4,2.21 1.04,3.6 -0.2,0.8 -0.48,1.25 -0.98,1.61 -1.02,0.74 -2.3,0.34 -2.96,-0.94 -0.38,-0.74 -0.43,-2.16 -0.12,-2.99 0.4,-1.07 1.03,-1.56 2.01,-1.57 0.44,-0.0 0.64,0.06 1.01,0.29z"/>
    <!-- l -->
    <path d="M180.9,86.5 l0.0,4.1 2.5,-0.0 2.51,-0.0 -0.03,-0.63 -0.03,-0.62 -1.77,-0.03 -1.78,-0.02 0.0,-3.45 0.0,-3.45 -0.7,-0.0 -0.7,-0.0 0.0,4.1z"/>
    <!-- o -->
    <path d="M189.7,82.52 c-0.65,0.25 -1.46,1.02 -1.78,1.68 -0.67,1.41 -0.68,3.31 -0.01,4.62 1.3,2.55 4.84,2.55 6.13,-0.0 0.91,-1.8 0.61,-4.27 -0.67,-5.56 -0.66,-0.66 -1.26,-0.9 -2.27,-0.93 -0.68,-0.02 -0.96,0.01 -1.4,0.19z m2.39,1.41 c0.28,0.19 0.49,0.46 0.73,0.94 0.31,0.63 0.33,0.74 0.33,1.68 0.0,0.93 -0.03,1.06 -0.3,1.6 -0.91,1.78 -2.94,1.74 -3.76,-0.08 -0.2,-0.44 -0.24,-0.68 -0.24,-1.57 0.0,-1.13 0.19,-1.76 0.68,-2.28 0.67,-0.72 1.72,-0.84 2.56,-0.29z"/>
    <!-- g -->
    <path d="M199.22,82.48 c-1.52,0.55 -2.46,2.1 -2.46,4.07 0.0,1.05 0.18,1.75 0.66,2.55 1.05,1.75 3.56,2.16 5.43,0.88 l0.35,-0.23 0.0,-1.88 0.0,-1.87 -1.6,-0.0 -1.6,-0.0 0.0,0.65 0.0,0.65 0.95,-0.0 0.95,-0.0 0.0,0.88 0.0,0.89 -0.42,0.19 c-0.27,0.12 -0.65,0.19 -1.03,0.19 -1.46,-0.0 -2.38,-1.25 -2.31,-3.13 0.06,-1.65 0.97,-2.71 2.34,-2.72 0.61,-0.0 1.03,0.15 1.5,0.55 0.37,0.31 0.3,0.35 0.88,-0.47 l0.27,-0.38 -0.24,-0.19 c-0.13,-0.11 -0.49,-0.32 -0.79,-0.47 -0.74,-0.37 -2.08,-0.44 -2.88,-0.16z"/>
    <!-- i -->
    <path d="M205.9,86.5 l0.0,4.1 0.7,-0.0 0.7,-0.0 0.0,-4.1 0.0,-4.1 -0.7,-0.0 -0.7,-0.0 0.0,4.1z"/>
    <!-- e -->
    <path d="M210.1,86.5 l0.0,4.1 2.65,-0.0 2.66,-0.0 -0.03,-0.63 c-0.02,-0.4 -0.07,-0.62 -0.15,-0.63 -0.07,-0.01 -0.96,-0.02 -1.98,-0.03 l-1.85,-0.01 0.0,-1.1 0.0,-1.1 1.75,-0.0 1.75,-0.0 0.0,-0.65 0.0,-0.65 -1.75,-0.0 -1.75,-0.0 0.0,-1.05 0.0,-1.05 1.95,-0.0 1.95,-0.0 0.0,-0.65 0.0,-0.65 -2.6,-0.0 -2.6,-0.0 0.0,4.1z"/>
    <!-- s -->
    <path d="M219.3,82.39 c-1.31,0.43 -1.98,1.57 -1.65,2.83 0.22,0.85 0.56,1.11 2.84,2.14 0.95,0.43 1.2,0.87 0.86,1.53 -0.18,0.37 -0.67,0.56 -1.32,0.54 -0.57,-0.02 -1.14,-0.27 -1.68,-0.74 -0.2,-0.18 -0.37,-0.3 -0.38,-0.28 -0.02,0.02 -0.21,0.26 -0.42,0.53 l-0.4,0.49 0.4,0.34 c2.09,1.8 5.28,0.95 5.28,-1.42 0.0,-1.18 -0.63,-1.83 -2.48,-2.55 -0.78,-0.31 -1.21,-0.59 -1.35,-0.88 -0.22,-0.5 -0.07,-0.93 0.41,-1.18 0.62,-0.31 1.52,-0.15 2.27,0.42 0.18,0.14 0.34,0.24 0.36,0.23 0.01,-0.02 0.19,-0.26 0.41,-0.53 l0.39,-0.49 -0.3,-0.24 c-0.64,-0.51 -1.32,-0.77 -2.18,-0.8 -0.45,-0.01 -0.92,0.01 -1.06,0.06z"/>
  </g>
</svg>
