<?xml version="1.0" encoding="UTF-8"?>
<svg xmlns="http://www.w3.org/2000/svg" xmlns:xlink="http://www.w3.org/1999/xlink" version="1.1" viewBox="-37 -27.5 777 555" preserveAspectRatio="xMidYMid meet"  width="155.4pt" height="111pt">
<!--
    auteur du logo : Mathias Rousset
    version tikz : Kroum Tzanev
    date : 13 décembre 2015
    size : 777x555 (rapport 1.4:1)
 -->

  <!-- <rect x="-37" y="-27.5" width="777" height="555" fill="black"/> -->

  <g transform="translate(0,527.5) scale(1,-1)" style="stroke:none;fill-rule:nonzero;fill-opacity:1;fill:white">
    <!-- Logo -->
    <g>
      <path d="M202.0 469.0 c-1.4 -.4 -9.6 -3.1 -18.3 -5.9 -40.8 -13.3 -76.3 -33.2 -102.4 -57.5 -13.1 -12.3 -19.8 -21.2 -22.8 -30.6 -13.2 -42.1 5.9 -77.8 55.8 -104.0 46.3 -24.4 119.9 -39.6 194.7 -40.1 28.7 -.2 35.6 .2 20.1 1.2 -33.6 2.1 -54.5 8.3 -91.1 27.0 -28.0 14.3 -49.7 29.6 -68.5 48.4 -32.7 32.6 -44.9 65.6 -35.0 95.0 7.8 23.4 28.7 44.4 61.7 62.0 9.9 5.2 11.2 6.3 5.8 4.5z"/>
      <path d="M337.0 493.9 c-78.0 -5.1 -142.6 -27.5 -176.6 -61.4 -10.4 -10.4 -17.1 -20.6 -21.0 -32.0 -3.3 -9.8 -3.8 -24.1 -1.1 -34.5 2.4 -9.4 11.6 -27.1 19.0 -37.0 8.6 -11.3 27.7 -29.7 40.7 -39.2 9.6 -6.9 26.3 -17.8 27.4 -17.8 .3 .0 -.9 3.3 -2.5 7.2 -7.9 19.3 -11.3 36.1 -11.2 55.8 .0 15.4 1.3 23.2 5.8 36.1 17.1 49.2 76.0 83.6 165.0 96.4 79.9 11.5 155.4 -8.3 211.6 -55.3 23.9 -20.0 45.9 -48.6 55.3 -71.8 6.7 -16.5 9.7 -36.9 7.8 -54.1 -3.8 -36.0 -20.7 -67.7 -53.7 -100.8 -34.7 -34.8 -79.6 -62.9 -136.5 -85.5 -51.7 -20.5 -106.8 -33.0 -167.0 -37.9 -17.0 -1.4 -70.8 -.6 -87.5 1.3 -52.0 5.9 -97.7 18.7 -137.6 38.6 -14.3 7.2 -14.1 6.6 2.6 -7.9 52.8 -45.7 115.8 -74.4 176.0 -80.1 6.1 -.6 12.1 -1.2 13.5 -1.5 12.2 -2.2 66.1 -3.5 82.7 -2.0 21.8 1.9 30.4 2.9 42.3 4.6 120.7 18.0 228.8 76.5 278.5 150.9 7.2 10.8 16.6 29.9 20.4 41.5 13.5 40.8 9.4 86.6 -11.5 127.5 -42.0 82.6 -150.6 145.0 -274.9 158.1 -13.2 1.3 -51.7 1.8 -67.5 .8z"/>
      <path d="M398.4 464.0 c-24.4 -2.2 -55.5 -8.7 -79.3 -16.6 -47.5 -15.8 -77.7 -38.3 -92.7 -68.9 -6.6 -13.6 -8.6 -22.2 -9.1 -40.5 -.6 -18.2 1.3 -31.0 7.3 -48.2 5.3 -15.2 9.5 -23.0 13.5 -24.9 l3.3 -1.5 6.7 13.5 c7.3 14.7 18.9 32.8 29.2 45.7 14.6 18.0 37.2 37.8 56.2 49.3 37.1 22.4 84.7 32.6 131.0 28.1 67.0 -6.5 105.5 -36.3 105.5 -81.7 .0 -33.5 -21.0 -68.1 -58.2 -95.8 -46.1 -34.4 -136.3 -60.1 -236.8 -67.4 -15.1 -1.1 -67.6 -1.1 -81.0 .0 -63.5 5.2 -109.8 18.6 -144.5 41.7 -17.1 11.4 -27.7 21.6 -38.5 37.2 l-5.1 7.5 .6 -7.5 c3.3 -37.7 14.1 -71.1 31.1 -96.5 10.3 -15.4 13.0 -17.4 39.3 -30.6 69.1 -34.3 153.7 -47.2 244.9 -37.4 111.1 12.0 217.9 58.5 279.8 121.6 25.0 25.6 40.1 50.2 47.1 76.8 3.4 13.0 4.3 36.4 1.9 49.4 -4.9 26.0 -19.3 50.6 -44.9 76.5 -31.1 31.5 -68.7 52.8 -112.7 63.6 -8.0 1.9 -19.2 4.3 -25.0 5.1 -12.2 1.9 -55.4 2.8 -69.6 1.5z"/>
      <path d="M422.0 394.8 c-64.6 -5.3 -122.0 -41.8 -158.4 -100.8 -6.1 -9.7 -16.6 -30.4 -16.6 -32.5 .0 -.6 4.1 -3.0 9.1 -5.3 l9.1 -4.2 3.1 2.4 c9.5 7.0 41.7 23.8 62.3 32.5 44.5 18.6 91.1 28.5 126.9 26.7 31.9 -1.5 42.7 -9.8 35.0 -26.5 -6.4 -13.7 -38.3 -38.5 -59.3 -46.1 -28.5 -10.4 -61.1 -15.0 -109.7 -15.5 -51.7 -.6 -96.0 4.1 -140.0 15.0 -37.5 9.2 -65.9 20.7 -89.4 36.1 -10.4 6.9 -29.2 25.4 -34.0 33.6 -9.9 17.0 -13.2 35.6 -9.6 54.4 .8 4.3 1.3 7.9 1.1 8.1 -.1 .2 -2.8 -3.2 -5.8 -7.4 -26.8 -37.4 -39.8 -70.3 -39.8 -100.6 .0 -10.9 .1 -11.7 3.1 -17.3 5.8 -10.9 11.1 -17.8 21.8 -28.5 33.7 -33.6 89.8 -53.3 168.1 -58.8 15.3 -1.1 67.2 -.6 83.5 .8 72.8 6.4 136.0 20.9 185.5 42.7 24.5 10.8 40.7 21.5 58.3 38.4 13.3 12.8 22.1 24.2 28.6 37.5 7.5 15.0 9.5 23.4 9.5 38.5 .0 11.0 -.3 13.4 -2.7 20.3 -10.6 30.5 -41.9 49.7 -90.9 55.7 -11.9 1.4 -36.1 1.8 -48.8 .8z"/>
      <path d="M435.7 307.8 c-38.8 -2.3 -84.3 -15.6 -128.1 -37.5 -16.4 -8.1 -25.8 -13.4 -25.3 -14.0 .3 -.2 7.2 .5 15.3 1.6 32.7 4.5 44.9 5.4 66.9 4.7 31.1 -.8 56.5 -3.5 73.3 -7.8 l8.3 -2.1 10.2 6.9 c13.5 9.1 29.7 25.1 32.2 31.8 1.7 4.3 1.7 5.1 .4 7.4 -4.3 7.7 -22.7 10.8 -53.2 9.0z"/>
      <path d="M679.9 171.1 c-36.6 -62.2 -118.2 -117.3 -215.9 -145.6 -30.1 -8.6 -60.2 -14.8 -85.5 -17.6 -29.0 -3.1 -8.8 -3.4 26.8 -.4 119.7 10.2 214.3 61.3 265.0 143.3 5.5 8.9 16.1 29.2 15.5 29.7 -.2 .1 -2.8 -4.1 -5.9 -9.4z"/>
    </g>
  </g>
</svg>
