<?xml version="1.0" encoding="UTF-8"?>
<svg xmlns="http://www.w3.org/2000/svg" xmlns:xlink="http://www.w3.org/1999/xlink" viewBox="-57.4 -11 199 56.5" version="1.1">

  <!-- <rect x="-57.4" y="-11" width="199" height="56.5" fill="black"/> -->
  <!-- CEMPI -->
  <g style=" stroke:none;fill-rule:nonzero;fill:rgb(94.024%,33.329%,10.203%);fill-opacity:1;">
    <path d="M 17.511 15.957 C 16.894 16.281 16.261 16.539 15.617 16.734 C 14.968 16.929 14.316 17.066 13.660 17.148 C 13.003 17.230 12.320 17.273 11.617 17.273 C 10.316 17.273 9.152 17.093 8.121 16.734 C 7.089 16.375 6.195 15.843 5.437 15.144 C 4.679 14.445 4.113 13.625 3.734 12.687 C 3.359 11.75 3.167 10.722 3.167 9.601 C 3.167 8.312 3.394 7.187 3.835 6.222 C 4.281 5.257 4.906 4.453 5.707 3.812 C 6.507 3.175 7.421 2.703 8.445 2.394 C 9.468 2.089 10.546 1.937 11.683 1.937 C 13.378 1.937 15.300 2.316 17.449 3.070 L 17.449 7.035 C 16.707 6.574 15.976 6.191 15.253 5.886 C 14.531 5.582 13.683 5.429 12.707 5.429 C 11.835 5.429 11.023 5.601 10.273 5.945 C 9.515 6.292 8.910 6.785 8.449 7.421 C 7.988 8.062 7.761 8.808 7.761 9.664 C 7.761 10.417 7.960 11.109 8.363 11.738 C 8.765 12.367 9.324 12.867 10.039 13.238 C 10.753 13.605 11.562 13.792 12.457 13.792 C 13.183 13.792 13.871 13.703 14.515 13.527 C 15.164 13.351 15.707 13.156 16.148 12.941 C 16.589 12.726 17.046 12.468 17.511 12.175 Z"/>
    <path d="M 31.890 17.078 L 20.628 17.078 L 20.628 2.144 L 31.707 2.144 L 31.707 5.140 L 25.132 5.140 L 25.132 7.875 L 31.406 7.875 L 31.406 10.882 L 25.132 10.882 L 25.132 14.070 L 31.890 14.070 Z"/>
    <path d="M 52.367 17.078 L 47.859 17.078 L 47.859 8.425 L 43.796 13.437 L 43.441 13.437 L 39.371 8.425 L 39.371 17.078 L 34.996 17.078 L 34.996 2.144 L 39.078 2.144 L 43.667 7.746 L 48.281 2.144 L 52.367 2.144 Z"/>
    <path d="M 64.566 6.863 C 64.566 6.152 64.355 5.664 63.937 5.402 C 63.515 5.140 62.761 5.007 61.679 5.007 L 60.730 5.007 L 60.730 8.609 L 61.699 8.609 C 62.445 8.609 63.023 8.562 63.421 8.468 C 63.824 8.375 64.117 8.203 64.296 7.953 C 64.476 7.699 64.566 7.339 64.566 6.863 M 69.156 6.839 C 69.156 7.394 69.062 7.933 68.871 8.464 C 68.679 8.992 68.375 9.484 67.949 9.941 C 67.523 10.394 66.953 10.765 66.230 11.050 C 65.507 11.332 64.660 11.476 63.683 11.476 L 60.730 11.476 L 60.730 17.078 L 56.226 17.078 L 56.226 2.144 L 63.683 2.144 C 64.660 2.144 65.507 2.285 66.230 2.574 C 66.953 2.863 67.523 3.234 67.949 3.695 C 68.375 4.156 68.679 4.652 68.871 5.191 C 69.062 5.730 69.156 6.281 69.156 6.839"/>
    <path d="M 76.273 17.078 L 71.765 17.078 L 71.765 2.144 L 76.273 2.144 Z"/>
  </g>

  <!-- CENTRE EUROPÉEN POUR LES MATHÉMATIQUES, LA PHYSIQUE ET LEURS INTERACTIONS -->
  <g style=" stroke:none;fill-rule:nonzero;fill:rgb(94.024%,33.329%,10.203%);fill-opacity:1;">
    <path d="M 81.75 16.230 C 82.242 16.230 82.585 16.035 82.843 15.839 L 83.296 16.546 C 82.886 16.914 82.359 17.136 81.718 17.136 C 80.519 17.136 79.617 16.253 79.617 15.089 C 79.617 13.921 80.519 13.035 81.718 13.035 C 82.359 13.035 82.886 13.257 83.296 13.628 L 82.843 14.339 C 82.585 14.136 82.242 13.945 81.75 13.945 C 81.074 13.945 80.628 14.453 80.628 15.089 C 80.628 15.718 81.074 16.230 81.75 16.230"/>
    <path d="M 84.035 17.078 L 84.035 13.093 L 87.234 13.093 L 87.234 13.949 L 84.980 13.949 L 84.980 14.636 L 86.808 14.636 L 86.808 15.464 L 84.980 15.464 L 84.980 16.222 L 87.234 16.222 L 87.234 17.078 Z"/>
    <path d="M 89.066 14.660 L 89.066 17.078 L 88.082 17.078 L 88.082 13.093 L 88.937 13.093 L 90.945 15.515 L 90.945 13.093 L 91.929 13.093 L 91.929 17.078 L 91.074 17.078 Z"/>
    <path d="M 94.824 13.957 L 94.824 17.078 L 93.839 17.078 L 93.839 13.957 L 92.617 13.957 L 92.617 13.093 L 96.015 13.093 L 96.015 13.957 Z"/>
    <path d="M 97.687 13.949 L 97.687 14.933 L 98.574 14.933 C 98.898 14.933 99.109 14.734 99.109 14.441 C 99.109 14.136 98.898 13.949 98.574 13.949 Z M 96.699 13.093 L 98.593 13.093 C 99.519 13.093 100.128 13.515 100.128 14.414 C 100.128 15.003 99.734 15.449 99.187 15.609 L 100.343 16.890 L 100.343 17.078 L 99.296 17.078 L 98.082 15.667 L 97.687 15.667 L 97.687 17.078 L 96.699 17.078 Z"/>
    <path d="M 101.042 17.078 L 101.042 13.093 L 104.242 13.093 L 104.242 13.949 L 101.988 13.949 L 101.988 14.636 L 103.816 14.636 L 103.816 15.464 L 101.988 15.464 L 101.988 16.222 L 104.242 16.222 L 104.242 17.078 Z"/>
    <path d="M 106.539 17.078 L 106.539 13.093 L 109.738 13.093 L 109.738 13.949 L 107.484 13.949 L 107.484 14.636 L 109.312 14.636 L 109.312 15.464 L 107.484 15.464 L 107.484 16.222 L 109.738 16.222 L 109.738 17.078 Z"/>
    <path d="M 111.515 15.304 C 111.515 15.878 111.808 16.230 112.375 16.230 C 112.960 16.230 113.253 15.867 113.253 15.304 L 113.253 13.093 L 114.238 13.093 L 114.238 15.367 C 114.238 16.324 113.582 17.144 112.375 17.144 C 111.187 17.144 110.531 16.398 110.531 15.367 L 110.531 13.093 L 111.515 13.093 Z"/>
    <path d="M 116.203 13.949 L 116.203 14.933 L 117.093 14.933 C 117.417 14.933 117.628 14.734 117.628 14.441 C 117.628 14.136 117.417 13.949 117.093 13.949 Z M 115.218 13.093 L 117.113 13.093 C 118.039 13.093 118.648 13.515 118.648 14.414 C 118.648 15.003 118.253 15.449 117.703 15.609 L 118.863 16.890 L 118.863 17.078 L 117.816 17.078 L 116.601 15.667 L 116.203 15.667 L 116.203 17.078 L 115.218 17.078 Z"/>
    <path d="M 121.320 16.214 C 121.964 16.214 122.402 15.726 122.402 15.093 C 122.402 14.449 121.964 13.968 121.320 13.968 C 120.691 13.968 120.234 14.449 120.234 15.093 C 120.234 15.726 120.691 16.214 121.320 16.214 M 121.320 13.035 C 122.496 13.035 123.375 13.914 123.375 15.093 C 123.375 16.257 122.496 17.136 121.320 17.136 C 120.152 17.136 119.273 16.257 119.273 15.093 C 119.273 13.914 120.152 13.035 121.320 13.035"/>
    <path d="M 125.156 13.949 L 125.156 15.167 L 126 15.167 C 126.339 15.167 126.605 14.929 126.605 14.566 C 126.605 14.179 126.339 13.949 126 13.949 Z M 124.171 13.093 L 126.152 13.093 C 126.945 13.093 127.625 13.558 127.625 14.570 C 127.625 15.480 126.945 16.023 126.152 16.023 L 125.156 16.023 L 125.156 17.078 L 124.171 17.078 Z"/>
    <path d="M 128.335 17.078 L 128.335 13.093 L 131.535 13.093 L 131.535 13.949 L 129.277 13.949 L 129.277 14.636 L 131.105 14.636 L 131.105 15.464 L 129.277 15.464 L 129.277 16.222 L 131.535 16.222 L 131.535 17.078 Z"/>
    <path d="M 130.25 12.742 L 129.437 12.742 L 129.910 11.816 L 130.878 11.816 Z"/>
    <path d="M 132.378 17.078 L 132.378 13.093 L 135.578 13.093 L 135.578 13.949 L 133.320 13.949 L 133.320 14.636 L 135.148 14.636 L 135.148 15.464 L 133.320 15.464 L 133.320 16.222 L 135.578 16.222 L 135.578 17.078 Z"/>
    <path d="M 137.406 14.660 L 137.406 17.078 L 136.421 17.078 L 136.421 13.093 L 137.277 13.093 L 139.289 15.515 L 139.289 13.093 L 140.273 13.093 L 140.273 17.078 L 139.417 17.078 Z"/>
    <path d="M 3.746 20.972 L 3.746 22.191 L 4.589 22.191 C 4.929 22.191 5.195 21.953 5.195 21.589 C 5.195 21.203 4.929 20.972 4.589 20.972 Z M 2.761 20.117 L 4.742 20.117 C 5.535 20.117 6.214 20.582 6.214 21.593 C 6.214 22.503 5.535 23.046 4.742 23.046 L 3.746 23.046 L 3.746 24.101 L 2.761 24.101 Z"/>
    <path d="M 8.687 23.234 C 9.332 23.234 9.773 22.75 9.773 22.117 C 9.773 21.472 9.332 20.992 8.687 20.992 C 8.062 20.992 7.605 21.472 7.605 22.117 C 7.605 22.75 8.062 23.234 8.687 23.234 M 8.687 20.058 C 9.863 20.058 10.742 20.937 10.742 22.117 C 10.742 23.281 9.863 24.160 8.687 24.160 C 7.523 24.160 6.644 23.281 6.644 22.117 C 6.644 20.937 7.523 20.058 8.687 20.058"/>
    <path d="M 12.425 22.328 C 12.425 22.902 12.718 23.253 13.289 23.253 C 13.875 23.253 14.167 22.890 14.167 22.328 L 14.167 20.117 L 15.152 20.117 L 15.152 22.390 C 15.152 23.347 14.496 24.167 13.289 24.167 C 12.097 24.167 11.441 23.421 11.441 22.390 L 11.441 20.117 L 12.425 20.117 Z"/>
    <path d="M 17.066 20.972 L 17.066 21.957 L 17.957 21.957 C 18.281 21.957 18.492 21.757 18.492 21.464 C 18.492 21.160 18.281 20.972 17.957 20.972 Z M 16.082 20.117 L 17.976 20.117 C 18.902 20.117 19.511 20.539 19.511 21.437 C 19.511 22.027 19.117 22.472 18.566 22.632 L 19.726 23.914 L 19.726 24.101 L 18.679 24.101 L 17.464 22.691 L 17.066 22.691 L 17.066 24.101 L 16.082 24.101 Z"/>
    <path d="M 21.781 24.101 L 21.781 20.117 L 22.769 20.117 L 22.769 23.246 L 24.753 23.246 L 24.753 24.101 Z"/>
    <path d="M 25.339 24.101 L 25.339 20.117 L 28.539 20.117 L 28.539 20.972 L 26.285 20.972 L 26.285 21.660 L 28.113 21.660 L 28.113 22.484 L 26.285 22.484 L 26.285 23.246 L 28.539 23.246 L 28.539 24.101 Z"/>
    <path d="M 29.359 22.917 C 29.660 23.117 30.117 23.316 30.617 23.316 C 31.007 23.316 31.253 23.187 31.253 22.937 C 31.253 22.761 31.125 22.656 30.804 22.574 L 30.152 22.398 C 29.468 22.214 29.140 21.851 29.140 21.289 C 29.140 20.609 29.660 20.066 30.734 20.066 C 31.300 20.066 31.859 20.222 32.167 20.382 L 31.894 21.230 C 31.582 21.054 31.105 20.910 30.691 20.910 C 30.308 20.910 30.144 21.031 30.144 21.226 C 30.144 21.402 30.257 21.472 30.503 21.542 L 31.214 21.746 C 31.945 21.957 32.265 22.316 32.265 22.867 C 32.265 23.632 31.589 24.160 30.593 24.160 C 30.007 24.160 29.394 23.964 29.128 23.816 Z"/>
    <path d="M 37.964 21.664 L 36.765 23.105 L 36.593 23.105 L 35.398 21.664 L 35.398 24.101 L 34.414 24.101 L 34.414 20.117 L 35.265 20.117 L 36.683 21.781 L 38.101 20.117 L 38.949 20.117 L 38.949 24.101 L 37.964 24.101 Z"/>
    <path d="M 40.976 22.648 L 42.160 22.648 L 41.578 21.089 Z M 41 20.117 L 42.160 20.117 L 43.664 24.101 L 42.667 24.101 L 42.398 23.371 L 40.730 23.371 L 40.453 24.101 L 39.457 24.101 Z"/>
    <path d="M 45.738 20.980 L 45.738 24.101 L 44.753 24.101 L 44.753 20.980 L 43.531 20.980 L 43.531 20.117 L 46.929 20.117 L 46.929 20.980 Z"/>
    <path d="M 50.437 22.515 L 48.554 22.515 L 48.554 24.101 L 47.570 24.101 L 47.570 20.117 L 48.554 20.117 L 48.554 21.660 L 50.437 21.660 L 50.437 20.117 L 51.417 20.117 L 51.417 24.101 L 50.437 24.101 Z"/>
    <path d="M 52.410 24.101 L 52.410 20.117 L 55.609 20.117 L 55.609 20.972 L 53.355 20.972 L 53.355 21.660 L 55.183 21.660 L 55.183 22.484 L 53.355 22.484 L 53.355 23.246 L 55.609 23.246 L 55.609 24.101 Z"/>
    <path d="M 54.324 19.765 L 53.511 19.765 L 53.984 18.839 L 54.953 18.839 Z"/>
    <path d="M 59.957 21.664 L 58.757 23.105 L 58.585 23.105 L 57.394 21.664 L 57.394 24.101 L 56.406 24.101 L 56.406 20.117 L 57.257 20.117 L 58.675 21.781 L 60.093 20.117 L 60.941 20.117 L 60.941 24.101 L 59.957 24.101 Z"/>
    <path d="M 62.968 22.648 L 64.152 22.648 L 63.574 21.089 Z M 62.992 20.117 L 64.152 20.117 L 65.660 24.101 L 64.664 24.101 L 64.394 23.371 L 62.722 23.371 L 62.449 24.101 L 61.453 24.101 Z"/>
    <path d="M 67.734 20.980 L 67.734 24.101 L 66.75 24.101 L 66.75 20.980 L 65.523 20.980 L 65.523 20.117 L 68.921 20.117 L 68.921 20.980 Z"/>
    <path d="M 69.566 20.117 L 70.546 20.117 L 70.546 24.101 L 69.566 24.101 Z"/>
    <path d="M 73.355 23.234 C 73.992 23.234 74.437 22.75 74.437 22.117 C 74.437 21.472 73.992 20.992 73.355 20.992 C 72.718 20.992 72.269 21.472 72.269 22.117 C 72.269 22.75 72.718 23.234 73.355 23.234 M 75.808 25.046 C 75.656 25.097 75.378 25.156 75.074 25.156 C 74.156 25.156 73.628 24.343 73.328 24.160 C 72.175 24.148 71.308 23.277 71.308 22.117 C 71.308 20.937 72.187 20.058 73.355 20.058 C 74.531 20.058 75.410 20.937 75.410 22.117 C 75.410 22.929 74.976 23.597 74.320 23.933 C 74.546 24.132 74.808 24.339 75.148 24.339 C 75.359 24.339 75.589 24.308 75.707 24.261 Z"/>
    <path d="M 77.125 22.328 C 77.125 22.902 77.417 23.253 77.988 23.253 C 78.574 23.253 78.867 22.890 78.867 22.328 L 78.867 20.117 L 79.851 20.117 L 79.851 22.390 C 79.851 23.347 79.195 24.167 77.988 24.167 C 76.796 24.167 76.144 23.421 76.144 22.390 L 76.144 20.117 L 77.125 20.117 Z"/>
    <path d="M 80.785 24.101 L 80.785 20.117 L 83.984 20.117 L 83.984 20.972 L 81.726 20.972 L 81.726 21.660 L 83.554 21.660 L 83.554 22.484 L 81.726 22.484 L 81.726 23.246 L 83.984 23.246 L 83.984 24.101 Z"/>
    <path d="M 84.796 22.917 C 85.105 23.117 85.562 23.316 86.058 23.316 C 86.449 23.316 86.695 23.187 86.695 22.937 C 86.695 22.761 86.566 22.656 86.246 22.574 L 85.593 22.398 C 84.910 22.214 84.582 21.851 84.582 21.289 C 84.582 20.609 85.105 20.066 86.175 20.066 C 86.742 20.066 87.300 20.222 87.609 20.382 L 87.335 21.230 C 87.023 21.054 86.542 20.910 86.132 20.910 C 85.746 20.910 85.582 21.031 85.582 21.226 C 85.582 21.402 85.699 21.472 85.945 21.542 L 86.656 21.746 C 87.390 21.957 87.703 22.316 87.703 22.867 C 87.703 23.632 87.031 24.160 86.035 24.160 C 85.449 24.160 84.832 23.964 84.570 23.816 Z"/>
    <path d="M 88.609 24.167 C 88.375 24.097 88.257 23.902 88.257 23.640 C 88.257 23.269 88.468 23.058 88.824 23.058 C 89.191 23.058 89.406 23.281 89.406 23.640 C 89.406 24.113 89.117 24.757 88.906 25.117 L 88.363 24.898 Z"/>
    <path d="M 91.621 24.101 L 91.621 20.117 L 92.609 20.117 L 92.609 23.246 L 94.593 23.246 L 94.593 24.101 Z"/>
    <path d="M 96.218 22.648 L 97.402 22.648 L 96.820 21.089 Z M 96.242 20.117 L 97.402 20.117 L 98.906 24.101 L 97.910 24.101 L 97.644 23.371 L 95.972 23.371 L 95.695 24.101 L 94.699 24.101 Z"/>
    <path d="M 101.644 20.972 L 101.644 22.191 L 102.488 22.191 C 102.828 22.191 103.089 21.953 103.089 21.589 C 103.089 21.203 102.828 20.972 102.488 20.972 Z M 100.660 20.117 L 102.640 20.117 C 103.429 20.117 104.109 20.582 104.109 21.593 C 104.109 22.503 103.429 23.046 102.640 23.046 L 101.644 23.046 L 101.644 24.101 L 100.660 24.101 Z"/>
    <path d="M 107.640 22.515 L 105.757 22.515 L 105.757 24.101 L 104.773 24.101 L 104.773 20.117 L 105.757 20.117 L 105.757 21.660 L 107.640 21.660 L 107.640 20.117 L 108.621 20.117 L 108.621 24.101 L 107.640 24.101 Z"/>
    <path d="M 110.652 22.566 L 109.132 20.187 L 109.132 20.117 L 110.230 20.117 L 111.144 21.660 L 112.058 20.117 L 113.152 20.117 L 113.152 20.187 L 111.636 22.562 L 111.636 24.101 L 110.652 24.101 Z"/>
    <path d="M 113.574 22.917 C 113.878 23.117 114.335 23.316 114.835 23.316 C 115.230 23.316 115.476 23.187 115.476 22.937 C 115.476 22.761 115.343 22.656 115.023 22.574 L 114.371 22.398 C 113.687 22.214 113.359 21.851 113.359 21.289 C 113.359 20.609 113.878 20.066 114.953 20.066 C 115.523 20.066 116.078 20.222 116.390 20.382 L 116.113 21.230 C 115.800 21.054 115.320 20.910 114.910 20.910 C 114.523 20.910 114.359 21.031 114.359 21.226 C 114.359 21.402 114.480 21.472 114.726 21.542 L 115.433 21.746 C 116.164 21.957 116.484 22.316 116.484 22.867 C 116.484 23.632 115.808 24.160 114.812 24.160 C 114.226 24.160 113.609 23.964 113.347 23.816 Z"/>
    <path d="M 117.230 20.117 L 118.210 20.117 L 118.210 24.101 L 117.230 24.101 Z"/>
    <path d="M 121.015 23.234 C 121.656 23.234 122.101 22.75 122.101 22.117 C 122.101 21.472 121.656 20.992 121.015 20.992 C 120.382 20.992 119.933 21.472 119.933 22.117 C 119.933 22.75 120.382 23.234 121.015 23.234 M 123.472 25.046 C 123.320 25.097 123.042 25.156 122.738 25.156 C 121.820 25.156 121.292 24.343 120.992 24.160 C 119.839 24.148 118.972 23.277 118.972 22.117 C 118.972 20.937 119.851 20.058 121.015 20.058 C 122.195 20.058 123.074 20.937 123.074 22.117 C 123.074 22.929 122.640 23.597 121.984 23.933 C 122.210 24.132 122.468 24.339 122.808 24.339 C 123.019 24.339 123.253 24.308 123.371 24.261 Z"/>
    <path d="M 124.789 22.328 C 124.789 22.902 125.082 23.253 125.652 23.253 C 126.238 23.253 126.531 22.890 126.531 22.328 L 126.531 20.117 L 127.515 20.117 L 127.515 22.390 C 127.515 23.347 126.859 24.167 125.652 24.167 C 124.460 24.167 123.808 23.421 123.808 22.390 L 123.808 20.117 L 124.789 20.117 Z"/>
    <path d="M 128.445 24.101 L 128.445 20.117 L 131.648 20.117 L 131.648 20.972 L 129.390 20.972 L 129.390 21.660 L 131.218 21.660 L 131.218 22.484 L 129.390 22.484 L 129.390 23.246 L 131.648 23.246 L 131.648 24.101 Z"/>
    <path d="M 133.851 24.101 L 133.851 20.117 L 137.046 20.117 L 137.046 20.972 L 134.792 20.972 L 134.792 21.660 L 136.621 21.660 L 136.621 22.484 L 134.792 22.484 L 134.792 23.246 L 137.046 23.246 L 137.046 24.101 Z"/>
    <path d="M 139.703 20.980 L 139.703 24.101 L 138.718 24.101 L 138.718 20.980 L 137.496 20.980 L 137.496 20.117 L 140.894 20.117 L 140.894 20.980 Z"/>
    <path d="M 2.761 31.125 L 2.761 27.140 L 3.746 27.140 L 3.746 30.269 L 5.734 30.269 L 5.734 31.125 Z"/>
    <path d="M 6.320 31.125 L 6.320 27.140 L 9.519 27.140 L 9.519 27.996 L 7.265 27.996 L 7.265 28.683 L 9.093 28.683 L 9.093 29.507 L 7.265 29.507 L 7.265 30.269 L 9.519 30.269 L 9.519 31.125 Z"/>
    <path d="M 11.25 29.351 C 11.25 29.925 11.542 30.277 12.109 30.277 C 12.695 30.277 12.988 29.914 12.988 29.351 L 12.988 27.140 L 13.976 27.140 L 13.976 29.414 C 13.976 30.371 13.316 31.191 12.109 31.191 C 10.921 31.191 10.265 30.445 10.265 29.414 L 10.265 27.140 L 11.25 27.140 Z"/>
    <path d="M 15.890 27.996 L 15.890 28.980 L 16.781 28.980 C 17.105 28.980 17.316 28.781 17.316 28.488 C 17.316 28.183 17.105 27.996 16.781 27.996 Z M 14.906 27.140 L 16.800 27.140 C 17.726 27.140 18.335 27.562 18.335 28.460 C 18.335 29.050 17.941 29.496 17.390 29.656 L 18.550 30.937 L 18.550 31.125 L 17.503 31.125 L 16.289 29.714 L 15.890 29.714 L 15.890 31.125 L 14.906 31.125 Z"/>
    <path d="M 19.218 29.941 C 19.523 30.140 19.984 30.339 20.480 30.339 C 20.871 30.339 21.117 30.214 21.117 29.960 C 21.117 29.785 20.988 29.679 20.667 29.597 L 20.019 29.421 C 19.332 29.238 19.003 28.875 19.003 28.312 C 19.003 27.632 19.523 27.089 20.597 27.089 C 21.164 27.089 21.722 27.246 22.031 27.406 L 21.757 28.257 C 21.445 28.078 20.964 27.933 20.558 27.933 C 20.167 27.933 20.003 28.054 20.003 28.25 C 20.003 28.425 20.121 28.496 20.367 28.566 L 21.078 28.769 C 21.812 28.980 22.125 29.339 22.125 29.890 C 22.125 30.656 21.453 31.183 20.457 31.183 C 19.871 31.183 19.253 30.984 18.992 30.839 Z"/>
    <path d="M 24.277 27.140 L 25.261 27.140 L 25.261 31.125 L 24.277 31.125 Z"/>
    <path d="M 27.238 28.707 L 27.238 31.125 L 26.253 31.125 L 26.253 27.140 L 27.109 27.140 L 29.121 29.562 L 29.121 27.140 L 30.105 27.140 L 30.105 31.125 L 29.25 31.125 Z"/>
    <path d="M 32.953 28.003 L 32.953 31.125 L 31.968 31.125 L 31.968 28.003 L 30.742 28.003 L 30.742 27.140 L 34.144 27.140 L 34.144 28.003 Z"/>
    <path d="M 34.781 31.125 L 34.781 27.140 L 37.980 27.140 L 37.980 27.996 L 35.726 27.996 L 35.726 28.683 L 37.554 28.683 L 37.554 29.507 L 35.726 29.507 L 35.726 30.269 L 37.980 30.269 L 37.980 31.125 Z"/>
    <path d="M 39.765 27.996 L 39.765 28.980 L 40.656 28.980 C 40.976 28.980 41.187 28.781 41.187 28.488 C 41.187 28.183 40.976 27.996 40.656 27.996 Z M 38.781 27.140 L 40.671 27.140 C 41.597 27.140 42.207 27.562 42.207 28.460 C 42.207 29.050 41.816 29.496 41.265 29.656 L 42.425 30.937 L 42.425 31.125 L 41.375 31.125 L 40.164 29.714 L 39.765 29.714 L 39.765 31.125 L 38.781 31.125 Z"/>
    <path d="M 44.113 29.671 L 45.296 29.671 L 44.714 28.113 Z M 44.136 27.140 L 45.296 27.140 L 46.800 31.125 L 45.804 31.125 L 45.535 30.394 L 43.867 30.394 L 43.589 31.125 L 42.593 31.125 Z"/>
    <path d="M 49.125 30.277 C 49.617 30.277 49.960 30.082 50.218 29.882 L 50.671 30.593 C 50.261 30.964 49.734 31.183 49.093 31.183 C 47.894 31.183 46.992 30.300 46.992 29.132 C 46.992 27.968 47.894 27.082 49.093 27.082 C 49.734 27.082 50.261 27.304 50.671 27.675 L 50.218 28.382 C 49.960 28.183 49.617 27.992 49.125 27.992 C 48.449 27.992 48.003 28.5 48.003 29.132 C 48.003 29.765 48.449 30.277 49.125 30.277"/>
    <path d="M 53.218 28.003 L 53.218 31.125 L 52.234 31.125 L 52.234 28.003 L 51.011 28.003 L 51.011 27.140 L 54.410 27.140 L 54.410 28.003 Z"/>
    <path d="M 55.050 27.140 L 56.035 27.140 L 56.035 31.125 L 55.050 31.125 Z"/>
    <path d="M 58.839 30.257 C 59.484 30.257 59.921 29.773 59.921 29.140 C 59.921 28.496 59.484 28.015 58.839 28.015 C 58.210 28.015 57.753 28.496 57.753 29.140 C 57.753 29.773 58.210 30.257 58.839 30.257 M 58.839 27.082 C 60.015 27.082 60.894 27.964 60.894 29.140 C 60.894 30.304 60.015 31.183 58.839 31.183 C 57.671 31.183 56.792 30.304 56.792 29.140 C 56.792 27.964 57.671 27.082 58.839 27.082"/>
    <path d="M 62.628 28.707 L 62.628 31.125 L 61.644 31.125 L 61.644 27.140 L 62.5 27.140 L 64.511 29.562 L 64.511 27.140 L 65.496 27.140 L 65.496 31.125 L 64.640 31.125 Z"/>
    <path d="M 66.503 29.941 C 66.808 30.140 67.265 30.339 67.765 30.339 C 68.156 30.339 68.402 30.214 68.402 29.960 C 68.402 29.785 68.273 29.679 67.949 29.597 L 67.300 29.421 C 66.613 29.238 66.285 28.875 66.285 28.312 C 66.285 27.632 66.808 27.089 67.878 27.089 C 68.449 27.089 69.003 27.246 69.316 27.406 L 69.039 28.257 C 68.730 28.078 68.25 27.933 67.839 27.933 C 67.453 27.933 67.289 28.054 67.289 28.25 C 67.289 28.425 67.406 28.496 67.652 28.566 L 68.359 28.769 C 69.093 28.980 69.410 29.339 69.410 29.890 C 69.410 30.656 68.734 31.183 67.738 31.183 C 67.152 31.183 66.539 30.984 66.273 30.839 Z"/>
  </g>

  <!-- LOGO -->
  <g style=" stroke:none;fill-rule:nonzero;fill:rgb(94.024%,33.329%,10.203%);fill-opacity:1;">
    <path d="
    M -24.421 -7.078 L -23.847 -5.179 L -22.738 -6.371 L -23.214 -8.687 Z
    M -38.910 -5.628 L -37.425 -4.429 L -37.226 -5.867 L -38.835 -7.406 Z
    M -30.183 -1.582 L -29.617 -0.910 L -24.929 -7.167 L -25.515 -9.093 Z
    M -36.730 -6.035 L -31.226 -0.785 L -30.757 -1.539 L -36.425 -8.242 Z
    M -22.234 -6.230 L -21.050 -0.460 L -19.898 -1.109 L -20.617 -7.968 Z
    M -13.394 -2.011 L -13.761 -0.285 L -12.218 -0.816 L -11.617 -2.808 Z
    M -30.882 -0.460 L -30.343 0.054 L -29.906 -0.531 L -30.441 -1.171 Z
    M -29.308 -0.550 L -28.765 0.097 L -24.210 -4.785 L -24.765 -6.617 Z
    M -37.007 -4.089 L -31.792 0.121 L -31.472 -0.382 L -36.812 -5.480 Z
    M -19.410 -0.855 L -19.304 0.132 L -13.800 -2.335 L -13.394 -4.234 Z
    M -23.691 -4.667 L -22.226 0.195 L -21.472 -0.222 L -22.625 -5.816 Z
    M -20.957 0.011 L -20.792 0.796 L -19.75 0.328 L -19.851 -0.605 Z
    M -31.429 0.414 L -30.917 0.824 L -30.625 0.429 L -31.132 -0.058 Z
    M -30.007 0.378 L -29.488 0.871 L -29.085 0.437 L -29.597 -0.167 Z
    M -22.085 0.648 L -21.890 1.289 L -21.226 0.988 L -21.378 0.25 Z
    M -30.558 1.113 L -30.074 1.507 L -29.800 1.214 L -30.289 0.75 Z
    M -19.257 0.617 L -19.156 1.566 L -14.269 -0.109 L -13.917 -1.777 Z
    M -11.847 -0.453 L -12.582 1.972 L -10.996 1.632 L -9.867 -1.132 Z
    M -20.699 1.257 L -20.539 2.042 L -19.605 1.722 L -19.703 0.816 Z
    M -13.871 0.242 L -14.320 2.351 L -13.097 2.085 L -12.386 -0.269 Z
    M -21.757 1.734 L -21.558 2.394 L -20.976 2.195 L -21.128 1.453 Z
    M -40.402 2.308 L -39.718 2.496 L -39.382 -5.417 L -40.765 -6.531 Z
    M -28.464 0.457 L -26.601 2.656 L -22.640 0.429 L -24.058 -4.277 Z
    M -39.265 2.617 L -38.457 2.835 L -37.503 -3.894 L -38.933 -5.054 Z
    M -29.152 1.191 L -27.242 3.015 L -27.011 2.886 L -28.781 0.792 Z
    M -26.296 3.015 L -26.144 3.195 L -22.316 1.480 L -22.496 0.882 Z
    M -29.714 1.796 L -27.808 3.339 L -27.664 3.253 L -29.464 1.531 Z
    M -19.105 2.039 L -18.968 3.359 L -14.820 2.460 L -14.382 0.417 Z
    M -48.460 2.222 L -40.808 3.542 L -40.847 2.671 L -49.382 0.378 Z
    M -20.441 2.5 L -20.210 3.632 L -19.425 3.460 L -19.558 2.195 Z
    M -40.347 3.621 L -39.769 3.718 L -39.742 2.968 L -40.378 2.796 Z
    M -25.835 3.562 L -25.636 3.796 L -21.996 2.546 L -22.179 1.925 Z
    M -21.425 2.839 L -21.125 3.828 L -20.660 3.730 L -20.882 2.648 Z
    M -39.312 3.796 L -38.605 3.921 L -38.519 3.296 L -39.285 3.093 Z
    M -38.003 2.957 L -34.191 3.980 L -32.039 0.519 L -37.082 -3.558 Z
    M -49.789 3.917 L -48.058 4.062 L -48.773 2.636 L -50.800 2.285 Z
    M -33.726 4.105 L -33.437 4.183 L -31.199 1.195 L -31.671 0.808 Z
    M -27.855 3.890 L -28.457 4.230 L -27.800 3.937 Z
    M -32.957 4.312 L -32.746 4.371 L -30.390 1.847 L -30.839 1.484 Z
    M -38.152 4 L -34.585 4.613 L -34.445 4.390 L -38.066 3.417 Z
    M -25.320 4.175 L -24.914 4.648 L -21.578 3.929 L -21.863 2.984 Z
    M -47.515 4.109 L -40.765 4.671 L -40.792 4.015 L -48.203 2.734 Z
    M -40.300 4.710 L -39.816 4.75 L -39.792 4.183 L -40.324 4.089 Z
    M -39.359 4.792 L -38.734 4.839 L -38.671 4.382 L -39.335 4.265 Z
    M -27.398 4.265 L -28.730 4.859 L -27.277 4.359 Z
    M -32.238 4.507 L -30.652 4.929 L -28.242 3.582 L -30.031 2.136 Z
    M -32.652 4.949 L -31.871 5.085 L -32.597 4.890 Z
    M -38.273 4.882 L -34.925 5.160 L -34.851 5.039 L -38.214 4.457 Z
    M -28.890 5.406 L -28.664 5.468 L -26.492 4.996 L -26.851 4.703 Z
    M -27.496 5.777 L -25.289 5.964 L -26.031 5.367 L -27.687 5.726 Z
    M -23.691 6.097 L -20.851 6.335 L -21.445 4.371 L -24.578 5.054 Z
    M -20.355 6.375 L -20.113 6.398 L -20.570 4.183 L -20.992 4.273 Z
    M -19.628 6.437 L -19.109 6.476 L -19.375 3.925 L -20.117 4.085 Z
    M -33.398 5.753 L -34.265 6.683 L -33.589 6.531 L -33.109 6.312 L -32.277 5.843 Z
    M -18.640 6.523 L -15.730 6.765 L -14.921 2.957 L -18.921 3.824 Z
    M -34.683 5.644 L -35.421 6.832 L -34.542 5.656 Z
    M -15.265 6.800 L -14.550 6.859 L -13.253 2.593 L -14.425 2.847 Z
    M -14.074 6.898 L -13.171 6.972 L -11.207 2.148 L -12.734 2.480 Z
    M -22.933 6.621 L -20.644 7.019 L -20.707 6.812 Z
    M -12.687 7.015 L -11.011 7.156 L -7.753 1.398 L -10.656 2.027 Z
    M -19.472 7.226 L -19.023 7.300 L -19.058 6.949 L -19.535 6.906 Z
    M -38.343 5.339 L -38.664 7.640 L -36.125 7.089 L -35.203 5.601 Z
    M -22.007 7.257 L -20.449 7.675 L -20.492 7.515 Z
    M -39.378 5.25 L -39.484 7.816 L -39.148 7.742 L -38.800 5.300 Z
    M -18.550 7.382 L -15.953 7.832 L -15.828 7.222 L -18.589 6.988 Z
    M -40.281 5.175 L -40.164 7.964 L -39.949 7.921 L -39.839 5.214 Z
    M -15.5 7.910 L -14.898 8.011 L -14.683 7.316 L -15.359 7.257 Z
    M -14.433 8.089 L -13.683 8.222 L -13.355 7.425 L -14.214 7.351 Z
    M -38.734 8.125 L -38.761 8.304 L -37.394 7.832 Z
    M -13.214 8.304 L -11.800 8.546 L -11.261 7.601 L -12.875 7.464 Z
    M -18.464 8.207 L -16.167 8.824 L -16.050 8.281 L -18.5 7.863 Z
    M -47.273 4.589 L -45.058 9.027 L -40.625 8.062 L -40.746 5.136 Z
    M -15.718 8.945 L -15.218 9.078 L -15.031 8.457 L -15.597 8.363 Z
    M -49.480 4.410 L -46.433 9.324 L -45.523 9.128 L -47.816 4.546 Z
    M -14.773 9.199 L -14.144 9.367 L -13.859 8.660 L -14.574 8.539 Z
    M -38.917 9.421 L -38.941 9.589 L -37.550 8.812 Z
    M -11.312 8.632 L -5.617 9.613 L -4.136 8.195 L -10.753 7.644 Z
    M -51.980 4.199 L -47.921 9.648 L -46.910 9.429 L -50.054 4.363 Z
    M -21.925 8.085 L -19.800 9.800 L -20.289 8.195 L -22.398 7.632 L -22.359 7.675 Z
    M -13.699 9.488 L -12.511 9.808 L -12.042 8.976 L -13.394 8.742 Z
    M -44.847 9.453 L -44.441 10.257 L -40.589 8.933 L -40.605 8.535 Z
    M -46.171 9.742 L -45.601 10.656 L -44.882 10.410 L -45.308 9.554 Z
    M -18.769 10.636 L -18.667 10.722 L -18.890 8.570 L -19.210 8.484 Z
    M -47.617 10.054 L -46.851 11.085 L -46.054 10.808 L -46.648 9.847 Z
    M -39.601 10.488 L -39.628 11.152 L -39.527 10.453 Z
    M -44.230 10.675 L -43.980 11.179 L -40.558 9.648 L -40.566 9.414 Z
    M -12.050 9.929 L -7.285 11.214 L -6.035 10.011 L -11.558 9.058 Z
    M -39.023 10.167 L -39.183 11.281 L -37.835 9.839 L -37.515 9.320 Z
    M -45.351 11.058 L -44.996 11.636 L -44.398 11.371 L -44.675 10.828 Z
    M -6.765 11.347 L -5.117 11.792 L -3.449 10.460 L -5.472 10.113 Z
    M -46.558 11.472 L -46.082 12.121 L -45.421 11.828 L -45.800 11.214 Z
    M -43.773 11.593 L -43.496 12.148 L -40.523 10.480 L -40.539 10.144 Z
    M -18.160 11.132 L -16.875 12.167 L -16.265 9.277 L -18.410 8.699 Z
    M -16.472 12.492 L -16.296 12.632 L -15.355 9.519 L -15.816 9.394 Z
    M -44.75 12.035 L -44.375 12.644 L -43.898 12.378 L -44.195 11.785 Z
    M -17.875 11.949 L -17.007 12.781 L -16.984 12.671 Z
    M -54.734 11.601 L -52.667 13.089 L -47.312 11.242 L -48.113 10.164 Z
    M -15.910 12.941 L -15.679 13.132 L -14.324 9.800 L -14.910 9.640 Z
    M -45.792 12.507 L -45.304 13.167 L -44.773 12.867 L -45.175 12.222 Z
    M -17.976 12.855 L -17.214 13.761 L -17.121 13.312 L -18.019 12.453 Z
    M -15.304 13.433 L -14.800 13.843 L -12.746 10.222 L -13.871 9.921 Z
    M -52.207 13.417 L -50.957 14.312 L -46.511 12.316 L -47.019 11.632 Z
    M -15.589 14.136 L -15.183 14.523 L -15.027 14.253 L -15.484 13.882 Z
    M -43.289 12.562 L -42.269 14.601 L -40.433 12.632 L -40.5 11 Z
    M -44.128 13.039 L -42.804 15.171 L -42.609 14.960 L -43.691 12.792 Z
    M -55.171 14.433 L -53.445 15.421 L -51.453 14.523 L -52.742 13.597 Z
    M -42.050 15.042 L -41.859 15.425 L -40.402 13.476 L -40.410 13.277 Z
    M -50.527 14.625 L -49.363 15.449 L -45.710 13.394 L -46.226 12.695 Z
    M -16.015 15.179 L -15.738 15.503 L -15.417 14.937 L -15.773 14.593 Z
    M -17.757 14.976 L -17.589 15.527 L -17.335 14.328 L -17.890 13.671 Z
    M -45.023 13.539 L -43.359 15.769 L -43.128 15.519 L -44.527 13.261 Z
    M -16.597 15.203 L -16.808 15.902 L -16.550 15.265 Z
    M -14.433 14.136 L -12.218 15.925 L -7.675 11.582 L -12.285 10.343 Z
    M -42.550 15.578 L -42.292 16 L -42.171 15.839 L -42.382 15.402 Z
    M -52.953 15.707 L -51.406 16.593 L -49.812 15.699 L -51.015 14.839 Z
    M -43.082 16.148 L -42.742 16.601 L -42.585 16.394 L -42.878 15.929 Z
    M -14.835 14.855 L -12.960 16.640 L -12.550 16.25 L -14.664 14.546 Z
    M -11.851 16.222 L -11.257 16.703 L -5.570 12.152 L -7.156 11.722 Z
    M -12.628 16.964 L -12.148 17.417 L -11.628 17 L -12.191 16.542 Z
    M -10.886 17 L -10.175 17.574 L -2.957 12.851 L -5.011 12.300 Z
    M -15.417 15.878 L -13.964 17.601 L -13.292 16.964 L -15.074 15.265 Z
    M -16.980 17.542 L -16.949 17.644 L -15.976 15.933 L -16.210 15.660 Z
    M -55.289 16.753 L -53.308 17.664 L -51.875 16.859 L -53.472 15.941 Z
    M -41.707 16.933 L -41.25 17.675 L -41.660 16.859 Z
    M -41.371 16.394 L -40.589 17.957 L -40.296 15.902 L -40.347 14.75 Z
    M -48.953 15.746 L -45.589 18.160 L -43.683 16.113 L -45.429 13.769 Z
    M -11.812 17.738 L -11.25 18.277 L -10.582 17.839 L -11.257 17.296 Z
    M -13.667 17.957 L -13.324 18.355 L -12.515 17.707 L -12.960 17.281 Z
    M -42.066 17.511 L -41.050 18.867 L -41.984 17.371 Z
    M -45.207 18.429 L -44.496 18.941 L -43.031 16.988 L -43.398 16.492 Z
    M -13.027 18.710 L -12.628 19.179 L -11.644 18.531 L -12.175 18.031 Z
    M -50.933 16.863 L -46.660 19.312 L -45.910 18.5 L -49.398 15.996 Z
    M -44.121 19.214 L -43.808 19.437 L -42.625 17.531 L -42.742 17.375 Z
    M -16.761 18.257 L -16.289 19.824 L -14.300 17.921 L -15.660 16.308 Z
    M -46.246 19.546 L -45.335 20.066 L -44.773 19.312 L -45.527 18.773 Z
    M -52.789 17.902 L -47.574 20.296 L -46.984 19.656 L -51.406 17.125 Z
    M -17.085 18.820 L -16.781 20.296 L -16.664 20.183 L -17.078 18.812 Z
    M -44.933 20.296 L -44.5 20.546 L -44.054 19.828 L -44.398 19.582 Z
    M -16.140 20.320 L -16.070 20.550 L -13.683 18.648 L -14 18.277 Z
    M -47.128 20.5 L -46.035 20.996 L -45.617 20.441 L -46.570 19.890 Z
    M -15.929 21.031 L -15.847 21.281 L -13.023 19.433 L -13.386 18.996 Z
    M -43.429 19.707 L -41.074 21.394 L -40.863 19.898 L -42.328 17.933 Z
    M -45.605 21.191 L -45.058 21.449 L -44.742 20.937 L -45.214 20.671 Z
    M -40.648 21.699 L -40.546 21.773 L -40.496 20.593 Z
    M -18.257 20.894 L -18.472 21.914 L -17.585 21.062 L -17.707 19.921 Z
    M -17.523 21.648 L -17.972 22.074 L -17.515 21.714 Z
    M -44.097 20.777 L -41.222 22.425 L -41.148 21.910 L -43.679 20.101 Z
    M -17.464 22.257 L -18.011 22.699 L -17.453 22.328 Z
    M -44.636 21.640 L -41.328 23.156 L -41.292 22.917 L -44.343 21.171 Z
    M -39.566 22.480 L -38.445 23.281 L -38.656 22.859 L -39.601 21.589 Z
    M -10.906 18.601 L -5.355 23.898 L -3.476 23.578 L -10.207 18.144 Z
    M -39.527 23.398 L -37.929 24.308 L -38 24.167 L -39.539 23.066 Z
    M -12.332 19.535 L -8.230 24.382 L -5.929 23.992 L -11.304 18.863 Z
    M -15.707 21.742 L -14.585 25.460 L -8.761 24.472 L -12.718 19.789 Z
    M -16.390 22.191 L -15.679 25.640 L -15.046 25.535 L -16.113 22.011 Z
    M -16.964 22.566 L -16.625 25.804 L -16.136 25.722 L -16.808 22.464 Z
    M -7.882 24.792 L -6.914 25.941 L -4.128 25.707 L -5.507 24.390 Z
    M -18.875 23.816 L -19.398 26.273 L -17.082 25.882 L -17.398 22.847 Z
    M -19.671 25.332 L -19.988 26.371 L -19.886 26.355 Z
    M -20.164 25.363 L -20.621 26.480 L -20.496 26.460 Z
    M -14.453 25.902 L -14.257 26.554 L -7.476 25.988 L -8.414 24.882 Z
    M -20.519 24.890 L -21.503 26.628 L -21.156 26.574 L -20.453 24.847 Z
    M -15.585 26.097 L -15.472 26.656 L -14.726 26.597 L -14.910 25.980 Z
    M -16.574 26.265 L -16.523 26.742 L -15.937 26.695 L -16.042 26.171 Z
    M -21.773 25.707 L -22.996 26.882 L -22.093 26.730 L -21.363 25.441 Z
    M -19.5 26.761 L -19.554 26.996 L -16.988 26.785 L -17.035 26.343 Z
    M -53.265 27.085 L -50.656 27.164 L -46.320 21.378 L -47.460 20.851 Z
    M -50.089 27.183 L -48.656 27.222 L -45.304 21.839 L -45.890 21.570 Z
    M -48.121 27.238 L -41.933 27.425 L -41.390 23.636 L -44.882 22.039 Z
    M -41.464 27.441 L -40.792 27.464 L -40.644 23.980 L -40.953 23.835 Z
    M -40.328 27.476 L -39.820 27.492 L -39.949 24.296 L -40.187 24.187 Z
    M -39.355 27.507 L -36.285 27.597 L -37.339 25.496 L -39.480 24.511 Z
    M -35.761 27.613 L -35.625 27.621 L -36.328 26.484 Z
    M -34.511 27.652 L -33.085 27.695 L -33.617 27.312 L -34.597 26.753 L -35.480 26.347 Z
    M -31.308 27.746 L -29.265 27.808 L -27.699 27.679 L -24.898 27.207 L -22.050 25.339 L -20.417 23.777 L -18.984 21.238 L -18.703 20.550 L -18.546 20.035 L -17.972 17.339 L -18.093 16.226 L -18.578 13.851 L -19.042 12.312 L -22.515 8.203 L -23.640 7.292 L -26.988 6.394 L -28.203 6.187 L -29.355 6.089 L -33.289 6.945 L -35.851 8.386 L -36.648 9.242 L -38.25 11.382 L -39.468 13.339 L -39.832 15.957 L -39.675 19.785 L -38.582 21.964 L -37.792 23.246 L -36.984 24.328 L -33.820 26.597 Z
    M -24.128 27.964 L -22.812 28.007 L -22.652 27.718 L -23.988 27.832 Z
    M -22.289 28.019 L -21.753 28.035 L -21.585 27.632 L -22.097 27.671 Z
    M -19.785 28.097 L -16.835 28.183 L -16.941 27.242 L -19.652 27.468 Z
    M -16.375 28.199 L -15.625 28.222 L -15.843 27.152 L -16.476 27.207 Z
    M -15.148 28.238 L -14.226 28.265 L -14.589 27.046 L -15.378 27.113 Z
    M -13.734 28.277 L -5.328 28.531 L -7.113 26.421 L -14.121 27.007 Z
    M -39.335 27.964 L -39.308 28.652 L -35.902 28.363 L -36.054 28.066 Z
    M -40.351 27.937 L -40.382 28.742 L -39.769 28.691 L -39.800 27.953 Z
    M -41.531 27.902 L -41.664 28.847 L -40.847 28.781 L -40.808 27.921 Z
    M -29.703 28.488 L -28.031 29.257 L -26.652 28.351 L -28.562 28.292 Z
    M -48.406 27.695 L -49.523 29.503 L -42.132 28.882 L -41.996 27.886 Z
    M -27.535 29.480 L -27.339 29.570 L -25.863 28.386 Z
    M -39.289 29.113 L -39.265 29.636 L -35.578 29.015 L -35.679 28.812 Z
    M -29.933 28.886 L -28.625 29.640 L -28.484 29.550 Z
    M -50.429 27.632 L -51.988 29.714 L -50.105 29.550 L -48.937 27.679 Z
    M -40.402 29.203 L -40.429 29.832 L -39.726 29.714 L -39.75 29.152 Z
    M -26.871 29.785 L -26.75 29.839 L -25.824 28.949 Z
    M -41.726 29.316 L -41.835 30.070 L -40.894 29.914 L -40.863 29.246 Z
    M -26.300 30.042 L -24.449 30.894 L -23.070 28.460 L -24.597 28.414 Z
    M -24.027 31.089 L -23.156 31.488 L -21.937 28.496 L -22.550 28.476 Z
    M -33.417 29.117 L -31.585 31.578 L -29.535 30.238 L -31.546 28.796 Z
    M -49.832 29.996 L -50.832 31.593 L -42.312 30.152 L -42.203 29.355 Z
    M -26.910 30.621 L -24.933 31.75 L -24.675 31.300 L -26.660 30.390 Z
    M -22.738 31.679 L -22.160 31.949 L -21.121 28.519 L -21.449 28.507 Z
    M -34.078 29.226 L -32.320 32.062 L -31.972 31.832 L -33.929 29.203 Z
    M -21.742 32.136 L -21.171 32.398 L -20.351 28.542 L -20.644 28.531 Z
    M -31.308 31.949 L -30.937 32.449 L -28.820 30.753 L -29.132 30.527 Z
    M -24.535 31.980 L -23.582 32.531 L -23.332 31.917 L -24.257 31.492 Z
    M -27.464 31.156 L -25.421 32.617 L -25.164 32.152 L -27.253 30.953 Z
    M -34.886 29.363 L -33.238 32.660 L -32.707 32.316 L -34.570 29.312 Z
    M -32.078 32.453 L -31.703 33.058 L -31.296 32.738 L -31.695 32.203 Z
    M -23.175 32.757 L -22.523 33.132 L -22.296 32.390 L -22.914 32.109 Z
    M -30.660 32.816 L -30.332 33.257 L -28.183 31.210 L -28.429 31.031 Z
    M -25.046 32.890 L -24.027 33.617 L -23.761 32.957 L -24.761 32.386 Z
    M -22.109 33.371 L -21.457 33.742 L -21.265 32.863 L -21.875 32.589 Z
    M -33.031 33.074 L -32.656 33.820 L -32.066 33.347 L -32.464 32.707 Z
    M -31.457 33.453 L -31.109 34.007 L -30.664 33.582 L -31.023 33.105 Z
    M -23.640 33.898 L -22.914 34.417 L -22.660 33.589 L -23.351 33.191 Z
    M -20.742 32.593 L -16.160 34.699 L -16.792 28.652 L -19.882 28.554 Z
    M -32.445 34.246 L -32.093 34.949 L -31.453 34.335 L -31.824 33.746 Z
    M -22.515 34.703 L -21.773 35.238 L -21.558 34.218 L -22.25 33.820 Z
    M -15.671 34.917 L -14.097 35.640 L -15.527 28.687 L -16.328 28.664 Z
    M -39.25 30.101 L -38.988 36.421 L -33.628 32.914 L -35.363 29.449 Z
    M -30.050 33.636 L -27.75 36.726 L -25.656 33.023 L -27.800 31.480 Z
    M -13.574 35.882 L -11.652 36.765 L -14.082 28.730 L -15.054 28.703 Z
    M -21.035 33.988 L -15.933 36.910 L -16.101 35.230 L -20.839 33.062 Z
    M -40.449 30.308 L -40.757 37.582 L -39.437 36.714 L -39.707 30.179 Z
    M -30.859 34.410 L -28.546 38.136 L -27.996 37.167 L -30.386 33.957 Z
    M -15.437 37.195 L -13.554 38.269 L -13.980 36.203 L -15.613 35.453 Z
    M -38.964 36.960 L -38.890 38.804 L -33.023 34.117 L -33.417 33.332 Z
    M -27.445 37.128 L -26.164 38.859 L -24.207 34.058 L -25.273 33.292 Z
    M -41.902 30.554 L -43.113 39.121 L -41.234 37.894 L -40.917 30.390 Z
    M -21.363 35.531 L -15.644 39.628 L -15.871 37.480 L -21.136 34.460 Z
    M -31.875 35.378 L -29.582 39.964 L -28.808 38.597 L -31.203 34.734 Z
    M -40.785 38.152 L -40.882 40.398 L -39.335 39.167 L -39.414 37.253 Z
    M -25.839 39.292 L -24.808 40.671 L -23.054 34.886 L -23.816 34.339 Z
    M -28.269 38.585 L -26.929 40.75 L -26.367 39.355 L -27.695 37.570 Z
    M -38.863 39.378 L -38.781 41.351 L -32.441 35.281 L -32.812 34.539 Z
    M -24.468 41.132 L -23.343 42.636 L -21.878 35.730 L -22.656 35.167 Z
    M -26.628 41.230 L -25.523 43.015 L -24.976 41.222 L -26.042 39.789 Z
    M -29.332 40.464 L -27.945 43.238 L -27.144 41.277 L -28.531 39.042 Z
    M -27.902 44.359 L -29.609 40.949 L -31.222 43.800 L -31.625 43.574 L -29.859 40.449 L -32.226 35.714 L -39.203 42.390 L -39.312 39.738 L -41.390 41.398 L -41.261 38.460 L -43.714 40.062 L -42.382 30.636 L -51.765 32.222 L -50.410 30.042 L -52.972 30.257 L -50.996 27.617 L -54.300 27.515 L -47.906 20.648 L -53.285 18.179 L -55.636 19.503 L -55.863 19.101 L -53.808 17.941 L -56.410 16.75 L -53.968 15.656 L -56.289 14.328 L -53.203 13.269 L -55.847 11.371 L -48.417 9.757 L -52.964 3.652 L -50.363 3.871 L -51.734 1.652 L -49.027 2.121 L -50.257 -0.332 L -40.871 2.187 L -41.269 -7.535 L -39.359 -5.988 L -39.253 -8.445 L -37.144 -6.429 L -36.738 -9.328 L -30.5 -1.953 L -25.367 -10.203 L -24.589 -7.628 L -22.968 -9.785 L -22.351 -6.785 L -20.265 -9.031 L -19.464 -1.355 L -12.730 -5.136 L -13.277 -2.570 L -10.875 -3.644 L -11.679 -1 L -9.054 -1.902 L -10.445 1.507 L -6.843 0.726 L -10.503 7.199 L -3.074 7.820 L -5.050 9.714 L -2.359 10.179 L -4.566 11.941 L -1.843 12.671 L -9.800 17.878 L -2.386 23.863 L -4.941 24.296 L -3.066 26.085 L -6.546 26.371 L -4.304 29.027 L -13.593 28.746 L -10.914 37.609 L -13.460 36.445 L -12.894 39.179 L -15.375 37.761 L -15.078 40.601 L -21.468 36.023 L -23.105 43.734 L -24.632 41.683 L -25.375 44.128 L -26.847 41.761 Z"/>
  </g>
</svg>
