<svg data-name="Calque 1" version="1.1" viewBox="0 0 761.12 322.23" xmlns="http://www.w3.org/2000/svg">
  <path d="M0 0 H761.12 V322.23 H0 Z" fill="#ffd24b"/>
  <path d="M83.69 82.73v92.52c0 39.54 22.93 63.29 59.19 63.29h39.42l8-17.78h-42.08c-29.8 0-45.81-15.29-45.81-47.5v-90.53h-18.72zm39.2 0v89.21c0 19.32 11.35 30.41 31.16 30.41h44.75l7.74-17.35h-51.63c-9.13 0-14.02-4.41-14.02-13.73v-88.54h-18zm38.48 0v79.44a4.31 4.31 0 0 0 4.43 4.44h49.2l7.32-16.42h-43.59v-67.46h-17.36z"/>
  <path d="M380.91 81.78a5.71 5.71 0 0 0-5.6 6.01 5.85 5.85 0 0 0 6 6.07 6 6 0 0 0 0-12v-.07a5.71 5.71 0 0 0-.4-.01zm204.05 0a5.71 5.71 0 0 0-5.6 6.01 5.85 5.85 0 0 0 6 6.07 6 6 0 0 0 0-12v-.07a5.71 5.71 0 0 0-.4-.01zm-326.82.97v41.25c0 18.2 9.82 27.15 26.77 27.15s26.58-9 26.58-27.15v-41.25h-10.31v41.41c0 11.56-5.1 17.62-16.27 17.62s-16.47-6.06-16.47-17.62v-41.41h-10.3zm399.45 0-6.36 13.97h8.67l9.05-13.97h-11.36zm-55.59 4.25v50.75c0 7.32 5.2 12.42 12.52 12.42h12v-8.67h-14.87v-30.82h14.93v-8.68h-14.93v-15h-9.65zm-51.79 13.88c-11.94 0-18.49 5.78-18.49 14.16 0 8.09 5 12.23 13.2 13.58l10.21 1.63c4.62.78 6.45 3.76 6.45 6.55 0 3.86-4.05 6.16-10.69 6.16-7.22 0-10.59-3.56-11.17-7.41h-9.53c.57 9.44 8.56 15.5 20.7 15.5 12.42 0 19.93-5.29 19.93-14.82 0-8.23-4.62-12.74-13.29-14.23l-11.07-1.83c-3.76-.58-5.78-2.41-5.78-5.49 0-3.85 4-6 9.53-6 6.46 0 10.12 2.89 10.5 7.71h9.34c-.48-10-7.32-15.51-19.84-15.51zm-82.52.12c-14.55 0-24.37 9.92-24.37 24.65 0 16 9.63 25.42 24.65 25.42 11.08 0 20.13-6.06 22.25-14.82l-10.22.05c-1.73 3.85-6.06 6.64-12.13 6.64-8.28 0-13.48-4.53-14.64-13.29h37.47a28.61 28.61 0 0 0 .29-4c0-14.73-8.47-24.65-23.3-24.65zm-119.8.05c-6.45 0-12.23 2.5-15.7 6.84v-5.89h-9.63v48.15h9.63l.1-27.64c0-8 4.62-12.9 12.13-12.9 7.23 0 11.08 4.43 11.08 12.9v27.64h9.63v-29.74c0-11.66-5.88-19.36-17.24-19.36zm307.8 0c-14.54 0-24.36 9.92-24.36 24.65 0 16 9.63 25.42 24.65 25.42 11.08 0 20.13-6.06 22.25-14.82h-10.23c-1.73 3.85-6.07 6.64-12.13 6.64-8.29 0-13.49-4.53-14.64-13.29h37.46a28.61 28.61 0 0 0 .31-3.95c0-14.73-8.48-24.65-23.31-24.65zm-143.03.94a12.2 12.2 0 0 0-12.03 12.63v35.53h9.63l-.01-39.47h17v-8.68h-14a12.2 12.2 0 0 0-.59-.01zm-136.27.02v48.15h9.63v-48.15h-9.63zm15.8 0 18.3 48.15h12.13l18.3-48.15h-10.41l-13.86 40.06-14.06-40.06h-10.4zm188.26 0v48.15h9.63v-48.15h-9.63zm-113.05 7.23c8.09 0 13.77 5.39 13.77 12.61h-27.93c1.16-7.7 6.16-12.61 14.16-12.61zm188 0c7.99 0 13.77 5.39 13.77 12.61h-27.92c1.15-7.7 6.16-12.61 14.15-12.61zm-210.14 60.89a5.71 5.71 0 0 0-5.6 6.01 5.85 5.85 0 0 0 6 6.07 6 6 0 0 0 0-12v-.07a5.71 5.71 0 0 0-.4-.01zm-147.41.97v26c-3.47-4.43-9.63-7.7-17.05-7.7-13.58 0-23.59 10.3-23.59 25.23s9.72 24.84 23.4 24.84c7.8 0 13.77-2.4 17.24-7.6v6.64h9.63v-67.41h-9.63zm97.06 0v67.41h38.91v-8.86h-28.6v-58.55h-10.31zm67.46 0v55.08c0 7.71 4.53 12.33 12.43 12.33h9.63v-8.86h-12.43v-58.55h-9.63zm27.3 0v55.08c0 7.71 4.53 12.33 12.42 12.33h9.63v-8.86h-12.42v-58.55h-9.63zm-149.16 18.3c-14.54 0-24.37 9.92-24.37 24.65 0 16 9.63 25.42 24.66 25.42 11.07 0 20.12-6.06 22.24-14.83h-10.21c-1.73 3.85-6.06 6.65-12.13 6.65-8.28 0-13.48-4.53-14.64-13.29h37.46a27.14 27.14 0 0 0 .29-3.95c0-14.73-8.47-24.65-23.3-24.65zm197.99 0c-14.54 0-24.37 9.92-24.37 24.65 0 16 9.63 25.42 24.65 25.42 11.08 0 20.13-6.06 22.25-14.83h-10.21c-1.73 3.85-6.06 6.65-12.13 6.65-8.28 0-13.48-4.53-14.64-13.29h37.46a28.61 28.61 0 0 0 .29-3.95c0-14.73-8.48-24.65-23.3-24.65zm-97.75.96v48.15h9.63v-48.15h-9.63zm-100.53 7.22c7.99 0 13.78 5.42 13.78 12.62h-27.94c1.16-7.71 6.17-12.62 14.16-12.62zm197.99 0c8 0 13.79 5.42 13.79 12.62h-27.95c1.16-7.71 6.16-12.62 14.16-12.62zm-255.48.68c9.15 0 15.5 7.22 15.5 16.37s-6.07 16.37-15.5 16.37c-9.82 0-15.41-7.22-15.41-16.37s5.68-16.37 15.41-16.37z"/>
</svg>
