<?xml version="1.0" encoding="UTF-8" standalone="no"?>
<!DOCTYPE svg PUBLIC "-//W3C//DTD SVG 1.1//EN"
  "http://www.w3.org/Graphics/SVG/1.1/DTD/svg11.dtd">
<svg version="1.1" xmlns="http://www.w3.org/2000/svg" preserveAspectRatio="xMidYMid meet" viewBox="-19.35 -19.35 311.1 129.5">
  <title>Logo de l'Université de Lille</title>
  <desc>
    La première version était vectorisé à partir du PNG avec potrace 1.11, de Peter Selinger.
    Cette version est basée sur un PDF officiel de l'Université, converti avec Inkscape, puis modifié avec SVYPathy par K. Tzanev.
    v1.0 : 28 décembre 2014
    v1.1 : 26 novembre 2015
    v1.2 : 7 décembre 2017
  </desc>
  <!-- Logo + texte (sans zone de protection) 9.57 cm x 3.19 cm = 272.4pt x 90.8pt (1cm = 28.45275pt) -->
  <!-- <rect x="0" y="0" width="272.4" height="90.8" fill="yellow"/> -->

  <!-- zone de protection = 1.36cm = 38.7pt (1cm = 28.45275pt) autour du logo -->
  <!-- J'ai réduit cette zone de protection de moitié.  -->
  <!-- zone de protection = 0.68cm = 19.35pt (1cm = 28.45275pt) autour du logo -->
  <!-- <rect x="-19.35" y="-19.35" width="311.1" height="129.5" fill="green"/> -->

  <!-- le logo -->
  <path fill="#AE2573" d="M77.5 0l-77.5 0 0 53.5c0 22.3 16.7 37.3 38.7 37.3 5.9 0 11.5-1.1 16.4-3.1l9.2-3.9 13.2 6zm-38.8 71l-17.2-7.8 0-46 17.2 0zm22.2-7.6l-16.8 7.6 0-9.1 16.8-7.7z"/>

  <!-- Université de Lille -->
  <path fill="#000000" d="M 92.53 19.12 c 0 5.8 0.06 10.88 0.12 11.31 c 0.06 0.41 0.28 1.25 0.48 1.86 c 1.13 3.38 3.94 5.81 7.61 6.56 c 1.22 0.25 3.54 0.3 4.69 0.1 c 1.1 -0.19 2.53 -0.68 3.54 -1.23 l 0.93 -0.49 l 2.01 0.93 c 1.12 0.52 2.06 0.92 2.13 0.92 c 0.05 0 0.08 -6.86 0.08 -15.24 l 0 -15.24 l -2.28 0 l -2.28 0 l 0 10.58 c 0 9.14 -0.02 10.69 -0.18 11.32 c -0.74 2.9 -3 4.62 -6.06 4.62 c -3.06 0 -5.22 -1.61 -6.08 -4.52 c -0.19 -0.64 -0.22 -1.68 -0.26 -11.36 l -0.03 -10.64 l -2.22 0 l -2.21 0 l 0.01 10.52 z M 127.45 17 c -0.98 0.16 -2.57 0.7 -3.3 1.14 l -0.65 0.38 l -1.52 -0.69 c -0.84 -0.38 -1.63 -0.73 -1.75 -0.77 c -0.23 -0.07 -0.23 0.19 -0.23 10.91 l 0 10.99 l 2.15 0 l 2.16 0 l 0.03 -7.3 c 0.04 -7.26 0.04 -7.28 0.32 -7.95 c 0.74 -1.85 1.93 -2.63 4.04 -2.64 c 1.74 -0.01 2.96 0.68 3.66 2.09 c 0.2 0.41 0.42 1.07 0.48 1.46 c 0.07 0.41 0.12 3.65 0.12 7.52 l 0 6.82 l 2.16 0 l 2.17 0 l -0.05 -8.02 c -0.04 -7.25 -0.06 -8.08 -0.25 -8.72 c -0.55 -1.85 -1.93 -3.52 -3.55 -4.3 c -1.62 -0.78 -4.31 -1.19 -5.99 -0.92 z M 142.68 10.76 l 0 2.16 l 2.22 0 l 2.22 0 l 0 -2.16 l 0 -2.16 l -2.22 0 l -2.22 0 l 0 2.16 z M 142.68 28.1 l 0 10.86 l 2.22 0 l 2.22 0 l 0 -10.86 l 0 -10.86 l -2.22 0 l -2.22 0 l 0 10.86 z M 151.86 17.68 c 0.49 3.64 0.78 5.22 1.45 7.9 c 1.25 4.94 3.11 9.37 5.35 12.7 l 0.47 0.68 l 2.25 -0.02 l 2.24 -0.04 l 0.76 -1.14 c 1.52 -2.28 3.38 -6.47 4.39 -9.9 c 0.83 -2.82 1.67 -6.76 1.93 -9.06 c 0.04 -0.36 0.1 -0.86 0.13 -1.12 l 0.07 -0.44 l -2.17 0 l -2.17 0 l -0.01 0.5 c 0 0.29 -0.02 0.62 -0.05 0.76 c -0.02 0.13 -0.1 0.72 -0.18 1.32 c -0.54 4.26 -2.54 10.7 -4.58 14.74 l -0.41 0.82 l -0.58 -1.24 c -2.38 -5.09 -4.13 -11.23 -4.57 -16.04 l -0.08 -0.86 l -2.15 0 l -2.15 0 l 0.06 0.44 z M 181.44 17.02 c -2.62 0.3 -4.8 1.7 -6.12 3.93 c -1.92 3.24 -2.2 9.23 -0.6 13.09 c 1.46 3.56 5.06 5.53 9.54 5.22 c 2.72 -0.19 4.46 -0.92 6.58 -2.74 l 0.69 -0.6 l -0.63 -0.64 c -0.35 -0.36 -0.95 -0.92 -1.32 -1.26 l -0.7 -0.6 l -0.56 0.5 c -1.09 0.96 -2.24 1.39 -4.06 1.51 c -2.68 0.18 -4.64 -0.8 -5.59 -2.78 c -0.19 -0.41 -0.35 -0.79 -0.35 -0.85 c 0 -0.06 0.55 -0.18 1.24 -0.27 c 2.89 -0.35 6.05 -1.19 7.77 -2.06 c 2.94 -1.48 4.19 -3.29 4.19 -6.05 c 0 -2.9 -1.85 -5.23 -4.79 -6.05 c -1.56 -0.43 -3.5 -0.56 -5.29 -0.35 z m 4.14 4.31 c 1.16 0.43 1.86 1.34 1.86 2.39 c -0.01 0.85 -0.91 1.97 -2.12 2.6 c -1.31 0.7 -4.13 1.44 -6.81 1.79 l -0.59 0.07 l 0.08 -1.65 c 0.08 -1.87 0.32 -2.86 0.91 -3.79 c 0.4 -0.61 1.28 -1.27 2.11 -1.54 c 1.15 -0.38 3.35 -0.32 4.56 0.13 z M 203.16 17 c -1.04 0.17 -2.52 0.67 -3.26 1.12 l -0.68 0.42 l -1.69 -0.77 c -0.92 -0.42 -1.74 -0.77 -1.81 -0.77 c -0.08 0 -0.12 3.55 -0.12 10.98 l 0 10.98 l 2.22 0 l 2.21 0 l 0.03 -7.3 c 0.04 -7.19 0.04 -7.3 0.3 -7.99 c 0.66 -1.74 1.94 -2.58 4 -2.6 c 0.62 -0.01 1.12 0.06 1.6 0.23 l 0.69 0.25 l 0.51 -0.81 c 1.02 -1.6 1.8 -2.9 1.75 -2.95 c -0.02 -0.01 -0.26 -0.12 -0.54 -0.23 c -1.25 -0.48 -3.9 -0.77 -5.21 -0.56 z M 216.97 17.02 c -3.31 0.37 -5.92 2.42 -6.48 5.12 c -0.29 1.4 -0.08 3.38 0.48 4.48 c 0.38 0.76 1.44 1.74 2.29 2.14 c 1.18 0.55 2.36 0.79 4.96 1.01 c 2.9 0.25 3.56 0.41 4.15 1.03 c 0.52 0.54 0.68 1.14 0.58 2.08 c -0.18 1.63 -1.93 2.6 -4.73 2.6 c -2.15 0 -4.24 -0.67 -5.58 -1.8 l -0.56 -0.47 l -1.42 1.43 c -1.6 1.62 -1.57 1.45 -0.42 2.34 c 1.88 1.45 4.04 2.14 7.12 2.27 c 3.53 0.14 6.24 -0.62 7.99 -2.27 c 1.36 -1.28 1.93 -2.68 1.93 -4.68 c 0 -2.54 -1.01 -4.3 -3.04 -5.28 c -1.32 -0.62 -2.16 -0.78 -5.9 -1.08 c -1.78 -0.14 -2.42 -0.32 -3.04 -0.84 c -0.55 -0.46 -0.74 -0.9 -0.74 -1.68 c 0 -1.19 0.72 -2.11 1.98 -2.54 c 0.79 -0.28 3.25 -0.28 4.42 0 c 0.82 0.2 1.78 0.62 2.4 1.08 l 0.34 0.24 l 1.37 -1.37 c 0.76 -0.76 1.37 -1.4 1.37 -1.44 c 0 -0.05 -0.36 -0.34 -0.8 -0.64 c -1.44 -0.97 -3.16 -1.52 -5.5 -1.75 c -1.34 -0.13 -1.79 -0.13 -3.17 0.02 z M 231.48 10.76 l 0 2.16 l 2.22 0 l 2.22 0 l 0 -2.16 l 0 -2.16 l -2.22 0 l -2.22 0 l 0 2.16 z M 231.48 28.1 l 0 10.86 l 2.22 0 l 2.22 0 l 0 -10.86 l 0 -10.86 l -2.22 0 l -2.22 0 l 0 10.86 z M 243.24 12.92 l 0 4.32 l -1.32 0 l -1.32 0 l 0 1.68 l 0 1.68 l 1.32 0 l 1.32 0 l 0 6.58 c 0 6.17 0.01 6.65 0.24 7.51 c 0.3 1.18 0.72 1.97 1.45 2.7 c 1.13 1.12 2.56 1.57 5.05 1.57 c 1.82 0 1.68 0.2 1.64 -2.22 l -0.04 -1.68 l -1.24 -0.02 c -1.49 -0.02 -2.06 -0.28 -2.47 -1.06 c -0.24 -0.47 -0.25 -0.66 -0.29 -6.94 l -0.03 -6.44 l 2.04 0 l 2.05 0 l 0 -1.68 l 0 -1.68 l -2.04 0 l -2.04 0 l 0 -4.32 l 0 -4.32 l -2.16 0 l -2.16 0 l 0 4.32 z M 263.62 9.76 l -4.9 2.24 l 0 1.9 c 0 1.06 0.05 1.9 0.11 1.88 c 0.05 -0.02 2.29 -1.03 4.97 -2.26 l 4.88 -2.22 l 0 -1.9 c 0 -1.03 -0.04 -1.88 -0.08 -1.88 c -0.06 0 -2.29 1.01 -4.98 2.24 z M 262.32 17 c -2.1 0.29 -3.49 0.95 -4.86 2.34 c -1.14 1.14 -1.72 2.09 -2.21 3.65 c -0.48 1.5 -0.7 2.93 -0.72 4.94 c -0.08 5.76 2 9.49 6.04 10.78 c 3.24 1.04 7.2 0.61 9.62 -1.03 c 0.74 -0.52 2.09 -1.68 2.09 -1.83 c 0 -0.04 -0.56 -0.6 -1.26 -1.25 l -1.25 -1.17 l -0.69 0.56 c -0.88 0.72 -1.69 1.09 -2.86 1.31 c -3.08 0.6 -5.6 -0.37 -6.7 -2.57 c -0.49 -1 -0.47 -1.04 0.5 -1.15 c 3.85 -0.41 7.32 -1.46 9.45 -2.88 c 1.58 -1.06 2.28 -1.98 2.69 -3.6 c 0.29 -1.13 0.3 -2.04 0.06 -3 c -0.71 -2.75 -2.5 -4.33 -5.56 -4.93 c -1.06 -0.2 -3.43 -0.3 -4.34 -0.17 z m 3.92 4.27 c 0.7 0.22 1.51 0.85 1.79 1.39 c 0.26 0.5 0.24 1.4 -0.05 1.97 c -0.44 0.85 -1.45 1.62 -2.8 2.14 c -1.36 0.5 -3.74 1.06 -5.76 1.33 l -0.58 0.07 l 0 -1.41 c 0.01 -3.02 0.74 -4.55 2.62 -5.42 c 1.12 -0.5 3.29 -0.54 4.78 -0.07 z M 106.2 55.23 c 0 3.9 -0.02 4.62 -0.17 4.57 c -3.3 -1.27 -7.39 -0.99 -9.85 0.65 c -1.38 0.93 -2.28 2.14 -2.95 3.95 c -0.65 1.78 -0.85 3.26 -0.85 5.88 c 0.02 7.12 3.63 11.03 9.92 10.76 c 1.63 -0.06 2.57 -0.32 3.89 -1.1 l 0.75 -0.44 l 1.41 0.62 c 0.77 0.35 1.57 0.71 1.79 0.79 l 0.38 0.17 l 0 -15.24 l 0 -15.24 l -2.16 0 l -2.16 0 l 0 4.63 z m -2.22 8.09 c 0.62 0.2 0.96 0.41 1.39 0.84 c 0.83 0.83 0.85 1.04 0.81 6.24 l -0.04 4.38 l -0.36 0.65 c -0.78 1.41 -2.51 2.1 -4.57 1.82 c -2.26 -0.31 -3.77 -1.73 -4.31 -4.01 c -0.22 -0.92 -0.25 -5.73 -0.05 -6.7 c 0.39 -1.77 1.47 -2.92 3.23 -3.41 c 0.86 -0.24 2.92 -0.13 3.9 0.19 z M 121.27 59.24 c -4.16 1.06 -6.39 4.49 -6.62 10.14 c -0.27 6.38 2.04 10.34 6.73 11.59 c 1.42 0.39 4.62 0.39 6 0 c 1.1 -0.3 2.21 -0.79 3.02 -1.34 c 0.88 -0.6 1.97 -1.57 1.94 -1.73 c -0.03 -0.07 -0.59 -0.66 -1.28 -1.31 l -1.22 -1.19 l -0.54 0.51 c -0.72 0.66 -2.03 1.27 -3.08 1.45 c -0.5 0.08 -1.38 0.12 -2.07 0.1 c -1.91 -0.1 -3.07 -0.66 -4.05 -1.96 c -0.58 -0.76 -0.93 -1.6 -0.71 -1.73 c 0.08 -0.06 0.67 -0.15 1.31 -0.24 c 4.78 -0.59 8.48 -2.03 10.3 -4.01 c 0.71 -0.78 1.08 -1.51 1.31 -2.59 c 0.75 -3.51 -1.23 -6.63 -4.83 -7.58 c -1.43 -0.39 -4.89 -0.45 -6.21 -0.11 z m 4.92 4.01 c 0.75 0.23 1.54 0.79 1.85 1.31 c 0.29 0.46 0.32 1.46 0.07 2.06 c -0.24 0.56 -1.08 1.34 -1.91 1.76 c -1.39 0.7 -4.34 1.48 -6.55 1.72 l -0.77 0.08 l 0.06 -1.71 c 0.09 -2.02 0.34 -2.97 1.04 -3.89 c 0.48 -0.62 1.36 -1.19 2.28 -1.45 c 0.73 -0.22 3.09 -0.15 3.93 0.12 z M 145.94 63.46 c 0.04 12.14 0.05 12.92 0.27 13.54 c 0.71 2.1 1.88 3.25 3.87 3.77 c 0.62 0.15 1.59 0.19 5.91 0.19 l 5.17 0 l 0 -1.86 l 0 -1.86 l -4.52 0 c -2.62 0 -4.72 -0.05 -4.97 -0.12 c -0.51 -0.14 -0.99 -0.62 -1.18 -1.19 c -0.09 -0.29 -0.13 -3.89 -0.13 -12.86 l 0 -12.47 l -2.22 0 l -2.22 0 l 0.02 12.86 z M 164.52 52.82 l 0 2.22 l 2.16 0 l 2.16 0 l 0 -2.22 l 0 -2.22 l -2.16 0 l -2.16 0 l 0 2.22 z M 164.52 70.1 l 0 10.86 l 2.16 0 l 2.16 0 l 0 -10.86 l 0 -10.86 l -2.16 0 l -2.16 0 l 0 10.86 z M 175.1 63.34 c 0.04 11.76 0.06 12.82 0.26 13.47 c 0.32 1.09 0.9 2.06 1.59 2.7 c 1.23 1.11 2.33 1.45 4.81 1.45 l 1.72 0 l 0 -1.91 l 0 -1.89 l -1.25 -0.06 c -1.49 -0.08 -2.03 -0.29 -2.4 -1.01 c -0.25 -0.47 -0.25 -0.6 -0.29 -12.99 l -0.02 -12.5 l -2.22 0 l -2.23 0 l 0.03 12.74 z M 187.37 50.76 c -0.04 0.09 -0.04 5.83 -0.01 12.75 c 0.03 11.67 0.04 12.64 0.25 13.31 c 0.32 1.1 0.89 2.05 1.58 2.69 c 1.21 1.1 2.35 1.45 4.81 1.45 l 1.72 0 l 0 -1.91 l 0 -1.89 l -1.22 -0.06 c -1.28 -0.06 -1.76 -0.21 -2.18 -0.68 c -0.56 -0.61 -0.55 -0.43 -0.56 -13.5 l 0 -12.32 l -2.16 0 c -1.69 0 -2.18 0.04 -2.23 0.16 z M 205.02 59.19 c -1.16 0.25 -2.86 1.11 -3.68 1.85 c -1.38 1.24 -2.36 3.11 -2.87 5.53 c -0.36 1.68 -0.4 5.27 -0.07 6.83 c 0.88 4.27 2.91 6.64 6.5 7.57 c 1.34 0.36 4.37 0.39 5.76 0.06 c 1.79 -0.41 2.94 -1.02 4.49 -2.35 l 0.87 -0.76 l -1.29 -1.22 l -1.31 -1.22 l -0.84 0.64 c -1.31 1 -2.5 1.36 -4.5 1.36 c -2.42 0 -4.06 -0.94 -4.94 -2.83 c -0.21 -0.43 -0.34 -0.82 -0.29 -0.85 c 0.03 -0.04 0.77 -0.17 1.62 -0.29 c 4.77 -0.67 8.1 -1.96 9.97 -3.85 c 1.82 -1.85 2.08 -5.22 0.58 -7.56 c -0.81 -1.28 -2.31 -2.3 -4.02 -2.75 c -1.28 -0.35 -4.72 -0.43 -5.98 -0.16 z m 4.92 4.13 c 1.31 0.49 2.1 1.61 1.91 2.65 c -0.35 1.86 -2.57 3.06 -7.19 3.9 c -0.53 0.1 -1.25 0.21 -1.58 0.24 l -0.64 0.07 l 0 -1.11 c 0.01 -3.58 0.96 -5.25 3.36 -5.94 c 0.86 -0.27 3.24 -0.15 4.14 0.19 z"/>
</svg>
