<?xml version="1.0" encoding="UTF-8" standalone="no"?>
<svg xmlns="http://www.w3.org/2000/svg" width="1000" height="1000">
  <g>
    <!-- fond -->
    <path fill="#132746" d="M478.78,0.86c-8.73,-0.54,-17.47,-0.81,-26.14,-0.84c-124.01,-0.30,-236.37,52.41,-334.24,157.00c-88.74,94.88,-118.62,171.18,-118.38,263.36c0.09,49.40,8.85,103.62,21.83,167.18c24.40,119.88,95.48,235.56,194.89,317.19c76.21,62.65,161.15,94.88,250.62,95.48c46.38,0.30,94.28,-7.83,142.48,-24.39c156.03,-53.61,305.14,-207.84,362.68,-374.73c18.07,-52.41,26.80,-103.62,26.80,-152.42c-0.30,-119.88,-54.82,-224.71,-159.35,-299.72c-126.81,-90.67,-248.51,-140.37,-362.07,-147.30"></path>

    <!-- cnrs -->
    <g fill="#fff" >
      <path d="M313.43,474.65l-34.25,0l-0.14,1.02c-0.14,6.61,-4.11,64.97,-56.44,64.97c-46.59,0,-70.26,-41.74,-70.26,-124.21c0,-82.46,23.66,-124.36,70.26,-124.36c53.21,0,56.44,62.32,56.44,64.97l0.14,1.02l34.25,0c3.23,0,6.32,-1.32,8.52,-3.52c2.05,-2.20,3.08,-4.99,2.94,-7.93c-0.73,-16.16,-8.96,-96.87,-102.75,-96.87c-75.70,0,-115.83,57.47,-115.83,166.40c0,109.22,40.13,166.99,115.83,166.99c90.25,0,101.42,-73.79,102.75,-96.43c0.29,-3.08,-0.88,-6.02,-2.94,-8.37c-2.20,-2.35,-5.29,-3.67,-8.52,-3.67Z"></path>
      <path fill="#66cde2" d="M543.34,345.00c0,-51.45,-41.74,-94.96,-93.19,-94.96c-24.25,0,-46.30,9.11,-62.76,24.40l0,-17.78l-31.01,0c-9.40,0,-12.93,6.17,-12.93,13.08l0,300.46c0,8.37,5.14,12.93,12.78,12.93l31.01,0l0,-236.22c0,-31.01,25.13,-56.15,56.15,-56.15s56.15,25.13,56.15,56.15L499.53,583.14l30.87,0c8.52,0,12.93,-4.70,12.93,-12.93L543.34,345.00Z"></path>
      <path d="M703.57,272.38c1.61,-1.91,2.49,-4.40,2.49,-7.20c0,-5.14,-3.23,-9.55,-7.93,-11.17c-8.96,-2.94,-18.52,-4.55,-28.51,-4.55c-24.10,0,-46.15,9.26,-62.76,24.40l0,-17.78l-31.01,0c-9.40,0,-12.93,6.17,-12.93,13.08l0,300.46c0,8.37,5.14,12.93,12.78,12.93l31.01,0l0,-236.22c0,-31.01,25.13,-56.15,56.15,-56.15c8.23,0,15.87,1.76,22.78,4.85l17.93,-22.49Z"></path>
      <path fill="#66cde2" d="M811.17,396.59l-29.54,-12.93c-28.51,-12.49,-38.51,-24.54,-38.51,-46.45c0,-28.37,20.72,-47.48,51.74,-47.48c18.22,0,33.22,3.82,51.59,22.49l1.02,1.02l15.72,-14.40c9.11,-8.52,6.46,-16.16,2.64,-21.02c-15.43,-18.22,-39.98,-28.22,-69.53,-28.22c-56.88,0,-98.04,37.19,-98.04,88.20c0,50.27,31.60,71.29,65.85,86.58l30.13,13.37c30.28,13.52,44.68,25.13,44.68,54.39c0,39.69,-35.86,50.27,-57.18,50.27c-18.22,0,-38.51,-3.96,-63.50,-32.19l-1.02,-1.17l-16.46,14.55c-8.37,7.34,-8.52,13.67,-0.29,24.40c22.63,28.95,55.86,35.13,79.67,35.13c51.44,0,103.63,-31.75,103.63,-92.16c0,-52.33,-28.95,-75.55,-72.61,-94.37Z"></path>
    </g>

    <!-- dépasser les frontières -->
    <g fill="#fff" >
      <path fill="#fff" d="M451.79,908.34c0,4.60,-3.73,8.31,-8.34,8.31c-4.57,0,-8.31,-3.70,-8.31,-8.31l0,-566.67c0,-4.60,3.61,-8.34,8.13,-8.34c4.51,0,8.13,3.91,8.13,8.43L451.40,908.34Z"></path>
    </g>
  </g>
</svg>
