<?xml version="1.0" encoding="UTF-8" standalone="no"?>
<svg xmlns="http://www.w3.org/2000/svg" width="1000" height="1000">
  <g>
    <path fill="#132746" d="M478.78,0.86c-8.73,-0.54,-17.47,-0.81,-26.14,-0.84c-124.01,-0.30,-236.37,52.41,-334.24,157.00c-88.74,94.88,-118.62,171.18,-118.38,263.36c0.09,49.40,8.85,103.62,21.83,167.18c24.40,119.88,95.48,235.56,194.89,317.19c76.21,62.65,161.15,94.88,250.62,95.48c46.38,0.30,94.28,-7.83,142.48,-24.39c156.03,-53.61,305.14,-207.84,362.68,-374.73c18.07,-52.41,26.80,-103.62,26.80,-152.42c-0.30,-119.88,-54.82,-224.71,-159.35,-299.72c-126.81,-90.67,-248.51,-140.37,-362.07,-147.30"></path>
    <path fill="#fff" d="M313.46,475.03l-34.34,0l0,0.96c-0.30,6.62,-4.21,65.00,-56.45,65.00c-46.69,0,-70.36,-41.81,-70.39,-124.28c0,-82.53,23.49,-124.40,70.18,-124.40c53.01,0,56.32,62.35,56.32,65.06l0,0.90l34.34,0c3.01,0,6.02,-1.50,8.43,-3.61c2.10,-2.40,3.01,-5.12,3.01,-8.13c-0.90,-16.26,-9.03,-96.99,-102.71,-96.99c-75.90,0,-115.97,57.53,-115.97,166.58s40.06,166.88,115.67,166.88c90.06,0,101.21,-73.80,102.71,-96.39c0.30,-3.31,-0.90,-6.32,-3.01,-8.43c-2.40,-2.40,-5.42,-3.61,-8.43,-3.61"></path>
    <path fill="#66cde2" d="M811.10,396.86l-29.52,-12.83c-28.43,-12.50,-38.55,-24.64,-38.55,-46.38c0,-28.43,20.78,-47.53,51.75,-47.53c18.28,0,33.28,3.73,51.60,22.38l1.20,0.90l15.96,-14.45c9.33,-8.43,6.62,-16.26,2.71,-21.08c-15.36,-18.07,-40.06,-28.31,-69.58,-28.31c-56.63,0,-97.89,37.05,-97.89,87.95c0,50.30,31.62,71.09,65.96,86.45l30.12,13.25c30.42,13.55,44.88,25.18,44.88,54.34c0,39.76,-35.84,50.30,-57.02,50.30c-18.37,0,-38.55,-3.91,-63.55,-32.23l-1.05,-1.08l-16.38,14.45c-8.43,7.31,-8.49,13.67,-0.30,24.39c22.59,28.91,55.72,35.03,79.64,35.03c51.51,0,103.62,-31.62,103.62,-92.17c0,-52.29,-28.91,-75.51,-72.59,-94.28"></path>
    <path fill="#66cde2" d="M543.30,345.41c0,-51.51,-41.65,-95.06,-93.17,-95.06c-24.21,0,-46.26,9.21,-62.83,24.39l0,-17.71l-30.72,0c-9.33,0,-12.95,6.08,-12.95,13.10l0,300.32c0,8.43,5.12,12.95,12.95,12.95l31.02,0l0,-236.16c0,-31.02,25.30,-56.20,56.33,-56.20s56.32,25.15,56.32,56.20l0,236.22l30.72,0c8.73,0,12.95,-4.72,12.95,-12.95l0,-225.10Z"></path>
    <path fill="#fff" d="M703.50,272.75c1.62,-1.98,2.62,-4.51,2.62,-7.22c0,-5.21,-3.37,-9.54,-8.01,-11.14c-9.03,-3.01,-18.67,-4.63,-28.61,-4.63c-24.39,0,-46.38,9.24,-62.95,24.39l0,-17.71l-31.02,0c-9.33,0,-12.95,6.11,-12.95,13.10l0,300.32c0,8.43,5.12,12.95,12.65,12.95l31.02,0l0,-236.16c0,-31.02,25.00,-56.17,56.02,-56.17c8.13,0,15.66,1.74,22.59,4.81l17.77,-22.44l0,-0.06Z"></path>
    <path fill="#fff" d="M451.79,908.34c0,4.60,-3.73,8.31,-8.34,8.31c-4.57,0,-8.31,-3.70,-8.31,-8.31l0,-566.67c0,-4.60,3.61,-8.34,8.13,-8.34c4.51,0,8.13,3.91,8.13,8.43L451.40,908.34Z"></path>
  </g>
</svg>
