<svg version="1.1" viewBox="0 0 1314.55 239.2" xml:space="preserve" xmlns="http://www.w3.org/2000/svg">
  <!-- Département de Mathématiques -->
  <path d="M88.98 65.21l-4.66 5.87h3.56l6.41-5.87zm-35.44 7.42c-3.46 0-6.62.3-9.27.75v33.18c2.21.25 4.76.4 7.92.4 6.57 0 11.78-1.71 14.98-4.86 3.11-3.11 4.86-7.62 4.87-13.13 0-5.46-1.75-9.37-4.82-12.13-2.96-2.71-7.42-4.21-13.68-4.21zm57.15 0c-3.51 0-6.26.3-8.37.65v33.38h4.36v-13.53c1 .25 2.21.3 3.51.3 4.26 0 7.97-1.25 10.32-3.71 1.7-1.75 2.61-4.16 2.61-7.22 0-3.01-1.15-5.46-2.96-7.06-2-1.8-5.16-2.81-9.47-2.81zm53.06 0c-2.96 0-6.17.3-8.37.7v33.33h4.36v-14.63h4.11c3.96.15 5.81 1.91 6.82 6.56.9 4.21 1.65 7.07 2.2 8.07h4.51c-.7-1.3-1.5-4.56-2.6-9.27-.8-3.51-2.36-5.91-4.92-6.82v-.15c3.51-1.2 6.32-4.16 6.32-8.57 0-2.66-1-4.96-2.66-6.46-2.06-1.85-5.11-2.76-9.77-2.76zm211.38 0c-3.46 0-6.62.3-9.28.75v33.18c2.21.25 4.76.4 7.92.4 6.57 0 11.78-1.71 14.99-4.86 3.11-3.11 4.86-7.62 4.86-13.13 0-5.46-1.75-9.37-4.81-12.13-2.96-2.71-7.42-4.21-13.68-4.21zm-297.53.25v33.78h19.05v-3.66h-14.64v-12.18h13.08v-3.6h-13.08v-10.68h13.88v-3.66zm56.11 0-11.53 33.78h4.51l3.51-10.62h11.98l3.61 10.62h4.66l-11.53-33.78zm45.22 0v3.71h10.28v30.07h4.41v-30.07h10.32v-3.71zm28.67 0v33.78h19.05v-3.66h-14.63v-12.18h13.08v-3.6h-13.08v-10.68h13.88v-3.66zm26.18 0-2.36 33.78h4.16l.9-14.48c.3-5.11.55-10.73.65-14.94h.11c.95 4.01 2.26 8.32 3.86 13.13l5.51 16.09h3.31l5.96-16.39c1.7-4.66 3.06-8.92 4.26-12.83h.1c0 4.16.3 9.87.55 14.59l.81 14.83h4.31l-2.11-33.78h-5.56l-6.02 16.34c-1.5 4.26-2.71 7.97-3.61 11.38h-.1c-.9-3.51-2-7.22-3.4-11.38l-5.77-16.34zm38.83 0v33.78h19.04v-3.66h-14.63v-12.18h13.08v-3.6h-13.08v-10.68h13.88v-3.66zm24.72 0v33.78h4.11v-14.43c0-5.61-.05-9.67-.31-13.94l.16-.05c1.65 3.66 3.91 7.52 6.26 11.28l10.73 17.14h4.41v-33.78h-4.11v14.14c0 5.26.1 9.37.5 13.88l-.15.05c-1.55-3.46-3.56-7.02-6.02-10.98l-10.77-17.09zm29.13 0v3.71h10.27v30.07h4.41v-30.07h10.33v-3.71zm72.72 0v33.78h19.05v-3.66h-14.63v-12.18h13.08v-3.6h-13.08v-10.68h13.88v-3.66zm-235.13 3.16c4.61 0 7.77 1.91 7.77 6.26 0 3.86-2.96 6.41-7.62 6.42h-4.46v-12.33c.75-.2 2.21-.35 4.31-.35zm-110.31.05c9.22 0 13.73 5.06 13.68 13.03 0 9.12-5.01 14.33-14.38 14.34-1.7 0-3.31-.05-4.41-.2v-26.72c1.15-.25 2.86-.45 5.11-.45zm57.05 0c4.76 0 7.97 2.16 7.97 6.67 0 4.56-3.21 7.17-8.47 7.16-1.45 0-2.66-.1-3.61-.35v-13.13c.75-.2 2.21-.35 4.11-.35zm264.54 0c9.22 0 13.73 5.06 13.68 13.03 0 9.12-5.01 14.33-14.39 14.34-1.7 0-3.31-.05-4.41-.2v-26.72c1.15-.25 2.86-.45 5.12-.45zm-239.21.65h.09c.5 1.95 1 3.96 1.76 6.17l3.36 9.72h-10.23l3.31-9.77c.7-2.06 1.2-4.16 1.71-6.12zm90.01 36.81-5.35 7.85h7.78l7.78-7.85zm182.4 9.38c-12.89 0-21.05 9.63-21.06 22.58 0 14.1 9.06 21.24 18.82 21.88.96.06 1.98.25 2.94.64 5.81 2.36 10.91 4.27 17.03 6.06l2.74-7.53c-3.38-.64-7.08-1.47-10.33-2.42v-.26c5.61-2.55 10.14-9.44 10.14-19.2 0-11.8-7.21-21.75-20.28-21.75zm119.26.12c-10.08 0-16.27 5.55-16.26 12.89 0 6.25 4.72 10.21 11.86 12.76 5.17 1.79 7.21 3.32 7.21 6 0 2.81-2.36 4.66-6.82 4.65-4.15 0-8.23-1.34-10.79-2.68l-1.97 7.98c2.42 1.34 7.27 2.68 12.18 2.68 11.8 0 17.29-6.12 17.29-13.34 0-6.06-3.51-10.02-11.1-12.82-5.61-2.11-7.97-3.32-7.97-6.06 0-2.17 2.04-4.15 6.25-4.15 4.15 0 7.27 1.21 8.93 2.05l2.17-7.79c-2.55-1.21-6.06-2.17-10.98-2.17zm-483.42.64-2.74 43h8.99l.83-16.33c.26-5.36.51-11.99.7-17.8h.13c1.08 5.61 2.49 11.74 3.89 16.84l4.6 16.59h7.59l5.23-16.78c1.66-5.04 3.44-11.16 4.85-16.65h.12c0 6.25.19 12.5.39 17.67l.7 16.46h9.44l-2.3-43h-12.75l-4.53 14.29c-1.47 4.78-2.94 10.46-4.09 15.44h-.25c-.96-5.04-2.23-10.4-3.64-15.38l-4.21-14.35zm61.93 0-13.08 43h10.02l3.06-11.04h12.31l3.32 11.04h10.53l-13.4-43zm23.36 0v8.17h11.61v34.83h9.7v-34.83h11.74v-8.17zm38.33 0v43h9.7v-17.99h16.01v17.99h9.69v-43h-9.69v16.52h-16.01v-16.52zm43.98 0v43h27.37v-7.98h-17.67v-10.2h15.82v-7.91h-15.82v-8.93h16.78v-7.98zm35.74 0-2.75 43h9l.83-16.33c.26-5.36.51-11.99.7-17.8h.13c1.08 5.61 2.49 11.74 3.89 16.84l4.59 16.59h7.59l5.23-16.78c1.66-5.04 3.45-11.16 4.85-16.65h.13c0 6.25.19 12.5.38 17.67l.7 16.46h9.45l-2.3-43h-12.76l-4.53 14.29c-1.47 4.78-2.93 10.46-4.08 15.44h-.26c-.96-5.04-2.23-10.4-3.63-15.38l-4.21-14.35zm61.93 0-13.08 43h10.01l3.07-11.04h12.31l3.32 11.04h10.52l-13.4-43zm23.36 0v8.17h11.61v34.83h9.69v-34.83h11.74v-8.17zm38.33 0v43h9.69v-43zm63.85 0v23.99c0 13.65 6.31 19.71 17.16 19.71 11.23 0 17.93-6.32 17.92-19.58v-24.12h-9.69v24.69c0 7.66-2.81 11.23-7.91 11.23-4.91 0-7.78-3.76-7.78-11.23v-24.69zm43.55 0v43h27.36v-7.98h-17.67v-10.2h15.82v-7.91h-15.82v-8.93h16.78v-7.98zm-70.52 6.96c6.63 0 10.34 6.51 10.33 14.41 0 8.42-3.77 14.61-10.33 14.61-6.57 0-10.46-6.25-10.46-14.42 0-8.1 3.83-14.61 10.46-14.6zm-295.98.31h.13c.64 2.55 1.4 5.74 2.17 8.3l2.68 9.12h-9.51l2.56-9.12c.7-2.49 1.34-5.74 1.97-8.3zm203.34 0h.13c.64 2.55 1.4 5.74 2.17 8.3l2.67 9.12h-9.5l2.55-9.12c.7-2.49 1.34-5.74 1.98-8.3z" fill="#fff"/>
  <!-- trait vertical -->
  <path d="M609 26.7v185.8h1.84v-185.8z" fill="#fff"/>
  <!-- Logo ULille -->
  <path d="M775.22 109.2v-67.2h-17.3v79.1c0 2.7 2 4.4 4.4 4.4h49l7.3-16.3zm-30.4 70.2c-29.7 0-45.6-15.2-45.6-47.3v-90.1h-18.6v92.1c0 39.3 22.8 63 58.9 63h39.2l8-17.7zm6.6-35.5c-9.1 0-14-4.4-14-13.7v-88.2h-18v88.8c0 19.2 11.3 30.3 31 30.3h44.5l7.7-17.2z" fill="#fff"/>
  <!-- Text ULille -->
  <path d="M880.82 110.1c16.8 0 26.5-8.9 26.5-27v-41h-10.3v41.2c0 11.5-5.1 17.5-16.2 17.5-11 0-16.4-6-16.4-17.5v-41.2h-10.3v41c.1 18.1 9.9 27 26.7 27m37.5-.9h9.6l.1-27.5c0-8 4.6-12.8 12.1-12.8 7.2 0 11 4.4 11 12.8v27.5h9.6v-29.6c0-11.6-5.8-19.3-17.2-19.3-6.4 0-12.2 2.5-15.6 6.8v-5.8h-9.6zm53.6 0h9.6v-47.9h-9.6zm33.9 0h12.1l18.2-47.9h-10.4l-13.8 39.9-14-39.9h-10.4zm-29-56.1c3.5 0 5.9-2.6 5.9-5.9 0-3.4-2.3-6-5.9-6-3.5 0-5.9 2.5-5.9 5.9-.1 3.4 2.4 6 5.9 6m86.2 57c11 0 20-6 22.1-14.8h-10.2c-1.7 3.8-6 6.6-12.1 6.6-8.2 0-13.4-4.5-14.6-13.2h37.3c.2-1.2.3-2.8.3-3.9 0-14.7-8.4-24.5-23.2-24.5-14.5 0-24.2 9.9-24.2 24.5.1 15.9 9.7 25.3 24.6 25.3m-14.6-29.1c1.1-7.7 6.1-12.6 14.1-12.6 8.1 0 13.7 5.4 13.7 12.6zm47.1 28.2h9.6v-39.3h16.9v-8.6h-13.9c-7.3 0-12.6 5.3-12.6 12.6zm50.1.9c12.4 0 19.8-5.3 19.8-14.8 0-8.2-4.6-12.7-13.2-14.2l-11-1.8c-3.7-.6-5.8-2.4-5.8-5.5 0-3.8 3.9-5.9 9.5-5.9 6.4 0 10.1 2.9 10.4 7.7h9.3c-.5-10-7.3-15.4-19.7-15.4-11.9 0-18.4 5.8-18.4 14.1 0 8.1 5 12.2 13.1 13.5l10.2 1.6c4.6.8 6.4 3.7 6.4 6.5 0 3.8-4 6.1-10.6 6.1-7.2 0-10.5-3.5-11.1-7.4h-9.5c.5 9.5 8.5 15.5 20.6 15.5m29.4-.9h9.6v-47.9h-9.6zm33.9 0h12v-8.6h-14.9v-30.7h14.9v-8.6h-14.9v-15h-9.6v50.5c.1 7.3 5.2 12.4 12.5 12.4m-29-56.1c3.5 0 5.9-2.6 5.9-5.9 0-3.4-2.3-6-5.9-6-3.5 0-5.9 2.5-5.9 5.9-.1 3.4 2.4 6 5.9 6m70.2 57c11 0 20-6 22.1-14.8h-10.2c-1.7 3.8-6 6.6-12.1 6.6-8.2 0-13.4-4.5-14.6-13.2h37.3c.2-1.2.3-2.8.3-3.9 0-14.7-8.4-24.5-23.2-24.5-14.5 0-24.2 9.9-24.2 24.5.1 15.9 9.7 25.3 24.6 25.3m-14.6-29.1c1.1-7.7 6.1-12.6 14.1-12.6 8.1 0 13.7 5.4 13.7 12.6zm9.9-25h8.6l9-13.9h-11.3zm-366.7 133.6c-9.8 0-15.3-7.2-15.3-16.3s5.7-16.3 15.3-16.3c9.1 0 15.4 7.2 15.4 16.3s-6 16.3-15.4 16.3m-2.1 8.5c7.8 0 13.7-2.4 17.2-7.6v6.6h9.6v-67.1h-9.6v25.9c-3.5-4.4-9.6-7.7-17-7.7-13.5 0-23.5 10.3-23.5 25.1 0 14.9 9.6 24.8 23.3 24.8m59.9 0c11 0 20-6 22.1-14.8h-10.2c-1.7 3.8-6 6.6-12.1 6.6-8.2 0-13.4-4.5-14.6-13.2h37.3c.2-1.2.3-2.8.3-3.9 0-14.7-8.4-24.5-23.2-24.5-14.5 0-24.2 9.9-24.2 24.5 0 15.9 9.6 25.3 24.6 25.3m-14.7-29.2c1.1-7.7 6.1-12.6 14.1-12.6 8.1 0 13.7 5.4 13.7 12.6zm68.5 28.2h38.7v-8.8h-28.5v-58.3h-10.2zm45.6 0h9.6v-47.9h-9.6zm33.9 0h9.6v-8.8h-12.4v-58.3h-9.6v54.8c0 7.7 4.5 12.3 12.4 12.3m-29-56.1c3.5 0 5.9-2.6 5.9-5.9 0-3.5-2.3-6-5.9-6-3.5 0-5.9 2.5-5.9 5.9s2.5 6 5.9 6m56.2 56.1h9.6v-8.8h-12.4v-58.3h-9.6v54.8c0 7.7 4.5 12.3 12.4 12.3m36.5 1c11 0 20-6 22.1-14.8h-10.2c-1.7 3.8-6 6.6-12.1 6.6-8.2 0-13.4-4.5-14.6-13.2h37.3c.2-1.2.3-2.8.3-3.9 0-14.7-8.4-24.5-23.2-24.5-14.5 0-24.2 9.9-24.2 24.5.1 15.9 9.7 25.3 24.6 25.3m-14.6-29.2c1.2-7.7 6.1-12.6 14.1-12.6 8.1 0 13.7 5.4 13.7 12.6z" fill="#fff"/>
</svg>
